<?xml version="1.0" standalone="no"?>
<!DOCTYPE svg PUBLIC "-//W3C//DTD SVG 1.1//EN" "http://www.w3.org/Graphics/SVG/1.1/DTD/svg11.dtd" >
<svg>
<metadata>
Created by FontForge 20120731 at Sun Jan 24 04:47:18 2016
 By ,,,
Copyright 1997 International Typeface Corporation. All rights reserved.
</metadata>
<defs>
<font id="OfficinaSerITCStd-ExtraBold" horiz-adv-x="500" >
  <font-face 
    font-family="OfficinaSerITCStd Medium"
    font-weight="750"
    font-stretch="normal"
    units-per-em="1000"
    panose-1="2 0 9 6 5 0 0 2 0 4"
    ascent="800"
    descent="-200"
    x-height="494"
    cap-height="686"
    bbox="-80.2353 -269.7 1221 973"
    underline-thickness="79"
    underline-position="-25"
    unicode-range="U+0020-FB02"
  />
<missing-glyph 
d="M12 0v665h475v-665h-475zM88 618l162 -243l161 243h-323zM60 575v-484l40 61l80 120l41 61zM440 575l-162 -242l162 -243v485zM411 48l-161 242l-162 -242h323z" />
    <glyph glyph-name="f_i" unicode="fi" horiz-adv-x="646" 
d="M634 13q0 -13 -15 -13h-196q-8 0 -11 2.5t-3 10.5v369h-156v-265h65q14 0 14 -13v-91q0 -8 -3 -10.5t-11 -2.5h-276q-8 0 -10.5 2.5t-2.5 10.5v91q0 8 2.5 10.5t10.5 2.5h59v265h-65q-11 0 -13.5 3t-2.5 16v78q0 9 3 12t14 3h64v39q0 109 56 154q46 37 122 37t136 -33
q12 -6 8 -20l-23 -83q-5 -16 -23 -8q-49 22 -75 22t-37.5 -15t-11.5 -51v-42h295q11 0 13.5 -2.5t2.5 -13.5v-361h55q15 0 15 -13v-91z" />
    <glyph glyph-name="f_l" unicode="fl" horiz-adv-x="668" 
d="M660 28q3 -13 -7 -19q-43 -26 -107 -26q-82 0 -115 58q-13 23 -17 46.5t-6 76.5l-1 40v374q-59 28 -104 28q-30 0 -40 -15t-10 -56v-41h95q12 0 14.5 -3.5t-0.5 -15.5l-16 -81q-2 -12 -18 -12h-75v-265h54q15 0 15 -13v-91q0 -13 -15 -13h-265q-8 0 -10.5 2.5t-2.5 10.5
v91q0 8 2.5 10.5t10.5 2.5h59v265h-65q-12 0 -14 2.5t-2 16.5v78q0 9 3 12t14 3h64v40q0 113 65 159q44 31 113 31q67 0 135 -27l132 23q11 2 14.5 -0.5t3.5 -14.5v-548q0 -24 4.5 -32.5t15.5 -8.5q18 0 40 8q11 4 14 -5z" />
    <glyph glyph-name=".notdef" 
d="M12 0v665h475v-665h-475zM88 618l162 -243l161 243h-323zM60 575v-484l40 61l80 120l41 61zM440 575l-162 -242l162 -243v485zM411 48l-161 242l-162 -242h323z" />
    <glyph glyph-name=".null" horiz-adv-x="0" 
 />
    <glyph glyph-name="nonmarkingreturn" horiz-adv-x="333" 
 />
    <glyph glyph-name="space" unicode=" " horiz-adv-x="200" 
 />
    <glyph glyph-name="exclam" unicode="!" horiz-adv-x="358" 
d="M267 676l-23 -398q-1 -13 -4.5 -16.5t-16.5 -3.5h-91q-13 0 -16.5 3.5t-4.5 16.5l-24 398q-1 13 2.5 17t18.5 4h139q14 0 17.5 -4t2.5 -17zM279 70q0 -41 -29.5 -70.5t-70.5 -29.5t-70.5 29.5t-29.5 70.5t29.5 70.5t70.5 29.5t70.5 -29.5t29.5 -70.5z" />
    <glyph glyph-name="quotedbl" unicode="&#x22;" horiz-adv-x="421" 
d="M389 666l-22 -235q-1 -8 -1.5 -11t-2.5 -6t-5.5 -3.5t-10.5 -0.5h-72q-13 0 -16 3.5t-5 17.5l-22 235q-1 13 3 16.5t18 3.5h115q14 0 18 -3.5t3 -16.5zM188 666l-21 -235q-1 -8 -1.5 -11t-3 -6t-6 -3.5t-10.5 -0.5h-71q-13 0 -16 3.5t-5 17.5l-21 235q-1 13 2.5 16.5
t17.5 3.5h115q14 0 18 -3.5t2 -16.5z" />
    <glyph glyph-name="numbersign" unicode="#" horiz-adv-x="682" 
d="M650 470l-10 -92q-2 -14 -6 -17.5t-18 -3.5h-72l-14 -115h75q14 0 17 -3.5t1 -16.5l-10 -93q-1 -14 -5 -17t-18 -3h-75l-18 -168q-2 -14 -5.5 -17.5t-17.5 -3.5h-117q-13 0 -16 3.5t-1 17.5l17 168h-75l-18 -168q-2 -14 -5.5 -17.5t-17.5 -3.5h-117q-13 0 -16.5 3.5
t-1.5 17.5l19 168h-76q-14 0 -17 3t-1 17l10 93q2 13 5 16.5t17 3.5h77l13 115h-75q-14 0 -17 3.5t-1 17.5l10 92q2 14 5 17.5t17 3.5h75l16 155q1 13 5 16.5t18 3.5h116q14 0 17 -3t1 -17l-16 -155h75l16 153q2 14 6.5 18t17.5 4h116q14 0 17 -3.5t2 -16.5l-16 -155h75
q14 0 16.5 -3.5t0.5 -17.5zM385 357h-75l-14 -115h76z" />
    <glyph glyph-name="dollar" unicode="$" horiz-adv-x="543" 
d="M494 190q0 -78 -47.5 -131.5t-129.5 -68.5v-46q0 -14 -3.5 -17t-17.5 -3h-51q-13 0 -17 3t-4 17v43q-95 10 -161 44q-20 10 -15 25l33 101q5 18 32 7q99 -45 153 -45q77 0 77 67q0 13 -7.5 25.5t-16.5 21.5t-26 19.5t-27 15.5t-29.5 14t-23.5 11q-3 1 -17 7.5t-17.5 8.5
t-15.5 8t-17 9t-15 9.5t-15.5 11.5t-13 11.5t-13.5 14t-11 15.5q-29 45 -29 103q0 74 46.5 123.5t128.5 63.5v49q0 13 4 17t17 4h51q14 0 17.5 -4t3.5 -17v-47q85 -6 143 -40q24 -14 16 -30l-38 -90q-7 -16 -30 -3q-72 39 -134 39q-79 0 -79 -62q0 -21 11.5 -34.5
t36.5 -28.5q12 -7 28 -15t36.5 -18.5t30.5 -15.5q56 -29 85 -49.5t46 -48.5q25 -41 25 -94z" />
    <glyph glyph-name="percent" unicode="%" horiz-adv-x="880" 
d="M843 170q0 -81 -44 -134t-123 -53q-78 0 -121.5 50t-43.5 132q0 83 45 135t122 52t121 -49.5t44 -132.5zM635 652l-281 -675q-7 -17 -24 -17h-72q-26 0 -16 25l281 677q7 15 24 15h71q15 0 19 -6t-2 -19zM369 480q0 -81 -44 -134t-123 -53q-78 0 -121.5 50t-43.5 132
q0 83 45 135t122 52t121 -49.5t44 -132.5zM727 167q0 93 -50 93q-49 0 -49 -91q0 -93 49 -93q50 0 50 91zM253 477q0 94 -50 94q-49 0 -49 -92t49 -92q50 0 50 90z" />
    <glyph glyph-name="ampersand" unicode="&#x26;" horiz-adv-x="642" 
d="M624 79q9 -10 8.5 -15.5t-9.5 -14.5l-69 -66q-13 -12 -28 3l-54 55q-42 -35 -85 -51t-109 -16q-111 0 -175.5 52.5t-64.5 145.5q0 67 36.5 110.5t101.5 84.5q-48 56 -66.5 91t-18.5 72q0 75 60.5 126t147.5 51q85 0 139 -46.5t54 -121.5q0 -69 -57 -128q-22 -23 -65 -56
l90 -102q16 34 24 103q1 10 6.5 11.5t13.5 -0.5l96 -17q12 -3 12 -17q0 -32 -17 -86.5t-39 -93.5zM349 533q0 28 -15.5 43t-40.5 15q-26 0 -43 -16t-17 -41q0 -31 27 -63q9 -10 16.5 -18.5t14.5 -16.5q33 30 45.5 51t12.5 46zM382 141l-124 140q-64 -45 -64 -97
q0 -37 26 -61t65 -24q53 0 97 42z" />
    <glyph glyph-name="quotesingle" unicode="'" horiz-adv-x="220" 
d="M188 666l-21 -235q-1 -8 -1.5 -11t-3 -6t-6 -3.5t-10.5 -0.5h-71q-13 0 -16 3.5t-5 17.5l-21 235q-1 13 2.5 16.5t17.5 3.5h115q14 0 18 -3.5t2 -16.5z" />
    <glyph glyph-name="parenleft" unicode="(" horiz-adv-x="450" 
d="M419 -201q7 -13 -6 -21l-73 -45q-13 -9 -34 12q-42 44 -101 135q-111 175 -111 364q0 135 55 260q53 119 158 240q10 12 16.5 14t19.5 -5l70 -44q14 -9 0 -31q-88 -127 -118 -205q-39 -99 -39 -229q0 -110 30.5 -195t86.5 -173q38 -61 46 -77z" />
    <glyph glyph-name="parenright" unicode=")" horiz-adv-x="450" 
d="M357 244q0 -118 -42.5 -221.5t-122.5 -209.5q-48 -64 -56 -72q-15 -15 -26 -8l-73 45q-8 5 -8.5 12t2.5 12.5t12 17.5q44 60 70 106q81 143 81 318q0 130 -39 229q-30 78 -118 205q-14 22 0 31l70 44q13 7 19.5 5t16.5 -14q105 -121 158 -240q56 -128 56 -260z" />
    <glyph glyph-name="asterisk" unicode="*" horiz-adv-x="543" 
d="M477 502q5 -13 2.5 -18t-17.5 -7l-116 -18l81 -82q10 -10 9.5 -15.5t-11.5 -13.5l-74 -53q-11 -9 -17 -7.5t-12 14.5l-51 108l-53 -109q-6 -13 -11.5 -13.5t-16.5 7.5l-75 53q-11 7 -11 13t9 15l84 86l-116 16q-14 2 -16.5 7t2.5 18l29 87q4 14 10 16t17 -5l103 -56
l-17 118q-2 14 1 18.5t17 4.5h92q13 0 16.5 -4.5t1.5 -18.5l-21 -119l105 56q12 6 17.5 3.5t9.5 -15.5z" />
    <glyph glyph-name="plus" unicode="+" 
d="M478 284q0 -14 -3.5 -17t-17.5 -3h-131v-131q0 -14 -3 -17t-17 -3h-112q-14 0 -17.5 3t-3.5 17v131h-131q-14 0 -17 3t-3 17v99q0 13 3 17t17 4h131v130q0 14 3.5 17.5t17.5 3.5h112q14 0 17 -3.5t3 -17.5v-130h131q14 0 17.5 -4t3.5 -17v-99z" />
    <glyph glyph-name="comma" unicode="," horiz-adv-x="302" 
d="M269 110l-135 -257q-6 -11 -11 -12.5t-16 2.5l-61 20q-12 4 -14 9t2 17l69 229q5 17 22 17h129q17 0 19.5 -6t-4.5 -19z" />
    <glyph glyph-name="hyphen" unicode="-" horiz-adv-x="391" 
d="M359 202q0 -14 -3.5 -17.5t-17.5 -3.5h-285q-14 0 -17 3.5t-3 17.5v103q0 13 3 17t17 4h285q14 0 17.5 -4t3.5 -17v-103z" />
    <glyph glyph-name="period" unicode="." horiz-adv-x="302" 
d="M261 89q0 -46 -32 -78t-78 -32t-78 32t-32 78t32 78.5t78 32.5t78 -32.5t32 -78.5z" />
    <glyph glyph-name="slash" unicode="/" horiz-adv-x="450" 
d="M430 721l-325 -967q-6 -17 -27 -17h-85q-16 0 -18.5 5.5t2.5 18.5l326 967q6 18 26 18h85q15 0 18 -7t-2 -18z" />
    <glyph glyph-name="zero" unicode="0" horiz-adv-x="536" 
d="M521 347q0 -203 -73 -288q-65 -76 -183 -76q-122 0 -186 90t-64 254q0 202 86 289q68 70 176 70q100 0 162 -67q82 -89 82 -272zM366 318q0 139 -22 191t-72 52q-51 0 -76.5 -54t-25.5 -177q0 -119 25 -170.5t74 -51.5q57 0 79 55q18 44 18 155z" />
    <glyph glyph-name="one" unicode="1" horiz-adv-x="536" 
d="M468 21q0 -14 -3.5 -17.5t-17.5 -3.5h-314q-14 0 -17.5 3.5t-3.5 17.5v77q0 14 3.5 17t17.5 3h90v369l-96 -53q-8 -4 -12 -5t-7 1.5t-8 10.5l-37 63q-7 11 -6.5 15.5t12.5 12.5l200 137h89q14 0 17 -4t3 -17v-530h69q14 0 17.5 -3t3.5 -17v-77z" />
    <glyph glyph-name="two" unicode="2" horiz-adv-x="536" 
d="M475 498q0 -82 -35 -133q-34 -50 -104 -102l-50 -37q-62 -46 -71 -91h235q13 0 17 -3.5t4 -16.5v-94q0 -14 -3.5 -17.5t-16.5 -3.5h-391q-9 0 -12 3t-3 14v40q0 80 32 136q31 56 98 110q63 51 81 65q39 31 55 57t16 62q0 69 -70 69q-36 0 -56.5 -21t-38.5 -64
q-8 -18 -25 -12l-86 32q-11 4 -11 14q0 24 29 74q61 107 200 107q95 0 150.5 -50t55.5 -138z" />
    <glyph glyph-name="three" unicode="3" horiz-adv-x="536" 
d="M487 195q0 -94 -68.5 -152.5t-175.5 -58.5q-46 0 -103 12.5t-95 39.5q-10 6 -7 16l28 93q4 12 22 3q83 -40 142 -40q101 0 101 93q0 46 -25.5 66.5t-87.5 20.5h-33q-14 0 -17.5 3.5t-3.5 17.5v83q0 14 4 17.5t17 2.5l35 -1q96 -3 96 83q0 31 -19 50t-51 19
q-20 0 -38.5 -9t-27 -17.5t-24.5 -26.5q-1 -1 -3.5 -4.5t-4 -5t-4 -3.5t-5 -1.5t-5.5 3.5l-74 65q-7 6 3 23q30 48 80 73.5t109 25.5q94 0 153 -51t59 -134q0 -89 -84 -141q107 -47 107 -165z" />
    <glyph glyph-name="four" unicode="4" horiz-adv-x="536" 
d="M519 146q0 -13 -3 -17t-17 -4h-54v-122q0 -14 -3.5 -17t-16.5 -3h-108q-14 0 -17.5 3t-3.5 16v123h-255q-13 0 -17 4t-4 17v118l255 414q7 11 10.5 12.5t15.5 -3.5l99 -41q14 -6 15.5 -11.5t-6.5 -16.5l-246 -367h136l18 143q1 9 2.5 13t5 5.5t12.5 1.5h88q13 0 16.5 -4
t3.5 -17v-144h54q14 0 17 -4t3 -21v-78z" />
    <glyph glyph-name="five" unicode="5" horiz-adv-x="536" 
d="M500 230q0 -117 -75 -186t-200 -69q-38 0 -88 9.5t-82 26.5q-13 7 -11 21l18 92q3 16 23 9q84 -27 141 -27q62 0 97 32.5t35 90.5q0 96 -89 96q-32 0 -52 -10.5t-44 -34.5q-10 -10 -22 -7l-82 26q-11 3 -13.5 7.5t-1.5 16.5l32 326q2 13 5.5 16.5t16.5 3.5h321
q14 0 17.5 -3.5t3.5 -18.5v-92q0 -13 -3 -16.5t-17 -3.5h-213l-12 -114q37 24 88 24q94 0 150.5 -59t56.5 -156z" />
    <glyph glyph-name="six" unicode="6" horiz-adv-x="536" 
d="M499 229q0 -111 -63 -178.5t-167 -67.5q-111 0 -168.5 77t-57.5 221q0 183 83.5 293.5t225.5 110.5q84 0 112 -30q8 -8 5 -17l-30 -88q-4 -11 -16 -6q-38 18 -71 18q-109 0 -158 -140q53 46 108 46q81 0 128 -46q69 -68 69 -193zM357 233q0 118 -78 118q-39 0 -61 -31
t-22 -89q0 -61 21 -92.5t58 -31.5q82 0 82 126z" />
    <glyph glyph-name="seven" unicode="7" horiz-adv-x="536" 
d="M482 596l-232 -599q-4 -10 -8 -12t-17 0l-113 20q-14 2 -16 7t4 18l205 498h-236q-14 0 -17.5 3t-3.5 17v100q0 14 3.5 17.5t17.5 3.5h393q13 0 16.5 -3.5t3.5 -17.5v-52z" />
    <glyph glyph-name="eight" unicode="8" horiz-adv-x="536" 
d="M515 183q0 -98 -73 -151t-175 -53q-113 0 -180 54t-67 147q0 56 34 101t94 72q-102 54 -102 153q0 81 63.5 132t158.5 51q97 0 161 -50.5t64 -131.5q0 -92 -102 -152q124 -63 124 -172zM339 495q0 33 -18.5 51.5t-52.5 18.5q-32 0 -52 -18.5t-20 -49.5q0 -57 78 -88
q65 26 65 86zM359 186q0 42 -25 65.5t-71 42.5q-91 -44 -91 -108q0 -37 25.5 -59.5t70.5 -22.5q42 0 66.5 23t24.5 59z" />
    <glyph glyph-name="nine" unicode="9" horiz-adv-x="536" 
d="M497 386q0 -182 -83 -292.5t-225 -110.5q-68 0 -101 16q-13 7 -10 18l21 96q2 10 16 7q48 -12 73 -12q111 0 159 136q-48 -45 -108 -45q-78 0 -126 44q-72 66 -72 194q0 111 63.5 180t166.5 69q111 0 168.5 -77.5t57.5 -222.5zM343 435q0 125 -77 125q-82 0 -82 -126
q0 -119 79 -119q80 0 80 120z" />
    <glyph glyph-name="colon" unicode=":" horiz-adv-x="302" 
d="M261 407q0 -46 -32 -78t-78 -32t-78 32t-32 78t32 78t78 32t78 -32t32 -78zM261 89q0 -46 -32 -78t-78 -32t-78 32t-32 78t32 78.5t78 32.5t78 -32.5t32 -78.5z" />
    <glyph glyph-name="semicolon" unicode=";" horiz-adv-x="308" 
d="M281 407q0 -46 -32 -78t-78 -32t-78 32t-32 78t32 78t78 32t78 -32t32 -78zM262 110l-137 -257q-6 -11 -11 -12.5t-15 2.5l-60 20q-12 4 -14.5 8.5t1.5 17.5l69 229q5 17 22 17h130q17 0 19.5 -6t-4.5 -19z" />
    <glyph glyph-name="less" unicode="&#x3c;" 
d="M489 53q0 -13 -5 -15.5t-16 3.5l-437 222q-17 8 -19 13q-1 3 -1 10v92q0 10 3 13t14 9l439 223q12 6 17 3.5t5 -15.5v-119q0 -11 -3.5 -15t-15.5 -10l-285 -134l284 -137q12 -6 16 -10t4 -15v-118z" />
    <glyph glyph-name="equal" unicode="=" 
d="M478 388q0 -14 -3.5 -17.5t-17.5 -3.5h-415q-14 0 -17 3.5t-3 17.5v94q0 13 3 16.5t17 3.5h415q14 0 17.5 -3.5t3.5 -16.5v-94zM478 184q0 -14 -3.5 -17t-17.5 -3h-415q-14 0 -17 3t-3 17v94q0 13 3 17t17 4h415q14 0 17.5 -4t3.5 -17v-94z" />
    <glyph glyph-name="greater" unicode="&#x3e;" 
d="M489 287q0 -7 -2.5 -11.5t-3.5 -5l-13 -6.5l-438 -222q-12 -6 -16.5 -3.5t-4.5 15.5v119q0 11 3.5 15t14.5 10l285 136l-284 135q-12 6 -15.5 9.5t-3.5 14.5v119q0 13 4.5 15.5t15.5 -3.5l439 -223q17 -8 18 -14q1 -3 1 -8v-92z" />
    <glyph glyph-name="question" unicode="?" horiz-adv-x="515" 
d="M468 513q0 -104 -98 -157q-27 -14 -67 -27l-1 -51q0 -14 -3.5 -18t-16.5 -4h-102q-14 0 -17.5 4t-3.5 18v120q0 11 4 15t19 8q73 19 103 38t30 56q0 58 -82 58q-10 0 -21.5 -1.5t-18 -3t-20.5 -6t-17.5 -6t-21 -8.5t-19.5 -8q-1 0 -6.5 -3t-7 -3h-5t-5.5 2.5t-4 7.5
l-33 90q-4 11 0 16.5t16 12.5q35 21 91.5 33t92.5 12q96 0 155 -53.5t59 -141.5zM334 70q0 -41 -29.5 -70.5t-70.5 -29.5t-70 29.5t-29 70.5t29 70.5t70 29.5t70.5 -29.5t29.5 -70.5z" />
    <glyph glyph-name="at" unicode="@" horiz-adv-x="1015" 
d="M933 357q0 -136 -81.5 -224.5t-198.5 -88.5q-81 0 -95 63q-55 -63 -119 -63q-48 0 -73.5 34t-25.5 93q0 106 53.5 185t125.5 79q59 0 91 -33q1 2 3.5 7.5t4 8.5t5 5.5t8.5 2.5h69q15 0 11 -20l-47 -221q-2 -8 -2 -24q0 -27 35 -27q51 0 90.5 66t39.5 150q0 101 -67.5 162
t-188.5 61q-163 0 -265.5 -111.5t-102.5 -275.5q0 -131 81 -201q75 -65 213 -65q159 0 283 59q24 10 28 -1l22 -61q5 -14 -12 -25q-48 -31 -139 -51.5t-179 -20.5q-199 0 -302 97q-107 101 -107 272q0 135 64.5 245t175.5 172t245 62q163 0 260 -83.5t97 -227.5zM584 323
q-28 25 -50 25q-31 0 -50 -47q-26 -63 -26 -127q0 -21 5.5 -30t21.5 -9q27 0 50 25.5t31 67.5z" />
    <glyph glyph-name="A" unicode="A" horiz-adv-x="597" 
d="M601 17q0 -10 -4 -13.5t-14 -3.5h-157q-10 0 -13 2.5t-6 14.5l-41 155h-152l-45 -163q-3 -9 -12 -9h-150q-11 0 -14 3t-3 14v87q0 10 3.5 13t13.5 3h30l173 549q4 12 7 14.5t15 2.5h127q12 0 15.5 -2.5t7.5 -14.5l169 -549h32q18 0 18 -16v-87zM340 285l-32 144
q0 2 -20 126q-9 -69 -22 -126l-34 -144h108z" />
    <glyph glyph-name="B" unicode="B" horiz-adv-x="590" 
d="M553 200q0 -63 -34.5 -116t-88.5 -70q-44 -14 -137 -14h-246q-14 0 -17 3.5t-3 17.5v79q0 14 3 17t17 3h41v445h-41q-14 0 -17 3.5t-3 16.5v81q0 13 3 16.5t17 3.5h238q83 0 122 -9.5t68 -37.5q54 -52 54 -134q0 -99 -92 -145q116 -41 116 -160zM373 491q0 40 -19.5 58.5
t-65.5 18.5h-43v-161h40q47 0 67.5 20t20.5 64zM394 208q0 46 -23 64.5t-86 18.5h-40v-164h43q58 0 82 19.5t24 61.5z" />
    <glyph glyph-name="C" unicode="C" horiz-adv-x="543" 
d="M504 53q0 -15 -33 -34q-59 -36 -160 -36q-128 0 -191 69q-88 94 -88 292q0 185 78 274q74 85 196 85t178 -55q12 -12 12 -23v-132q0 -10 -4 -13.5t-14 -3.5h-99q-10 0 -13 3.5t-3 13.5v70q-32 5 -51 5q-58 0 -86 -48t-28 -154q0 -135 29.5 -191.5t93.5 -56.5q29 0 50 4
v73q0 10 4 13.5t14 3.5h98q10 0 13.5 -3.5t3.5 -13.5v-142z" />
    <glyph glyph-name="D" unicode="D" horiz-adv-x="623" 
d="M585 348q0 -257 -146 -323q-56 -25 -146 -25h-246q-14 0 -17 3.5t-3 17.5v79q0 14 3 17t17 3h41v445l-41 1q-14 0 -17 3t-3 17v78q0 14 3 17.5t17 3.5h225q139 0 215 -55q98 -72 98 -282zM419 340q0 116 -26.5 165.5t-107.5 49.5h-33v-423h34q78 0 105.5 45.5t27.5 162.5
z" />
    <glyph glyph-name="E" unicode="E" horiz-adv-x="528" 
d="M487 20q0 -12 -3 -16t-15 -4h-422q-14 0 -17 3.5t-3 17.5v79q0 14 3 17t17 3h41v445h-41q-14 0 -17 3.5t-3 16.5v81q0 13 3 16.5t17 3.5h421q10 0 13 -3.5t3 -13.5v-161q0 -10 -3 -13.5t-13 -3.5h-97q-10 0 -13 3.5t-3 13.5v47h-103v-136h161q13 0 17 -3.5t4 -17.5v-86
q0 -13 -4 -17t-17 -4h-161v-160h106v55q0 11 3 14.5t13 3.5h96q10 0 13.5 -3.5t3.5 -14.5v-166z" />
    <glyph glyph-name="F" unicode="F" horiz-adv-x="501" 
d="M484 508q0 -10 -3 -13.5t-13 -3.5h-97q-10 0 -13 3.5t-3 13.5v47h-103v-142h161q13 0 17 -3t4 -17v-86q0 -13 -4 -17t-17 -4h-161v-166h56q14 0 17.5 -3t3.5 -17v-79q0 -14 -3.5 -17.5t-17.5 -3.5h-261q-14 0 -17 3.5t-3 17.5v79q0 14 3 17t17 3h41v445h-41
q-14 0 -17 3.5t-3 16.5v81q0 13 3 16.5t17 3.5h421q10 0 13 -3.5t3 -13.5v-161z" />
    <glyph glyph-name="G" unicode="G" horiz-adv-x="599" 
d="M581 273q0 -10 -3 -13.5t-13 -3.5h-38v-191q0 -11 -4 -15.5t-18 -14.5q-75 -52 -197 -52q-141 0 -208.5 90.5t-67.5 271.5q0 185 78 274q73 84 195 84q58 0 112.5 -15t82.5 -43q11 -11 11 -22v-129q0 -11 -3 -14t-13 -3h-101q-10 0 -13.5 3.5t-3.5 13.5v70q-32 11 -62 11
q-117 0 -117 -217q0 -130 26 -187q26 -56 95 -56q27 0 58 12v129h-63q-14 0 -17.5 3.5t-3.5 17.5v76q0 14 3.5 17t17.5 3h251q10 0 13 -3.5t3 -13.5v-83z" />
    <glyph glyph-name="H" unicode="H" horiz-adv-x="672" 
d="M642 21q0 -14 -3.5 -17.5t-17.5 -3.5h-242q-14 0 -17 3.5t-3 17.5v79q0 14 3 17t17 3h36v167h-162v-167h36q14 0 17.5 -3t3.5 -17v-79q0 -14 -3.5 -17.5t-17.5 -3.5h-242q-14 0 -17 3.5t-3 17.5v79q0 14 3 17t17 3h41v445h-41q-14 0 -17 3.5t-3 16.5v81q0 13 3 16.5
t17 3.5h242q14 0 17.5 -3t3.5 -17v-80q0 -14 -3.5 -17.5t-17.5 -3.5h-36v-145h162v145h-36q-14 0 -17 3.5t-3 16.5v81q0 13 3 16.5t17 3.5h242q14 0 17.5 -3t3.5 -17v-80q0 -14 -3.5 -17.5t-17.5 -3.5h-41v-445h41q14 0 17.5 -3t3.5 -17v-79z" />
    <glyph glyph-name="I" unicode="I" horiz-adv-x="357" 
d="M323 21q0 -14 -3.5 -17.5t-17.5 -3.5h-255q-14 0 -17 3.5t-3 17.5v79q0 14 3 17t17 3h44v445h-44q-14 0 -17 3t-3 17v81q0 13 3 16.5t17 3.5h255q14 0 17.5 -3.5t3.5 -16.5v-81q0 -14 -3.5 -17t-17.5 -3h-46v-445h46q14 0 17.5 -3t3.5 -17v-79z" />
    <glyph glyph-name="J" unicode="J" horiz-adv-x="460" 
d="M406 211q0 -66 -12.5 -107t-44.5 -70q-55 -51 -147 -51q-145 0 -185 120q-11 33 -11 100q0 18 11 18h122q11 0 11 -13v-7q0 -51 9.5 -70t37.5 -19q27 0 36.5 18t9.5 64v371h-136q-14 0 -17.5 3.5t-3.5 16.5v81q0 13 4 16.5t17 3.5h279q13 0 16.5 -3.5t3.5 -16.5v-455z
" />
    <glyph glyph-name="K" unicode="K" horiz-adv-x="624" 
d="M611 20q0 -12 -3.5 -16t-15.5 -4h-123q-16 0 -26 13l-196 254v-147h28q12 0 15.5 -3t3.5 -15v-82q0 -12 -3.5 -16t-15.5 -4h-233q-14 0 -17 3.5t-3 17.5v79q0 14 3 17t17 3h41v445h-41q-14 0 -17 3.5t-3 16.5v81q0 13 3 16.5t17 3.5h233q12 0 15.5 -3t3.5 -15v-82
q0 -12 -3.5 -16.5t-15.5 -4.5h-28v-147l189 258q7 10 23 10h116q12 0 15 -3t3 -15v-84q0 -12 -3 -15.5t-15 -3.5h-36l-168 -214l193 -231h28q12 0 15.5 -3t3.5 -15v-82z" />
    <glyph glyph-name="L" unicode="L" horiz-adv-x="540" 
d="M526 177l-35 -160q-2 -11 -6.5 -14t-16.5 -3h-421q-14 0 -17 3.5t-3 17.5v79q0 14 3 17t17 3h41v445h-41q-14 0 -17 3.5t-3 16.5v81q0 13 3 16.5t17 3.5h250q13 0 17 -3.5t4 -16.5v-81q0 -13 -4 -16.5t-17 -3.5h-45v-426h125l17 65q4 13 8.5 15t17.5 -1l90 -17
q13 -2 16 -6.5t0 -17.5z" />
    <glyph glyph-name="M" unicode="M" horiz-adv-x="764" 
d="M730 20q0 -12 -3.5 -16t-15.5 -4h-167q-12 0 -17 4t-5 16l-5 291q0 21 5 164q-16 -70 -41 -152l-49 -160q-4 -12 -7.5 -14.5t-15.5 -2.5h-73q-12 0 -15 2.5t-7 15.5l-44 155q-13 44 -38 156q2 -116 1 -171l-5 -284q0 -12 -3 -16t-15 -4h-164q-12 0 -15.5 4t-3.5 16v82
q0 12 3.5 15t15.5 3h35l24 445h-39q-12 0 -15.5 3.5t-3.5 15.5v84q0 12 3.5 15t15.5 3h191q12 0 15.5 -2.5t7.5 -13.5l71 -225q14 -46 25 -108q12 51 31 109l75 224q4 11 7.5 13.5t15.5 2.5h186q12 0 16 -3t4 -15v-84q0 -12 -4 -15.5t-16 -3.5h-40l24 -445h36q12 0 15.5 -3
t3.5 -15v-82z" />
    <glyph glyph-name="N" unicode="N" horiz-adv-x="662" 
d="M644 585q0 -13 -3.5 -16.5t-17.5 -3.5h-41v-544q0 -14 -3 -17.5t-17 -3.5h-91q-12 0 -16 2.5t-10 13.5l-171 311q-26 48 -53 120q9 -85 9 -117v-210h41q14 0 17 -3t3 -17v-79q0 -15 -2.5 -18t-16.5 -3h-228q-14 0 -16.5 3t-2.5 18v79q0 14 3 17t17 3h41v445h-41
q-14 0 -17 3.5t-3 16.5v81q0 13 3 16.5t17 3.5h168q12 0 15.5 -2t9.5 -13l155 -280q26 -47 54 -126q-8 92 -8 124v176h-41q-14 0 -17.5 3.5t-3.5 16.5v81q0 13 3.5 16.5t17.5 3.5h225q14 0 17.5 -3.5t3.5 -16.5v-81z" />
    <glyph glyph-name="O" unicode="O" horiz-adv-x="590" 
d="M557 353q0 -370 -265 -370q-259 0 -259 370q0 71 13 130.5t42 110.5t82.5 80t126.5 29q260 0 260 -350zM389 344q0 234 -94 234q-93 0 -93 -238q0 -232 93 -232q94 0 94 236z" />
    <glyph glyph-name="P" unicode="P" horiz-adv-x="554" 
d="M533 492q0 -103 -65 -165t-173 -62h-43v-145h56q14 0 17.5 -3t3.5 -17v-79q0 -15 -2.5 -18t-16.5 -3h-264q-14 0 -16.5 3t-2.5 18v79q0 14 3 17t17 3h41v445h-41q-14 0 -17 3.5t-3 16.5v81q0 13 3 16.5t17 3.5h241q73 0 115.5 -10t71.5 -35q58 -50 58 -149zM380 483
q0 46 -21 64.5t-72 18.5h-35v-172h28q56 0 78 19.5t22 69.5z" />
    <glyph glyph-name="Q" unicode="Q" horiz-adv-x="590" 
d="M579 -8l-85 -74q-4 -4 -12 -4q-33 0 -110 80q-42 -13 -82 -13q-260 0 -260 367q0 72 12.5 131.5t40.5 112t81.5 82t127.5 29.5q262 0 262 -349q0 -192 -69 -282q20 -15 86 -60q19 -11 8 -20zM385 345q0 233 -93 233q-44 0 -69.5 -58.5t-25.5 -179.5q0 -232 95 -232
q93 0 93 237z" />
    <glyph glyph-name="R" unicode="R" horiz-adv-x="594" 
d="M594 20q0 -12 -3 -16t-15 -4h-139q-9 0 -12 0.5t-6.5 3.5t-6.5 10l-132 261h-31v-155h32q12 0 15 -3t3 -15v-82q0 -12 -3 -16t-15 -4h-235q-14 0 -16.5 3t-2.5 18v79q0 14 3 17t17 3h41v445h-41q-14 0 -17 3.5t-3 16.5v81q0 13 3 16.5t17 3.5h242q72 0 112.5 -9.5
t70.5 -35.5q61 -52 61 -151q0 -129 -107 -189l108 -181h42q12 0 15 -3t3 -15v-82zM377 483q0 46 -20.5 64.5t-71.5 18.5h-36v-173h29q56 0 77.5 20t21.5 70z" />
    <glyph glyph-name="S" unicode="S" horiz-adv-x="517" 
d="M480 200q0 -96 -63.5 -154.5t-167.5 -58.5q-59 0 -117 14t-89 39q-11 9 -11 23v143q0 10 3 13.5t14 3.5h97q10 0 13.5 -3.5t3.5 -13.5v-69q44 -17 85 -17q36 0 55.5 18.5t19.5 50.5q0 35 -21 52.5t-108 58.5q-69 33 -98 58q-64 53 -64 139q0 94 63 148t170 54
q49 0 102 -13.5t82 -36.5q12 -11 12 -22v-130q0 -10 -3.5 -13.5t-14.5 -3.5h-95q-11 0 -14.5 3.5t-3.5 13.5v63q-31 10 -60 10q-38 0 -58.5 -17t-20.5 -44q0 -23 16.5 -38t66.5 -39q88 -42 129 -78q39 -33 58 -68t19 -86z" />
    <glyph glyph-name="T" unicode="T" horiz-adv-x="514" 
d="M512 473q0 -11 -3 -14t-14 -3h-74q-11 0 -14.5 3.5t-3.5 13.5v76h-63v-429h63q14 0 17.5 -3t3.5 -17v-79q0 -14 -3 -17.5t-17 -3.5h-292q-14 0 -17 3.5t-3 17.5v79q0 14 3.5 17t17.5 3h63v429h-63v-76q0 -11 -3.5 -14t-13.5 -3h-74q-11 0 -14.5 3.5t-3.5 13.5v196
q0 10 4 13.5t15 3.5h473q10 0 13 -3t3 -14v-196z" />
    <glyph glyph-name="U" unicode="U" horiz-adv-x="677" 
d="M654 585q0 -13 -3.5 -16.5t-16.5 -3.5h-42v-329q0 -142 -91 -206q-67 -47 -176 -47q-163 0 -216 99q-30 56 -30 150v333h-41q-13 0 -17 3.5t-4 16.5v81q0 13 3.5 16.5t17.5 3.5h243q13 0 16.5 -3.5t3.5 -16.5v-81q0 -13 -3.5 -16.5t-16.5 -3.5h-38v-324q0 -73 20 -100.5
t71 -27.5q52 0 75.5 29.5t23.5 96.5v326h-36q-13 0 -17 3.5t-4 16.5v81q0 13 3.5 16.5t17.5 3.5h237q13 0 16.5 -3.5t3.5 -16.5v-81z" />
    <glyph glyph-name="V" unicode="V" horiz-adv-x="559" 
d="M577 584q0 -12 -3.5 -15.5t-15.5 -3.5h-32l-164 -562q-3 -10 -7 -13t-16 -3h-134q-12 0 -15.5 2.5t-6.5 13.5l-157 562h-31q-12 0 -15.5 3.5t-3.5 15.5v84q0 12 3.5 15t15.5 3h158q19 0 22 -15l76 -362q8 -37 24 -145q3 16 11.5 70.5t13.5 74.5l87 362q3 11 5.5 13
t11.5 2h154q12 0 15.5 -3t3.5 -15v-84z" />
    <glyph glyph-name="W" unicode="W" horiz-adv-x="799" 
d="M809 584q0 -12 -3 -15.5t-15 -3.5h-26l-128 -560q-2 -11 -6.5 -14t-16.5 -3h-113q-13 0 -16.5 2.5t-5.5 14.5l-64 314q-9 42 -18 161q-12 -110 -24 -163l-71 -312q-3 -12 -6 -14.5t-16 -2.5h-114q-13 0 -16.5 2.5t-5.5 14.5l-119 560h-23q-12 0 -16 3.5t-4 15.5v84
q0 12 4 15t16 3h140q11 0 14.5 -3t5.5 -13l56 -305q10 -57 18 -159q18 138 20 146l71 314q3 13 6.5 16t16.5 3h99q7 0 10.5 -0.5t6 -4.5t3 -5.5t2.5 -10.5l66 -296q9 -41 21 -167q13 125 21 167l54 301q1 10 5 13.5t15 3.5h138q12 0 15 -3t3 -15v-84z" />
    <glyph glyph-name="X" unicode="X" horiz-adv-x="566" 
d="M570 20q0 -12 -3.5 -16t-15.5 -4h-140q-10 0 -12.5 2t-7.5 11l-85 160q-11 21 -24 60q-11 -31 -26 -60l-87 -160q-5 -9 -8 -11t-13 -2h-143q-12 0 -15 4t-3 16v82q0 11 3 14.5t15 3.5h42l145 243l-125 202h-45q-12 0 -16 3.5t-4 15.5v84q0 12 4 15t16 3h142
q11 0 14.5 -2.5t8.5 -11.5l67 -128q10 -18 27 -66q14 46 23 65l63 129q5 11 7.5 12.5t14.5 1.5h144q12 0 15 -3t3 -15v-84q0 -12 -3 -15.5t-15 -3.5h-46l-119 -204l140 -241h43q12 0 15.5 -3.5t3.5 -14.5v-82z" />
    <glyph glyph-name="Y" unicode="Y" horiz-adv-x="522" 
d="M531 584q0 -12 -3.5 -15.5t-15.5 -3.5h-22l-149 -284v-161h60q14 0 17.5 -3t3.5 -17v-79q0 -14 -3 -17.5t-17 -3.5h-284q-14 0 -16.5 3t-2.5 18v79q0 14 3 17t17 3h60v162l-150 283h-22q-12 0 -15.5 3.5t-3.5 15.5v84q0 12 3.5 15t15.5 3h131h9t5.5 -2.5t3 -3.5t3.5 -8
l74 -164q9 -19 29 -84q19 64 31 88l77 161q5 9 8 11t14 2h120q12 0 15.5 -3t3.5 -15v-84z" />
    <glyph glyph-name="Z" unicode="Z" horiz-adv-x="525" 
d="M507 174l-35 -157q-3 -12 -7 -14.5t-16 -2.5h-402q-12 0 -15 4t-3 16v89l270 443h-137l-5 -62q-1 -11 -3.5 -14.5t-12.5 -3.5h-86q-10 0 -13.5 3.5t-3.5 14.5v179q0 10 3.5 13.5t14.5 3.5h401q14 0 17 -3.5t3 -16.5v-98l-262 -428h145l15 64q3 13 8.5 15t17.5 -2l92 -18
q13 -3 15 -8.5t-1 -16.5z" />
    <glyph glyph-name="bracketleft" unicode="[" horiz-adv-x="450" 
d="M385 -184q0 -14 -4 -17.5t-17 -3.5h-227q-14 0 -17.5 3.5t-3.5 17.5v878q0 14 3.5 17.5t17.5 3.5h227q13 0 17 -3.5t4 -17.5v-87q0 -13 -4 -17t-17 -4h-90v-662h90q13 0 17 -4t4 -17v-87z" />
    <glyph glyph-name="backslash" unicode="\" horiz-adv-x="520" 
d="M477 -61q6 -13 3.5 -18.5t-17.5 -5.5h-100q-21 0 -27 17l-304 815q-10 24 15 24h99q19 0 26 -17z" />
    <glyph glyph-name="bracketright" unicode="]" horiz-adv-x="450" 
d="M334 -184q0 -14 -3 -17.5t-17 -3.5h-228q-13 0 -16.5 3.5t-3.5 17.5v87q0 13 3.5 17t16.5 4h91v662h-91q-13 0 -16.5 4t-3.5 17v87q0 14 3 17.5t17 3.5h228q14 0 17 -3.5t3 -17.5v-878z" />
    <glyph glyph-name="asciicircum" unicode="^" 
d="M487 385q6 -11 4 -15t-14 -4h-115q-10 0 -14.5 3t-9.5 15l-88 183l-87 -183q-5 -12 -9.5 -15t-14.5 -3h-116q-12 0 -14 4t3 15l143 286q4 9 6 12t5.5 4.5t10.5 1.5h145q9 0 12.5 -3t9.5 -14z" />
    <glyph glyph-name="underscore" unicode="_" horiz-adv-x="551" 
d="M548 -153q0 -14 -3 -17.5t-17 -3.5h-504q-14 0 -17.5 3.5t-3.5 17.5v91q0 13 3.5 17t17.5 4h504q14 0 17 -4t3 -17v-91z" />
    <glyph glyph-name="grave" unicode="`" horiz-adv-x="454" 
d="M326 622l-25 -50q-5 -11 -9.5 -12.5t-15.5 3.5l-207 80q-12 5 -13.5 10t4.5 17l42 85q4 7 6 10t5.5 4t6.5 -0.5t10 -5.5l188 -113q9 -5 11.5 -8.5t2 -7.5t-5.5 -12z" />
    <glyph glyph-name="a" unicode="a" horiz-adv-x="517" 
d="M493 13q0 -8 -3 -10.5t-11 -2.5h-137q-14 0 -19 10q-2 4 -5 14t-4 14q-56 -52 -124 -52q-75 0 -118 42t-43 113q0 100 85 141q66 31 169 31h9v30q0 29 -13 41t-51 12q-39 0 -117 -30q-16 -5 -20 7l-27 80q-2 7 -2 10.5t2.5 6t9.5 6.5q67 35 175 35q91 0 138 -40
q48 -40 48 -125v-175q0 -27 6 -56h38q14 0 14 -13v-89zM292 121v98h-10q-115 0 -115 -71q0 -27 16 -44.5t40 -17.5q36 0 69 35z" />
    <glyph glyph-name="b" unicode="b" horiz-adv-x="558" 
d="M524 264q0 -136 -58 -206q-62 -75 -163 -75q-52 0 -99 40q-9 -22 -15.5 -29t-15.5 -7q-3 0 -7 1q-3 1 -7 1l-98 16q-16 3 -9 20q20 48 20 108v467h-44q-8 0 -11 2.5t-3 10.5v91q0 13 14 13h184q14 0 14 -13v-229q55 36 110 36q91 0 139.5 -64.5t48.5 -182.5zM375 257
q0 147 -74 147q-35 0 -75 -28v-267q26 -16 57 -16q43 0 67.5 42t24.5 122z" />
    <glyph glyph-name="c" unicode="c" horiz-adv-x="446" 
d="M414 46q4 -9 3.5 -13.5t-8.5 -10.5q-23 -19 -66.5 -29t-83.5 -10q-112 0 -171.5 67t-59.5 188q0 126 65.5 199.5t180.5 73.5q90 0 131 -35q9 -7 9 -20v-131q0 -8 -2.5 -10.5t-10.5 -2.5h-97q-8 0 -10.5 2.5t-2.5 10.5v68q-16 2 -17 2q-47 0 -69 -35.5t-22 -115.5
q0 -77 22.5 -110t70.5 -33q35 0 86 22q19 8 24 -4z" />
    <glyph glyph-name="d" unicode="d" horiz-adv-x="555" 
d="M535 13q0 -8 -3 -10.5t-11 -2.5h-148q-10 0 -14 4.5t-10 23.5l-2 6q-64 -51 -135 -51q-79 0 -124 51q-60 69 -60 198q0 82 12.5 131.5t45.5 87.5q53 60 148 60q47 0 88 -22v111h-48q-8 0 -11 2.5t-3 10.5v91q0 13 14 13h189q8 0 10.5 -2.5t2.5 -10.5v-534q0 -28 5 -53h40
q14 0 14 -13v-91zM322 122v267q-31 14 -69 14q-43 0 -60.5 -33t-17.5 -122q0 -85 16.5 -119.5t52.5 -34.5q49 0 78 28z" />
    <glyph glyph-name="e" unicode="e" horiz-adv-x="504" 
d="M471 231q0 -12 -4.5 -16t-17.5 -4h-273q3 -57 26.5 -84t69.5 -27q60 0 123 34q17 8 24 -6l35 -72q4 -9 2 -13t-12 -11q-76 -49 -180 -49q-116 0 -176 67.5t-60 192.5q0 120 62.5 194t168.5 74q212 0 212 -280zM320 312q-2 55 -17.5 76.5t-49.5 21.5q-35 0 -51.5 -21.5
t-24.5 -76.5h143z" />
    <glyph glyph-name="f" unicode="f" horiz-adv-x="393" 
d="M411 675l-22 -83q-4 -16 -22 -8q-42 18 -68 18q-27 0 -36.5 -14.5t-9.5 -52.5v-41h115q12 0 15 -3.5t0 -16.5l-17 -80q-2 -12 -17 -12h-96v-265h65q14 0 14 -13v-91q0 -8 -3 -10.5t-11 -2.5h-276q-8 0 -10.5 2.5t-2.5 10.5v91q0 8 2.5 10.5t10.5 2.5h59v265h-65
q-11 0 -13.5 3t-2.5 16v78q0 9 3 12t14 3h64v40q0 113 67 160q43 30 109 30q74 0 124 -28q9 -5 10.5 -8t-0.5 -13z" />
    <glyph glyph-name="g" unicode="g" horiz-adv-x="527" 
d="M490 458q-22 -60 -22 -117v-149q0 -81 3 -155q1 -23 1 -59q0 -91 -53.5 -139t-153.5 -48q-50 0 -108.5 13.5t-97.5 35.5q-14 8 -10 22l26 86q4 13 25 4q86 -39 155 -39q37 0 51 14t14 54q0 17 -3 56q-51 -31 -105 -31q-87 0 -134 62.5t-47 174.5q0 123 52 195.5t147 72.5
q64 0 113 -42q5 11 19 34q10 16 34 8l90 -26q13 -4 6 -22q-1 -3 -2 -5zM315 141v231q-31 22 -62 22q-35 0 -55 -36t-20 -107q0 -139 66 -139q42 0 71 29z" />
    <glyph glyph-name="h" unicode="h" horiz-adv-x="585" 
d="M559 13q0 -8 -2.5 -10.5t-10.5 -2.5h-179q-10 0 -12.5 2.5t-2.5 12.5v316q0 35 -11 50.5t-35 15.5q-38 0 -75 -33v-351q0 -8 -2.5 -10.5t-10.5 -2.5h-181q-8 0 -10.5 2.5t-2.5 10.5v91q0 8 2.5 10.5t10.5 2.5h41v483h-44q-8 0 -11 2.5t-3 10.5v91q0 13 14 13h183
q14 0 14 -14v-242q54 51 128 51q96 0 128 -66q18 -37 18 -93v-236h41q8 0 10.5 -2.5t2.5 -10.5v-91z" />
    <glyph glyph-name="i" unicode="i" horiz-adv-x="334" 
d="M265 650q0 -39 -27.5 -67t-67.5 -28t-67.5 28t-27.5 67t28 67t68 28q39 0 66.5 -28t27.5 -67zM321 13q0 -13 -15 -13h-267q-8 0 -10.5 2.5t-2.5 10.5v91q0 8 2.5 10.5t10.5 2.5h58v259h-55q-10 0 -13 3t-3 13v86q0 11 2.5 13.5t13.5 2.5h193q11 0 13.5 -2.5t2.5 -13.5
v-361h55q15 0 15 -13v-91z" />
    <glyph glyph-name="j" unicode="j" horiz-adv-x="316" 
d="M265 650q0 -39 -27.5 -67t-67.5 -28t-67.5 28t-27.5 67t28 67t68 28q39 0 66.5 -28t27.5 -67zM252 5q0 -74 -8 -116t-36 -73q-47 -52 -143 -52q-58 0 -115 24q-14 6 -10 22l28 91q2 9 16 4q36 -16 66 -16q26 0 36.5 22t10.5 95v370h-65q-10 0 -13 3t-3 13v86
q0 11 2.5 13.5t13.5 2.5h203q11 0 14 -2.5t3 -13.5v-473z" />
    <glyph glyph-name="k" unicode="k" horiz-adv-x="562" 
d="M545 13q0 -8 -2.5 -10.5t-10.5 -2.5h-127q-10 0 -17 8l-155 201v-196q0 -8 -2.5 -10.5t-10.5 -2.5h-183q-8 0 -10.5 2.5t-2.5 10.5v91q0 8 2.5 10.5t10.5 2.5h41v483h-44q-8 0 -11 2.5t-3 10.5v91q0 13 14 13h185q14 0 14 -14v-369l153 157q12 12 24 12h108q14 0 14 -13
v-91q0 -8 -3 -10.5t-11 -2.5h-46l-120 -108l136 -161h44q8 0 10.5 -2.5t2.5 -10.5v-91z" />
    <glyph glyph-name="l" unicode="l" horiz-adv-x="332" 
d="M324 28q3 -13 -8 -19q-43 -26 -106 -26q-83 0 -116 58q-15 25 -19 52t-4 80v427h-45q-8 0 -10.5 2.5t-2.5 10.5v91q0 8 2.5 10.5t10.5 2.5h187q8 0 10.5 -2.5t2.5 -10.5v-547q0 -23 4.5 -32t16.5 -9q18 0 40 8q11 4 14 -5z" />
    <glyph glyph-name="m" unicode="m" horiz-adv-x="840" 
d="M814 13q0 -8 -3 -10.5t-13 -2.5h-174q-11 0 -13.5 3t-2.5 16v321q0 60 -36 60q-31 0 -72 -35v-349q0 -11 -2.5 -13.5t-12.5 -2.5h-117q-12 0 -14 3t-2 16l-1 316q0 37 -7 50.5t-28 13.5q-31 0 -72 -34v-349q0 -11 -3 -13.5t-13 -2.5h-178q-8 0 -10.5 2.5t-2.5 10.5v91
q0 8 2.5 10.5t10.5 2.5h41v207q0 29 -6 56h-42q-8 0 -10.5 2.5t-2.5 10.5v88q0 14 13 14h159q10 0 14 -8t12 -38q70 62 139 62q75 0 115 -65q71 65 148 65q70 0 101 -43q29 -41 29 -128v-223h40q14 0 14 -13v-91z" />
    <glyph glyph-name="n" unicode="n" horiz-adv-x="600" 
d="M573 13q0 -8 -3 -10.5t-11 -2.5h-179q-11 0 -13 2.5t-2 13.5v316q0 66 -45 66q-36 0 -75 -34v-351q0 -8 -2.5 -10.5t-12.5 -2.5h-180q-8 0 -10.5 2.5t-2.5 10.5v91q0 8 2.5 10.5t10.5 2.5h41v206q0 29 -6 57h-42q-8 0 -10.5 2.5t-2.5 10.5v88q0 8 2.5 11t10.5 3h155
q12 0 28 -35q3 -5 4 -8q67 59 144 59q75 0 110 -40t35 -123v-231h40q14 0 14 -13v-91z" />
    <glyph glyph-name="o" unicode="o" horiz-adv-x="521" 
d="M492 246q0 -120 -61.5 -191.5t-168.5 -71.5q-111 0 -171.5 70.5t-60.5 194.5q0 121 62 192t171 71q108 0 168.5 -71t60.5 -194zM335 247q0 83 -17.5 118t-56.5 35t-57 -35t-18 -119q0 -83 18 -117.5t57 -34.5t56.5 35t17.5 118z" />
    <glyph glyph-name="p" unicode="p" horiz-adv-x="553" 
d="M521 252q0 -135 -48 -202t-150 -67q-48 0 -91 22v-90h43q8 0 11 -3t3 -11v-89q0 -15 -14 -15h-238q-13 0 -13 15v89q0 8 2.5 11t10.5 3h41v413q0 20 -6 49h-42q-8 0 -11 3t-3 11v90q0 8 3 11t11 3h155q9 0 13 -5t11 -25q59 46 124 46q93 0 140.5 -68t47.5 -191zM371 248
q0 149 -70 149q-34 0 -69 -30v-266q29 -15 60 -15q43 0 61 35t18 127z" />
    <glyph glyph-name="q" unicode="q" horiz-adv-x="534" 
d="M528 -188q0 -15 -14 -15h-238q-14 0 -14 15v89q0 8 3 11t11 3h43v99q-44 -31 -100 -31q-93 0 -142 65.5t-49 186.5q0 128 51.5 202t147.5 74q64 0 115 -43q23 44 42 44q1 0 3.5 -0.5t5.5 -1.5t5 -1l94 -22q15 -4 7 -19q-25 -59 -25 -127v-426h40q14 0 14 -16v-87z
M319 117v249q-33 25 -68 25q-72 0 -72 -155q0 -150 69 -150q41 0 71 31z" />
    <glyph glyph-name="r" unicode="r" horiz-adv-x="412" 
d="M409 484q6 -7 -1 -22l-34 -89q-5 -13 -15 -8q-30 14 -47 14q-27 0 -65 -39v-223h46q14 0 14 -13v-91q0 -8 -3 -10.5t-11 -2.5h-243q-8 0 -10.5 2.5t-2.5 10.5v91q0 8 2.5 10.5t10.5 2.5h41v204q0 31 -5 56h-43q-8 0 -10.5 3t-2.5 11v90q0 8 2.5 11t10.5 3h141
q14 0 21 -10t17 -44l9 11q48 59 109 59q47 0 69 -27z" />
    <glyph glyph-name="s" unicode="s" horiz-adv-x="443" 
d="M409 139q0 -72 -50.5 -114t-132.5 -42q-99 0 -181 46q-11 6 -11 21v97q0 8 2.5 10.5t10.5 2.5h90q8 0 10.5 -2.5t2.5 -12.5v-38q36 -11 64 -11q55 0 55 41q0 14 -10 23.5t-23 15.5t-49 19q-82 31 -110 60q-36 38 -36 100q0 69 53.5 112.5t136.5 43.5q98 0 145 -40
q9 -7 9 -19v-90q0 -14 -14 -14h-89q-8 0 -11 3t-3 11v38q-17 4 -30 4q-60 0 -60 -42q0 -19 13.5 -28.5t55.5 -25.5q98 -37 128 -69q34 -37 34 -100z" />
    <glyph glyph-name="t" unicode="t" horiz-adv-x="379" 
d="M379 38q4 -11 1.5 -16.5t-14.5 -10.5q-63 -28 -132 -28q-108 0 -138 80q-13 35 -13 84v235h-67q-12 0 -14.5 2t-2.5 15v77q0 13 2.5 15.5t15.5 2.5h66v128q0 10 3 13t13 4l120 12q12 1 14.5 -0.5t2.5 -12.5v-144h118q12 0 14 -3.5t0 -12.5l-15 -82q-2 -14 -19 -14h-98
v-229q0 -41 32 -41q23 0 72 20q15 7 19 -9z" />
    <glyph glyph-name="u" unicode="u" horiz-adv-x="584" 
d="M556 13q0 -8 -2.5 -10.5t-10.5 -2.5h-148q-12 0 -16 5.5t-12 31.5q-58 -54 -132 -54q-80 0 -121 43q-26 27 -32.5 57.5t-6.5 91.5v202h-41q-8 0 -11 3t-3 11v89q0 8 3 11t11 3h176q12 0 15.5 -2.5t3.5 -13.5v-306q0 -43 10.5 -60t37.5 -17q38 0 71 32v351q0 10 2 13t11 3
h121q13 0 16 -2.5t3 -13.5v-305q0 -35 6 -58h36q8 0 10.5 -2.5t2.5 -10.5v-89z" />
    <glyph glyph-name="v" unicode="v" horiz-adv-x="486" 
d="M493 391q0 -8 -3 -11t-11 -3h-31l-133 -383q-3 -9 -6 -11.5t-13 -2.5h-115q-9 0 -12.5 2.5t-6.5 11.5l-133 383h-29q-8 0 -10.5 3t-2.5 11v89q0 8 2.5 11t10.5 3h146q10 0 13 -2t5 -12l56 -215q12 -46 24 -126q13 81 25 126l60 215q3 9 6.5 11.5t13.5 2.5h130q8 0 11 -3
t3 -11v-89z" />
    <glyph glyph-name="w" unicode="w" horiz-adv-x="707" 
d="M703 391q0 -8 -2.5 -11t-10.5 -3h-31l-110 -371q-3 -9 -6 -11t-13 -2h-112q-11 0 -14.5 2.5t-4.5 11.5l-37 233q-2 12 -11 103q-7 -59 -16 -104l-48 -232q-2 -10 -5 -12t-13 -2h-112q-10 0 -13 2t-5 12l-97 370h-27q-8 0 -11 3t-3 11v89q0 14 14 14h135q11 0 14 -2t5 -12
l39 -205q7 -36 16 -128q11 101 15 121l43 211q2 10 5 12.5t13 2.5h109q10 0 13.5 -3t5.5 -13l39 -205q7 -34 15 -126q8 88 18 132l43 201q2 10 5 12t14 2h128q13 0 13 -14v-89z" />
    <glyph glyph-name="x" unicode="x" horiz-adv-x="504" 
d="M487 13q0 -8 -2.5 -10.5t-10.5 -2.5h-113q-15 0 -22 10l-61 89q-3 5 -29 51q-3 -5 -13 -24t-16 -27l-63 -88q-9 -11 -22 -11h-112q-8 0 -11 2.5t-3 10.5v90q0 8 3 10.5t11 2.5h37l99 133l-92 128h-39q-9 0 -11.5 3t-2.5 13v87q0 14 14 14h119q15 0 22 -11l52 -82
q10 -16 26 -49q15 25 31 49l58 83q7 10 23 10h111q13 0 13 -14v-89q0 -8 -2.5 -11t-10.5 -3h-33l-97 -128l96 -133h38q8 0 10.5 -2.5t2.5 -10.5v-90z" />
    <glyph glyph-name="y" unicode="y" horiz-adv-x="496" 
d="M504 391q0 -8 -3 -11t-11 -3h-30l-71 -249l-15 -56l-22 -81q-18 -65 -33.5 -102.5t-42.5 -64.5q-47 -45 -124 -45q-32 0 -77.5 12.5t-67.5 31.5q-10 8 -3 23l39 79q6 11 18 4q54 -27 80 -27q28 0 42 12t24 44l12 42h-37q-10 0 -13.5 2t-6.5 11l-130 364h-28q-8 0 -10.5 3
t-2.5 11v89q0 8 2.5 11t10.5 3h141q10 0 13 -2.5t5 -12.5l66 -250q8 -31 25 -135q17 101 22 127l57 259q3 14 19 14h138q14 0 14 -14v-89z" />
    <glyph glyph-name="z" unicode="z" horiz-adv-x="468" 
d="M456 123l-46 -111q-5 -12 -18 -12h-348q-11 0 -14 3t-3 14v80l203 255q6 8 27 22q-10 -2 -40 -2h-154q-11 0 -13.5 3t-2.5 13v90q0 10 3 13t13 3h347q11 0 14 -3.5t3 -14.5v-82l-200 -248q-5 -6 -29 -24q36 3 44 3h97l24 44q4 9 16 4l70 -29q13 -6 7 -21z" />
    <glyph glyph-name="braceleft" unicode="{" horiz-adv-x="520" 
d="M428 -177q0 -9 -1.5 -13t-5 -5t-14.5 -2q-33 -3 -64 -3q-91 0 -131 37.5t-40 121.5v155q0 60 -36 71q-8 3 -10.5 4t-6 3.5t-4 6.5t-0.5 10v88q0 11 4 15t17 8q36 11 36 61v157q0 83 40 119.5t131 36.5q40 0 64 -2q14 -1 17.5 -4t3.5 -16v-91q0 -14 -3 -16.5t-18 -3.5
l-31 -1q-31 -1 -40.5 -12t-9.5 -46v-131q0 -47 -13.5 -73.5t-49.5 -49.5q63 -41 63 -125v-129q0 -39 11.5 -49.5t55.5 -10.5h21q14 0 14 -20v-91z" />
    <glyph glyph-name="bar" unicode="|" horiz-adv-x="385" 
d="M269 -247q0 -14 -3 -17t-17 -3h-112q-14 0 -17.5 3t-3.5 17v988q0 13 3.5 16.5t17.5 3.5h112q14 0 17 -3.5t3 -16.5v-988z" />
    <glyph glyph-name="braceright" unicode="}" horiz-adv-x="520" 
d="M427 208q0 -12 -3.5 -15t-17.5 -8q-36 -11 -36 -71v-155q0 -84 -40.5 -121.5t-131.5 -37.5q-30 0 -63 3q-11 1 -14.5 2t-5 5t-1.5 13v91q0 8 0.5 11.5t3.5 6t9 2.5h22q44 0 55.5 10.5t11.5 49.5v129q0 84 63 125q-36 23 -49.5 49.5t-13.5 73.5v131q0 35 -9.5 46.5
t-40.5 11.5h-31q-14 0 -17.5 3.5t-3.5 17.5v91q0 13 3.5 16t17.5 4q24 2 63 2q91 0 131.5 -36.5t40.5 -119.5v-157q0 -50 36 -61q13 -4 17 -8t4 -16v-88z" />
    <glyph glyph-name="asciitilde" unicode="~" 
d="M494 381q0 -2 -7 -16q-32 -61 -63.5 -90t-88.5 -29q-35 0 -99.5 27t-86.5 27q-20 0 -35 -15t-24 -30t-13 -15q-6 0 -38.5 21t-32.5 27q0 2 5 15q28 65 58 95.5t89 30.5q38 0 101.5 -26.5t88.5 -26.5q23 0 38.5 12.5t24 25t12.5 12.5q8 0 39.5 -19.5t31.5 -25.5z" />
    <glyph glyph-name="uni00A0" unicode="&#xa0;" horiz-adv-x="536" 
 />
    <glyph glyph-name="exclamdown" unicode="&#xa1;" horiz-adv-x="358" 
d="M279 364q0 -41 -29.5 -70.5t-70.5 -29.5t-70.5 29.5t-29.5 70.5t29.5 70.5t70.5 29.5t70.5 -29.5t29.5 -70.5zM270 -242q1 -13 -2 -17t-18 -4h-139q-15 0 -18.5 4t-2.5 17l24 398q1 13 4.5 16.5t16.5 3.5h91q13 0 16.5 -3.5t4.5 -16.5z" />
    <glyph glyph-name="cent" unicode="&#xa2;" horiz-adv-x="530" 
d="M471 529l-39 -72q-5 -11 -18 -3q-53 32 -97 32q-92 0 -92 -154q0 -144 92 -144q49 0 93 23q17 9 22 -4l30 -74q6 -13 -9 -26q-30 -27 -89 -35v-51q0 -14 -4 -17.5t-17 -3.5h-49q-14 0 -17 3.5t-3 17.5v48q-96 10 -148 77.5t-52 179.5q0 115 52.5 186.5t147.5 84.5v53
q0 14 3 17.5t17 3.5h49q13 0 17 -3.5t4 -17.5v-53q57 -7 98 -37q19 -13 9 -31z" />
    <glyph glyph-name="sterling" unicode="&#xa3;" horiz-adv-x="561" 
d="M546 110l-18 -93q-4 -17 -23 -17h-461q-13 0 -16.5 3.5t-3.5 17.5v91q0 14 3.5 17.5t16.5 3.5h72q8 32 8 71q0 27 -11 80h-79q-14 0 -17.5 3.5t-3.5 16.5v69q0 14 4 17.5t17 3.5h55q-10 39 -10 78q0 94 67 150t176 56q100 0 174 -46q20 -13 13 -29l-41 -81q-8 -15 -34 -2
q-65 30 -110 30q-44 0 -68.5 -23t-24.5 -63q0 -27 12 -68h137q13 0 17 -3.5t4 -17.5v-71q0 -13 -3.5 -16.5t-17.5 -3.5h-116q13 -39 13 -80q0 -36 -7 -71h258q15 0 17.5 -4.5t0.5 -18.5z" />
    <glyph glyph-name="currency" unicode="&#xa4;" horiz-adv-x="512" 
d="M480 175l-41 -42l-67 65q-62 -38 -117 -38q-54 0 -117 38l-67 -65l-41 42l66 64q-37 62 -37 115q0 54 37 115l-66 65l41 42l67 -65q61 37 117 37q55 0 117 -37l67 65l41 -42l-65 -65q38 -64 38 -115q0 -48 -38 -115zM392 355q0 57 -41.5 96t-95.5 39q-57 0 -96.5 -39.5
t-39.5 -95.5t40 -96t96 -40t96.5 40t40.5 96z" />
    <glyph glyph-name="yen" unicode="&#xa5;" horiz-adv-x="563" 
d="M539 584q0 -12 -3.5 -16t-15.5 -3l-23 1l-68 -142h88q14 0 17.5 -3.5t3.5 -17.5v-33q0 -14 -3.5 -17t-17.5 -3h-126l-26 -52h152q14 0 17.5 -3t3.5 -17v-32q0 -14 -3.5 -17.5t-17.5 -3.5h-157v-105h39q14 0 17 -3t3 -17v-79q0 -14 -3 -17.5t-17 -3.5h-229q-14 0 -17 3.5
t-3 17.5v79q0 14 3.5 17t17.5 3h41v105h-166q-14 0 -17 3.5t-3 17.5v32q0 14 3 17t17 3h160l-26 52h-134q-14 0 -17 3t-3 17v33q0 14 3 17.5t17 3.5h94l-70 142l-22 -1q-12 -1 -15.5 3t-3.5 16v84q0 12 3.5 15t15.5 3h126q12 0 14.5 -2t6.5 -12l64 -176q3 -9 31 -111
q22 90 27 102l70 186q4 10 6.5 11.5t14.5 1.5h112q12 0 15.5 -3t3.5 -15v-84z" />
    <glyph glyph-name="brokenbar" unicode="&#xa6;" horiz-adv-x="385" 
d="M269 357q0 -13 -8.5 -21.5t-21.5 -8.5h-93q-13 0 -21.5 8.5t-8.5 21.5v296q0 13 8.5 21.5t21.5 8.5h93q13 0 21.5 -8.5t8.5 -21.5v-296zM269 -141q0 -13 -8.5 -21.5t-21.5 -8.5h-93q-13 0 -21.5 8.5t-8.5 21.5v296q0 13 8.5 21.5t21.5 8.5h93q13 0 21.5 -8.5t8.5 -21.5
v-296z" />
    <glyph glyph-name="section" unicode="&#xa7;" horiz-adv-x="558" 
d="M498 323q0 -92 -93 -143q71 -45 71 -123q0 -70 -57.5 -121t-135.5 -51q-109 0 -198 54q-21 13 -13 31l35 85q6 13 19 5q95 -56 151 -56q49 0 49 38q0 20 -16 32.5t-66 35.5q-93 44 -121 66q-58 45 -58 112q0 101 99 147q-34 22 -50.5 46.5t-16.5 63.5q0 71 56.5 117
t140.5 46q89 0 164 -49q15 -10 7 -25l-36 -75q-7 -14 -21 -6q-78 44 -110 44q-53 0 -53 -36q0 -14 10 -23t36 -22l85 -43q65 -33 93 -67q29 -35 29 -83zM354 305q0 21 -16.5 34t-62.5 37q-38 -20 -52 -34t-14 -35t18 -34.5t68 -36.5q33 20 46 34t13 35z" />
    <glyph glyph-name="dieresis" unicode="&#xa8;" horiz-adv-x="507" 
d="M442 637q0 -35 -24.5 -60t-59.5 -25t-59.5 25t-24.5 60t24.5 60t59.5 25t59.5 -25t24.5 -60zM233 637q0 -35 -24.5 -60t-59.5 -25t-59.5 25t-24.5 60t24.5 60t59.5 25t59.5 -25t24.5 -60z" />
    <glyph glyph-name="copyright" unicode="&#xa9;" horiz-adv-x="788" 
d="M733 343q0 -148 -102 -253t-246 -105t-246 105t-102 253q0 150 102 254t248 104q143 0 244.5 -105t101.5 -253zM652 343q0 121 -78 205t-190 84q-109 0 -187 -85t-78 -204t78 -203.5t188 -84.5t188.5 84.5t78.5 203.5zM516 171q0 -10 -20 -22q-38 -24 -101 -24
q-174 0 -174 219q0 110 51 165q47 50 120 50q75 0 111 -33q9 -7 9 -14v-79q0 -10 -12 -10h-62q-7 0 -8.5 2t-1.5 8v41q-18 3 -33 3q-35 0 -52.5 -27.5t-17.5 -92.5q0 -83 18.5 -115.5t60.5 -32.5q21 0 30 3v42q0 10 11 10h60q11 0 11 -10v-83z" />
    <glyph glyph-name="ordfeminine" unicode="&#xaa;" horiz-adv-x="354" 
d="M319 419q0 -8 -8 -8h-81q-7 0 -11 7q-2 3 -5 15q-33 -29 -74 -29q-44 0 -68.5 23.5t-24.5 63.5q0 21 7.5 36t18.5 24t32.5 16.5t39.5 10.5t50 8l7 1v17q0 16 -8.5 23t-31.5 7q-19 0 -66 -17q-10 -4 -12 3l-16 44q-4 9 6 14q38 19 101 19q55 0 83 -22q27 -22 27 -70v-98
q0 -15 3 -32h23q8 0 8 -7v-49zM202 479v56h-8q-67 0 -67 -41q0 -15 9 -24.5t23 -9.5q24 0 43 19z" />
    <glyph glyph-name="guillemotleft" unicode="&#xab;" horiz-adv-x="629" 
d="M573 67q13 -21 -6 -29l-85 -36q-11 -5 -15.5 -5t-11.5 10l-166 229q-10 14 0 28l166 223q7 9 11.5 10t15.5 -5l83 -40q8 -4 10.5 -8t1.5 -8.5t-6 -12.5l-112 -179zM319 67q13 -21 -6 -29l-85 -36q-11 -5 -16 -5t-12 10l-164 229q-11 15 -1 28l165 223q7 9 12 10t16 -5
l83 -40q8 -4 10.5 -8t1.5 -8.5t-6 -12.5l-112 -179z" />
    <glyph glyph-name="logicalnot" unicode="&#xac;" 
d="M478 236q0 -14 -3.5 -17.5t-17.5 -3.5h-113q-14 0 -17.5 3.5t-3.5 17.5v131h-281q-14 0 -17 2.5t-3 16.5v95q0 13 3 17t17 4h415q14 0 17.5 -4t3.5 -17v-245z" />
    <glyph glyph-name="uni00AD" unicode="&#xad;" horiz-adv-x="391" 
d="M359 202q0 -14 -3.5 -17.5t-17.5 -3.5h-285q-14 0 -17 3.5t-3 17.5v103q0 13 3 17t17 4h285q14 0 17.5 -4t3.5 -17v-103z" />
    <glyph glyph-name="registered" unicode="&#xae;" horiz-adv-x="461" 
d="M442 560q0 -89 -61.5 -153t-149.5 -64t-149.5 64t-61.5 153q0 91 61.5 154.5t150.5 63.5q87 0 148.5 -64t61.5 -154zM389 560q0 72 -46.5 121.5t-112.5 49.5q-64 0 -110 -50t-46 -121t46 -120.5t111 -49.5t111.5 50t46.5 120zM339 448q0 -10 -11 -10h-44h-3q-5 0 -8 7
l-47 89h-4v-85q0 -7 -2 -9t-9 -2h-65q-10 0 -10 11v28q0 7 2 8.5t8 1.5h11v149h-11q-10 0 -10 11v29q0 10 10 10h86q48 0 68 -16q23 -20 23 -56q0 -46 -37 -68l35 -59h7q11 0 11 -9v-30zM260 611q0 15 -6 20t-23 5h-9v-52h6q18 0 25 6t7 21z" />
    <glyph glyph-name="macron" unicode="&#xaf;" horiz-adv-x="506" 
d="M391 602q0 -14 -3.5 -17.5t-17.5 -3.5h-234q-14 0 -17.5 3.5t-3.5 17.5v73q0 14 3.5 17t17.5 3h234q14 0 17.5 -3.5t3.5 -16.5v-73z" />
    <glyph glyph-name="degree" unicode="&#xb0;" horiz-adv-x="520" 
d="M417 528q0 -63 -46 -106t-111 -43t-110.5 43t-45.5 106t45.5 107t110.5 44t111 -44t46 -107zM326 527q0 27 -19.5 46t-46.5 19t-46 -18.5t-19 -45.5t19 -46t46 -19t46.5 18.5t19.5 45.5z" />
    <glyph glyph-name="plusminus" unicode="&#xb1;" 
d="M478 284q0 -14 -3.5 -17.5t-17.5 -3.5h-131v-130q0 -14 -3 -17.5t-17 -3.5h-112q-14 0 -17.5 3.5t-3.5 17.5v130h-131q-14 0 -17 3.5t-3 17.5v99q0 13 3 16.5t17 3.5h131v131q0 13 3.5 16.5t17.5 3.5h112q14 0 17 -3.5t3 -17.5v-130h131q14 0 17.5 -3.5t3.5 -16.5v-99z
M478 -54q0 -14 -3.5 -17t-17.5 -3h-415q-14 0 -17 3t-3 17v96q0 13 3 17t17 4h415q14 0 17.5 -4t3.5 -17v-96z" />
    <glyph glyph-name="twosuperior" unicode="&#xb2;" horiz-adv-x="377" 
d="M333 558q0 -57 -41 -97q-12 -12 -86 -63q-33 -23 -36 -40h142q12 0 15 -3.5t3 -14.5l-1 -53q0 -12 -3 -15.5t-14 -3.5h-248q-14 0 -14 20v4q0 62 26 103q22 35 103 89q30 21 41 36t11 35q0 37 -40 37q-21 0 -32.5 -11.5t-23.5 -35.5q-7 -15 -22 -10l-46 15q-1 0 -5 1.5
t-5.5 2.5t-4.5 2.5t-4 4t-1 5.5q0 14 12 36t27 36q42 40 112 40q63 0 99 -32t36 -88z" />
    <glyph glyph-name="threesuperior" unicode="&#xb3;" horiz-adv-x="376" 
d="M326 386q0 -57 -45 -93t-115 -36q-46 0 -90.5 15t-44.5 28q0 3 3 12l16 45q2 5 4.5 7.5t7 2t7 -1t8.5 -3.5t7 -3q41 -18 75 -18q59 0 59 49q0 23 -15.5 34.5t-52.5 11.5h-28q-11 0 -14.5 3t-3.5 14v47q0 11 3.5 14t14.5 3h29q31 0 44 10.5t13 32.5q0 16 -11 26t-29 10
q-5 0 -9.5 -0.5t-9.5 -3t-7.5 -3.5t-7.5 -5.5t-6 -5.5l-6 -6l-6 -6q-12 -12 -22 -4l-44 33q-6 4 -6 12q0 11 18 29q45 42 110 42q62 0 100.5 -31t38.5 -82q0 -50 -46 -82q61 -30 61 -97z" />
    <glyph glyph-name="acute" unicode="&#xb4;" horiz-adv-x="510" 
d="M395 670q6 -12 4.5 -17.5t-14.5 -10.5l-206 -79q-19 -8 -27 10l-24 49q-6 12 -4.5 16t13.5 12l188 113q9 5 12.5 6t7 -2t8.5 -12z" />
    <glyph glyph-name="mu" unicode="&#xb5;" horiz-adv-x="548" 
d="M505 28q9 -15 -4 -18l-106 -22q-5 -1 -12 -1q-18 0 -32 49q-31 -29 -58.5 -41t-67.5 -12l-13 2v-159q0 -10 -2 -13t-10 -4l-127 -19q-9 -1 -12 2.5t-3 14.5v665q0 11 2 14.5t12 4.5l121 18q13 2 16 -0.5t3 -14.5v-326q0 -40 10.5 -56.5t38.5 -16.5q38 0 73 32v346
q0 11 2 14.5t12 4.5l119 17q13 2 16 0t3 -15v-363q0 -65 19 -103z" />
    <glyph glyph-name="paragraph" unicode="&#xb6;" horiz-adv-x="702" 
d="M678 590q0 -13 -3.5 -16.5t-16.5 -3.5h-41v-736q0 -14 -3 -17t-17 -3h-79q-11 0 -16 1t-8 5.5t-3 13.5v736h-82v-736q0 -14 -3 -17t-17 -3h-89q-13 0 -16.5 3t-3.5 17v320q-24 -6 -48 -6q-108 0 -169 69t-61 194q0 188 117 247q34 17 68.5 22.5t102.5 5.5h368
q13 0 16.5 -3.5t3.5 -16.5v-76zM280 265v304q-73 0 -98.5 -33t-25.5 -109q0 -92 23 -129.5t69 -37.5q12 0 32 5z" />
    <glyph glyph-name="periodcentered" unicode="&#xb7;" 
d="M338 334q0 -36 -26 -61.5t-62 -25.5t-62 25.5t-26 61.5t25.5 62t61.5 26t62.5 -26t26.5 -62z" />
    <glyph glyph-name="cedilla" unicode="&#xb8;" horiz-adv-x="506" 
d="M359 -128q0 -48 -34.5 -75t-90.5 -27q-50 0 -83 26q-6 6 -4 13l15 51q1 2 4.5 2.5t4.5 -0.5q19 -7 33 -7q29 0 29 20q0 21 -37 21q-13 0 -17.5 3.5t-2.5 14.5l8 86h108l-3 -46q70 -10 70 -82z" />
    <glyph glyph-name="onesuperior" unicode="&#xb9;" horiz-adv-x="376" 
d="M316 286q0 -11 -3.5 -14.5t-15.5 -3.5h-197q-11 0 -15 3.5t-4 14.5v44q0 10 4 13.5t15 3.5h57v204l-50 -23q-1 0 -3.5 -1t-5.5 -2l-2 -1q-12 -3 -19 8l-18 29q-14 22 1 31l124 76h56q12 0 15.5 -3t3.5 -14v-304h38q12 0 15.5 -3t3.5 -14v-44z" />
    <glyph glyph-name="ordmasculine" unicode="&#xba;" horiz-adv-x="363" 
d="M317 549q0 -67 -36 -107t-99 -40q-65 0 -100 39t-35 109q0 67 36.5 107t99.5 40t98.5 -40t35.5 -108zM225 549q0 47 -10 66.5t-33 19.5t-33.5 -19t-10.5 -67q0 -46 10.5 -65.5t32.5 -19.5q23 0 33.5 19t10.5 66z" />
    <glyph glyph-name="guillemotright" unicode="&#xbb;" horiz-adv-x="629" 
d="M593 236l-165 -229q-7 -9 -12 -10t-16 5l-84 36q-8 3 -11 7.5t-1.5 9t6.5 12.5l115 177l-113 179q-7 11 -6.5 17t12.5 12l82 40q12 6 16.5 5.5t11.5 -10.5l165 -223q10 -14 0 -28zM340 264q10 -13 -1 -28l-164 -229q-7 -9 -12 -10t-16 5l-84 36q-13 6 -14 12t7 17
l115 177l-112 179q-5 8 -6 12.5t1.5 8.5t10.5 8l82 40q12 6 16.5 5.5t11.5 -10.5z" />
    <glyph glyph-name="onequarter" unicode="&#xbc;" horiz-adv-x="876" 
d="M831 88q0 -10 -3.5 -13t-15.5 -3h-31v-65q0 -11 -3.5 -14.5t-15.5 -3.5h-67q-11 0 -15 3.5t-4 14.5v65h-152q-12 0 -15.5 3t-3.5 13v72l134 241q5 10 33 5l52 -11q21 -4 6 -30l-125 -209h73l8 80q1 10 4.5 13t14.5 3h57q11 0 15 -3.5t4 -14.5v-80h31q12 0 15.5 -3.5
t3.5 -14.5v-48zM610 658q0 -4 -4 -12l-278 -668q-8 -18 -24 -18h-64q-13 0 -17 4t-2 14q0 2 5 14l279 670q6 14 23 14h64q13 0 16.5 -3.5t1.5 -14.5zM297 286q0 -11 -3.5 -14.5t-15.5 -3.5h-197q-11 0 -15 3.5t-4 14.5v44q0 10 4 13.5t15 3.5h58v204l-51 -23q-8 -4 -11.5 -5
t-9 0.5t-9.5 8.5l-17 29q-13 22 1 31l124 76h56q12 0 15.5 -3t3.5 -14v-304h37q12 0 15.5 -3t3.5 -14v-44z" />
    <glyph glyph-name="onehalf" unicode="&#xbd;" horiz-adv-x="876" 
d="M827 291q0 -57 -41 -97q-12 -12 -86 -63q-34 -23 -37 -41h143q11 0 14 -3.5t3 -14.5v-53q0 -12 -3 -15.5t-14 -3.5h-248q-3 0 -5 0.5t-3.5 1.5t-2.5 3t-2 3t-1 4v4v4.5v4.5q0 61 26 102q24 38 102 90q31 21 42 36t11 35q0 36 -40 36q-21 0 -33 -11.5t-24 -34.5
q-7 -14 -21 -10l-47 14q-20 5 -20 17q0 14 12 35.5t27 35.5q43 41 113 41q63 0 99 -32t36 -88zM612 658q0 -4 -4 -12l-278 -668q-8 -18 -24 -18h-64q-13 0 -17 4t-2 14q0 1 2.5 6.5t2.5 7.5l279 670q6 14 23 14h64q13 0 16.5 -4t1.5 -14zM305 286q0 -11 -3.5 -14.5
t-15.5 -3.5h-198q-11 0 -15 3.5t-4 14.5v44q0 10 4 13.5t15 3.5h58v204l-51 -23q-1 0 -3.5 -1t-5.5 -2l-2 -1q-12 -3 -19 8l-17 29q-13 22 1 31l124 76h56q12 0 15.5 -3t3.5 -14v-304h38q12 0 15.5 -3t3.5 -14v-44z" />
    <glyph glyph-name="threequarters" unicode="&#xbe;" horiz-adv-x="876" 
d="M834 88q0 -10 -3.5 -13t-15.5 -3h-31v-65q0 -11 -3.5 -14.5t-15.5 -3.5h-67q-11 0 -15 3.5t-4 14.5v65h-152q-12 0 -15.5 3t-3.5 13v72l134 241q5 10 33 5l52 -11q21 -4 6 -30l-125 -209h73l8 80q1 10 4.5 13t14.5 3h57q11 0 15 -3.5t4 -14.5v-80h31q12 0 15.5 -3.5
t3.5 -14.5v-48zM617 658q0 -1 -1 -3.5t-2.5 -5.5t-1.5 -4l-277 -667q-7 -18 -24 -18h-64q-13 0 -17 4t-2 14q0 6 4 14l280 670q6 14 23 14h63q13 0 17 -4t2 -14zM319 386q0 -57 -45 -93t-115 -36q-46 0 -90.5 15t-44.5 28q0 3 3 12l16 45q2 5 4.5 7.5t7 2t7 -1t8.5 -3.5
t7 -3q41 -18 75 -18q59 0 59 49q0 23 -15.5 34.5t-52.5 11.5h-28q-11 0 -14.5 3t-3.5 14v47q0 11 3.5 14t14.5 3h29q31 0 44 10.5t13 32.5q0 16 -11 26t-29 10q-5 0 -9.5 -0.5t-9.5 -3t-7.5 -3.5t-7.5 -5.5t-6 -5.5t-7 -6l-5 -6q-12 -12 -22 -4l-44 33q-6 5 -6 12
q0 11 18 29q45 42 110 42q62 0 100.5 -31t38.5 -82q0 -50 -46 -82q61 -30 61 -97z" />
    <glyph glyph-name="questiondown" unicode="&#xbf;" horiz-adv-x="515" 
d="M380 374q0 -41 -29 -70t-70 -29t-70.5 29t-29.5 70t29.5 70.5t70.5 29.5t70 -29.5t29 -70.5zM461 -189q4 -11 0 -17t-16 -13q-35 -20 -91 -32t-93 -12q-96 0 -155 53.5t-59 140.5q0 103 98 156q32 17 67 28l1 52q0 14 3.5 17.5t16.5 3.5h102q14 0 17.5 -3.5t3.5 -17.5
v-121q0 -11 -4 -14.5t-19 -7.5q-72 -19 -102.5 -38.5t-30.5 -56.5q0 -58 82 -58q10 0 21.5 1.5t18 3t20.5 6t17.5 6t21 8.5t19.5 8q1 0 6.5 3t7 3h5t5.5 -2.5t4 -7.5z" />
    <glyph glyph-name="Agrave" unicode="&#xc0;" horiz-adv-x="597" 
d="M376 799l-25 -50q-5 -11 -9.5 -12.5t-15.5 3.5l-207 80q-12 5 -13.5 10t4.5 17l42 85q4 7 6 10t5.5 4t6.5 -0.5t10 -5.5l188 -113q9 -5 11.5 -8.5t2 -7.5t-5.5 -12zM601 17q0 -10 -4 -13.5t-14 -3.5h-157q-10 0 -13 2.5t-6 14.5l-41 155h-152l-45 -163q-3 -9 -12 -9h-150
q-11 0 -14 3t-3 14v87q0 10 3.5 13t13.5 3h30l173 549q4 12 7 14.5t15 2.5h127q12 0 15.5 -2.5t7.5 -14.5l169 -549h32q18 0 18 -16v-87zM340 285l-32 144q0 2 -20 126q-9 -69 -22 -126l-34 -144h108z" />
    <glyph glyph-name="Aacute" unicode="&#xc1;" horiz-adv-x="597" 
d="M495 847q6 -12 4.5 -17.5t-14.5 -10.5l-206 -79q-19 -8 -27 10l-24 49q-6 12 -4.5 16t13.5 12l188 113q9 5 12.5 6t7 -2t8.5 -12zM601 17q0 -10 -4 -13.5t-14 -3.5h-157q-10 0 -13 2.5t-6 14.5l-41 155h-152l-45 -163q-3 -9 -12 -9h-150q-11 0 -14 3t-3 14v87
q0 10 3.5 13t13.5 3h30l173 549q4 12 7 14.5t15 2.5h127q12 0 15.5 -2.5t7.5 -14.5l169 -549h32q18 0 18 -16v-87zM340 285l-32 144q0 2 -20 126q-9 -69 -22 -126l-34 -144h108z" />
    <glyph glyph-name="Acircumflex" unicode="&#xc2;" horiz-adv-x="597" 
d="M445 796l-38 -46q-9 -11 -13 -12t-15 5l-86 53l-86 -54q-11 -6 -15 -5t-13 12l-37 46q-13 15 4 28l132 106q11 8 15.5 8t15.5 -8l131 -105q11 -9 12 -13.5t-7 -14.5zM601 17q0 -10 -4 -13.5t-14 -3.5h-157q-10 0 -13 2.5t-6 14.5l-41 155h-152l-45 -163q-3 -9 -12 -9
h-150q-11 0 -14 3t-3 14v87q0 10 3.5 13t13.5 3h30l173 549q4 12 7 14.5t15 2.5h127q12 0 15.5 -2.5t7.5 -14.5l169 -549h32q18 0 18 -16v-87zM340 285l-32 144q0 2 -20 126q-9 -69 -22 -126l-34 -144h108z" />
    <glyph glyph-name="Atilde" unicode="&#xc3;" horiz-adv-x="597" 
d="M471 841q-21 -45 -42 -68q-33 -36 -77 -36q-27 0 -67 24q-21 12 -28 12q-21 0 -36 -28q-3 -5 -5.5 -6.5t-4.5 -1t-8 2.5l-66 29q-9 4 -6 13q4 18 26 52q37 60 93 60q35 0 71 -21q24 -13 32 -13t13.5 4t8.5 8t9 14q7 11 19 6l65 -29q12 -6 5 -19q-1 -2 -2 -3zM601 17
q0 -10 -4 -13.5t-14 -3.5h-157q-10 0 -13 2.5t-6 14.5l-41 155h-152l-45 -163q-3 -9 -12 -9h-150q-11 0 -14 3t-3 14v87q0 10 3.5 13t13.5 3h30l173 549q4 12 7 14.5t15 2.5h127q12 0 15.5 -2.5t7.5 -14.5l169 -549h32q18 0 18 -16v-87zM340 285l-32 144q0 2 -20 126
q-9 -69 -22 -126l-34 -144h108z" />
    <glyph glyph-name="Adieresis" unicode="&#xc4;" horiz-adv-x="597" 
d="M489 822q0 -35 -24.5 -60t-59.5 -25t-59.5 25t-24.5 60t24.5 60t59.5 25t59.5 -25t24.5 -60zM280 822q0 -35 -24.5 -60t-59.5 -25t-59.5 25t-24.5 60t24.5 60t59.5 25t59.5 -25t24.5 -60zM601 17q0 -10 -4 -13.5t-14 -3.5h-157q-10 0 -13 2.5t-6 14.5l-41 155h-152
l-45 -163q-3 -9 -12 -9h-150q-11 0 -14 3t-3 14v87q0 10 3.5 13t13.5 3h30l173 549q4 12 7 14.5t15 2.5h127q12 0 15.5 -2.5t7.5 -14.5l169 -549h32q18 0 18 -16v-87zM340 285l-32 144q0 2 -20 126q-9 -69 -22 -126l-34 -144h108z" />
    <glyph glyph-name="Aring" unicode="&#xc5;" horiz-adv-x="597" 
d="M412 855q0 -49 -35 -83.5t-85 -34.5t-85 34.5t-35 83.5q0 50 35 84t85 34t85 -34t35 -84zM601 17q0 -10 -4 -13.5t-14 -3.5h-157q-10 0 -13 2.5t-6 14.5l-41 155h-152l-45 -163q-3 -9 -12 -9h-150q-11 0 -14 3t-3 14v87q0 10 3.5 13t13.5 3h30l173 549q4 12 7 14.5
t15 2.5h127q12 0 15.5 -2.5t7.5 -14.5l169 -549h32q18 0 18 -16v-87zM329 855q0 16 -11 26.5t-26 10.5q-16 0 -26.5 -10.5t-10.5 -26.5t10.5 -26.5t26.5 -10.5q15 0 26 10.5t11 26.5zM340 285l-32 144q0 2 -20 126q-9 -69 -22 -126l-34 -144h108z" />
    <glyph glyph-name="AE" unicode="&#xc6;" horiz-adv-x="781" 
d="M741 20q0 -12 -4 -16t-16 -4h-354q-14 0 -17 3.5t-3 17.5v156h-148l-58 -157q-5 -12 -9 -16t-13 -4h-133q-10 0 -13.5 3t-3.5 14v87q0 10 3.5 13t13.5 3h27l237 551q5 10 8.5 12.5t13.5 2.5h449q10 0 13 -3.5t3 -13.5v-161q0 -10 -3 -13.5t-13 -3.5h-97q-10 0 -13 3.5
t-3 13.5v47h-102v-136h160q13 0 17 -3.5t4 -17.5v-86q0 -13 -4 -17t-17 -4h-160v-160h104v55q0 11 3 14.5t13 3.5h97q11 0 14.5 -4t3.5 -14v-166zM349 605q-32 -104 -42 -130l-69 -182h109v232q0 36 2 80z" />
    <glyph glyph-name="Ccedilla" unicode="&#xc7;" horiz-adv-x="543" 
d="M504 53q0 -15 -33 -34q-58 -34 -150 -36l-2 -29q70 -10 70 -82q0 -48 -34.5 -75t-90.5 -27q-50 0 -83 26q-6 6 -4 13l15 51q1 2 4.5 2.5t4.5 -0.5q19 -7 33 -7q29 0 29 20q0 21 -37 21q-13 0 -17 3.5t-3 14.5l8 81q-56 16 -94 57q-88 94 -88 292q0 185 78 274
q74 85 196 85t178 -55q12 -12 12 -23v-132q0 -10 -4 -13.5t-14 -3.5h-99q-10 0 -13 3.5t-3 13.5v70q-32 5 -51 5q-58 0 -86 -48t-28 -154q0 -135 29.5 -191.5t93.5 -56.5q29 0 50 4v73q0 10 4 13.5t14 3.5h98q10 0 13.5 -3.5t3.5 -13.5v-142z" />
    <glyph glyph-name="Egrave" unicode="&#xc8;" horiz-adv-x="528" 
d="M366 799l-25 -50q-5 -11 -9.5 -12.5t-15.5 3.5l-207 80q-12 5 -13.5 10t4.5 17l42 85q4 7 6 10t5.5 4t6.5 -0.5t10 -5.5l188 -113q9 -5 11.5 -8.5t2 -7.5t-5.5 -12zM487 20q0 -12 -3 -16t-15 -4h-422q-14 0 -17 3.5t-3 17.5v79q0 14 3 17t17 3h41v445h-41q-14 0 -17 3.5
t-3 16.5v81q0 13 3 16.5t17 3.5h421q10 0 13 -3.5t3 -13.5v-161q0 -10 -3 -13.5t-13 -3.5h-97q-10 0 -13 3.5t-3 13.5v47h-103v-136h161q13 0 17 -3.5t4 -17.5v-86q0 -13 -4 -17t-17 -4h-161v-160h106v55q0 11 3 14.5t13 3.5h96q10 0 13.5 -3.5t3.5 -14.5v-166z" />
    <glyph glyph-name="Eacute" unicode="&#xc9;" horiz-adv-x="528" 
d="M405 847q6 -12 4.5 -17.5t-14.5 -10.5l-206 -79q-19 -8 -27 10l-24 49q-6 12 -4.5 16t13.5 12l188 113q9 5 12.5 6t7 -2t8.5 -12zM487 20q0 -12 -3 -16t-15 -4h-422q-14 0 -17 3.5t-3 17.5v79q0 14 3 17t17 3h41v445h-41q-14 0 -17 3.5t-3 16.5v81q0 13 3 16.5t17 3.5
h421q10 0 13 -3.5t3 -13.5v-161q0 -10 -3 -13.5t-13 -3.5h-97q-10 0 -13 3.5t-3 13.5v47h-103v-136h161q13 0 17 -3.5t4 -17.5v-86q0 -13 -4 -17t-17 -4h-161v-160h106v55q0 11 3 14.5t13 3.5h96q10 0 13.5 -3.5t3.5 -14.5v-166z" />
    <glyph glyph-name="Ecircumflex" unicode="&#xca;" horiz-adv-x="528" 
d="M428 796l-38 -46q-9 -11 -13 -12t-15 5l-86 53l-86 -54q-11 -6 -15 -5t-13 12l-37 46q-13 15 4 28l132 106q10 8 15.5 8t15.5 -8l131 -105q11 -9 12 -13.5t-7 -14.5zM487 20q0 -12 -3 -16t-15 -4h-422q-14 0 -17 3.5t-3 17.5v79q0 14 3 17t17 3h41v445h-41q-14 0 -17 3.5
t-3 16.5v81q0 13 3 16.5t17 3.5h421q10 0 13 -3.5t3 -13.5v-161q0 -10 -3 -13.5t-13 -3.5h-97q-10 0 -13 3.5t-3 13.5v47h-103v-136h161q13 0 17 -3.5t4 -17.5v-86q0 -13 -4 -17t-17 -4h-161v-160h106v55q0 11 3 14.5t13 3.5h96q10 0 13.5 -3.5t3.5 -14.5v-166z" />
    <glyph glyph-name="Edieresis" unicode="&#xcb;" horiz-adv-x="528" 
d="M462 822q0 -35 -24.5 -60t-59.5 -25t-59.5 25t-24.5 60t24.5 60t59.5 25t59.5 -25t24.5 -60zM253 822q0 -35 -24.5 -60t-59.5 -25t-59.5 25t-24.5 60t24.5 60t59.5 25t59.5 -25t24.5 -60zM487 20q0 -12 -3 -16t-15 -4h-422q-14 0 -17 3.5t-3 17.5v79q0 14 3 17t17 3h41
v445h-41q-14 0 -17 3.5t-3 16.5v81q0 13 3 16.5t17 3.5h421q10 0 13 -3.5t3 -13.5v-161q0 -10 -3 -13.5t-13 -3.5h-97q-10 0 -13 3.5t-3 13.5v47h-103v-136h161q13 0 17 -3.5t4 -17.5v-86q0 -13 -4 -17t-17 -4h-161v-160h106v55q0 11 3 14.5t13 3.5h96q10 0 13.5 -3.5
t3.5 -14.5v-166z" />
    <glyph glyph-name="Igrave" unicode="&#xcc;" horiz-adv-x="357" 
d="M296 799l-25 -50q-5 -11 -9.5 -12.5t-15.5 3.5l-207 80q-12 5 -13.5 10t4.5 17l42 85q4 7 6 10t5.5 4t6.5 -0.5t10 -5.5l188 -113q9 -5 11.5 -8.5t2 -7.5t-5.5 -12zM323 21q0 -14 -3.5 -17.5t-17.5 -3.5h-255q-14 0 -17 3.5t-3 17.5v79q0 14 3 17t17 3h44v445h-44
q-14 0 -17 3t-3 17v81q0 13 3 16.5t17 3.5h255q14 0 17.5 -3.5t3.5 -16.5v-81q0 -14 -3.5 -17t-17.5 -3h-46v-445h46q14 0 17.5 -3t3.5 -17v-79z" />
    <glyph glyph-name="Iacute" unicode="&#xcd;" horiz-adv-x="357" 
d="M345 847q6 -12 4.5 -17.5t-14.5 -10.5l-206 -79q-19 -8 -27 10l-24 49q-6 12 -4.5 16t13.5 12l188 113q9 5 12.5 6t7 -2t8.5 -12zM323 21q0 -14 -3.5 -17.5t-17.5 -3.5h-255q-14 0 -17 3.5t-3 17.5v79q0 14 3 17t17 3h44v445h-44q-14 0 -17 3t-3 17v81q0 13 3 16.5
t17 3.5h255q14 0 17.5 -3.5t3.5 -16.5v-81q0 -14 -3.5 -17t-17.5 -3h-46v-445h46q14 0 17.5 -3t3.5 -17v-79z" />
    <glyph glyph-name="Icircumflex" unicode="&#xce;" horiz-adv-x="357" 
d="M328 796l-38 -46q-9 -11 -13 -12t-15 5l-86 53l-86 -54q-11 -6 -15 -5t-13 12l-37 46q-13 15 4 28l132 106q11 8 16 8t15 -8l131 -105q11 -9 12 -13.5t-7 -14.5zM323 21q0 -14 -3.5 -17.5t-17.5 -3.5h-255q-14 0 -17 3.5t-3 17.5v79q0 14 3 17t17 3h44v445h-44
q-14 0 -17 3t-3 17v81q0 13 3 16.5t17 3.5h255q14 0 17.5 -3.5t3.5 -16.5v-81q0 -14 -3.5 -17t-17.5 -3h-46v-445h46q14 0 17.5 -3t3.5 -17v-79z" />
    <glyph glyph-name="Idieresis" unicode="&#xcf;" horiz-adv-x="357" 
d="M363 822q0 -35 -24.5 -60t-59.5 -25t-59.5 25t-24.5 60t24.5 60t59.5 25t59.5 -25t24.5 -60zM154 822q0 -35 -24.5 -60t-59.5 -25t-59.5 25t-24.5 60t24.5 60t59.5 25t59.5 -25t24.5 -60zM323 21q0 -14 -3.5 -17.5t-17.5 -3.5h-255q-14 0 -17 3.5t-3 17.5v79q0 14 3 17
t17 3h44v445h-44q-14 0 -17 3t-3 17v81q0 13 3 16.5t17 3.5h255q14 0 17.5 -3.5t3.5 -16.5v-81q0 -14 -3.5 -17t-17.5 -3h-46v-445h46q14 0 17.5 -3t3.5 -17v-79z" />
    <glyph glyph-name="Eth" unicode="&#xd0;" horiz-adv-x="623" 
d="M585 348q0 -257 -146 -323q-56 -25 -146 -25h-246q-14 0 -17 3.5t-3 17.5v79q0 14 3 17t17 3h41v174h-41q-14 0 -17.5 3t-3.5 17v84q0 13 3.5 16.5t17.5 3.5h41v147h-41q-14 0 -17 3t-3 17v79q0 14 3 17.5t17 3.5h225q139 0 215 -55q98 -72 98 -282zM419 340
q0 116 -26.5 165.5t-107.5 49.5h-33v-137h76q14 0 17.5 -3t3.5 -17v-84q0 -14 -3.5 -17t-17.5 -3h-76v-162h34q78 0 105.5 45.5t27.5 162.5z" />
    <glyph glyph-name="Ntilde" unicode="&#xd1;" horiz-adv-x="662" 
d="M491 841q-21 -45 -42 -68q-33 -36 -77 -36q-27 0 -67 24q-21 12 -28 12q-21 0 -36 -28q-3 -5 -5.5 -6.5t-4.5 -1t-8 2.5l-66 29q-9 4 -6 13q4 18 26 52q37 60 93 60q35 0 71 -21q24 -13 32 -13t13.5 4t8.5 8t9 14q7 11 19 6l65 -29q12 -6 5 -19q-1 -2 -2 -3zM644 585
q0 -13 -3.5 -16.5t-17.5 -3.5h-41v-544q0 -14 -3 -17.5t-17 -3.5h-91q-12 0 -16 2.5t-10 13.5l-171 311q-26 48 -53 120q9 -85 9 -117v-210h41q14 0 17 -3t3 -17v-79q0 -15 -2.5 -18t-16.5 -3h-228q-14 0 -16.5 3t-2.5 18v79q0 14 3 17t17 3h41v445h-41q-14 0 -17 3.5
t-3 16.5v81q0 13 3 16.5t17 3.5h168q12 0 15.5 -2t9.5 -13l155 -280q26 -47 54 -126q-8 92 -8 124v176h-41q-14 0 -17.5 3.5t-3.5 16.5v81q0 13 3.5 16.5t17.5 3.5h225q14 0 17.5 -3.5t3.5 -16.5v-81z" />
    <glyph glyph-name="Ograve" unicode="&#xd2;" horiz-adv-x="590" 
d="M396 799l-25 -50q-5 -11 -9.5 -12.5t-15.5 3.5l-207 80q-12 5 -13.5 10t4.5 17l42 85q4 7 6 10t5.5 4t6.5 -0.5t10 -5.5l188 -113q9 -5 11.5 -8.5t2 -7.5t-5.5 -12zM557 353q0 -370 -265 -370q-259 0 -259 370q0 71 13 130.5t42 110.5t82.5 80t126.5 29q260 0 260 -350z
M389 344q0 234 -94 234q-93 0 -93 -238q0 -232 93 -232q94 0 94 236z" />
    <glyph glyph-name="Oacute" unicode="&#xd3;" horiz-adv-x="590" 
d="M475 847q6 -12 4.5 -17.5t-14.5 -10.5l-206 -79q-19 -8 -27 10l-24 49q-6 12 -4.5 16t13.5 12l188 113q9 5 12.5 6t7 -2t8.5 -12zM557 353q0 -370 -265 -370q-259 0 -259 370q0 71 13 130.5t42 110.5t82.5 80t126.5 29q260 0 260 -350zM389 344q0 234 -94 234
q-93 0 -93 -238q0 -232 93 -232q94 0 94 236z" />
    <glyph glyph-name="Ocircumflex" unicode="&#xd4;" horiz-adv-x="590" 
d="M447 796l-38 -46q-9 -11 -13 -12t-15 5l-86 53l-86 -54q-11 -6 -15 -5t-13 12l-37 46q-13 15 4 28l132 106q10 8 15.5 8t15.5 -8l131 -105q11 -9 12 -13.5t-7 -14.5zM557 353q0 -370 -265 -370q-259 0 -259 370q0 71 13 130.5t42 110.5t82.5 80t126.5 29q260 0 260 -350z
M389 344q0 234 -94 234q-93 0 -93 -238q0 -232 93 -232q94 0 94 236z" />
    <glyph glyph-name="Otilde" unicode="&#xd5;" horiz-adv-x="590" 
d="M469 841q-21 -45 -42 -68q-33 -36 -77 -36q-27 0 -67 24q-21 12 -28 12q-21 0 -36 -28q-3 -5 -5.5 -6.5t-4.5 -1t-8 2.5l-66 29q-9 4 -6 13q4 18 26 52q37 60 93 60q35 0 71 -21q24 -13 32 -13t13.5 4t8.5 8t9 14q7 11 19 6l65 -29q12 -6 5 -19q-1 -2 -2 -3zM557 353
q0 -370 -265 -370q-259 0 -259 370q0 71 13 130.5t42 110.5t82.5 80t126.5 29q260 0 260 -350zM389 344q0 234 -94 234q-93 0 -93 -238q0 -232 93 -232q94 0 94 236z" />
    <glyph glyph-name="Odieresis" unicode="&#xd6;" horiz-adv-x="590" 
d="M483 822q0 -35 -24.5 -60t-59.5 -25t-59.5 25t-24.5 60t24.5 60t59.5 25t59.5 -25t24.5 -60zM274 822q0 -35 -24.5 -60t-59.5 -25t-59.5 25t-24.5 60t24.5 60t59.5 25t59.5 -25t24.5 -60zM557 353q0 -370 -265 -370q-259 0 -259 370q0 71 13 130.5t42 110.5t82.5 80
t126.5 29q260 0 260 -350zM389 344q0 234 -94 234q-93 0 -93 -238q0 -232 93 -232q94 0 94 236z" />
    <glyph glyph-name="multiply" unicode="&#xd7;" 
d="M447 233q7 -7 6.5 -14t-3.5 -11t-12 -13l-58 -58q-15 -15 -33 4l-93 95l-86 -87q-26 -27 -50 -3l-57 56q-23 21 -7 37l99 98l-95 93q-19 18 -4 33l58 58l3 3q11 11 16.5 13t18.5 -7l97 -99l93 94q19 19 33 5l63 -63q16 -18 15 -27t-18 -26l-85 -84z" />
    <glyph glyph-name="Oslash" unicode="&#xd8;" horiz-adv-x="590" 
d="M557 347q0 -364 -265 -364q-73 0 -126 30l-36 -70q-7 -12 -11.5 -13.5t-16.5 4.5l-57 29q-11 6 -12.5 11.5t4.5 16.5l51 97q-55 94 -55 258q0 201 91 291q68 66 171 66q66 0 115 -24l29 53q7 12 12 14t16 -5l54 -31q11 -6 13 -10t-3 -15l-38 -73q64 -90 64 -265zM355 545
q-24 35 -61 35q-46 0 -73 -59.5t-27 -179.5q0 -45 8 -104zM395 343q0 69 -8 122l-157 -316q26 -44 66 -44q99 0 99 238z" />
    <glyph glyph-name="Ugrave" unicode="&#xd9;" horiz-adv-x="677" 
d="M446 799l-25 -50q-5 -11 -9.5 -12.5t-15.5 3.5l-207 80q-12 5 -13.5 10t4.5 17l42 85q4 7 6 10t5.5 4t6.5 -0.5t10 -5.5l188 -113q9 -5 11.5 -8.5t2 -7.5t-5.5 -12zM654 585q0 -13 -3.5 -16.5t-16.5 -3.5h-42v-329q0 -142 -91 -206q-67 -47 -176 -47q-163 0 -216 99
q-30 56 -30 150v333h-41q-13 0 -17 3.5t-4 16.5v81q0 13 3.5 16.5t17.5 3.5h243q13 0 16.5 -3.5t3.5 -16.5v-81q0 -13 -3.5 -16.5t-16.5 -3.5h-38v-324q0 -73 20 -100.5t71 -27.5q52 0 75.5 29.5t23.5 96.5v326h-36q-13 0 -17 3.5t-4 16.5v81q0 13 3.5 16.5t17.5 3.5h237
q13 0 16.5 -3.5t3.5 -16.5v-81z" />
    <glyph glyph-name="Uacute" unicode="&#xda;" horiz-adv-x="677" 
d="M495 847q6 -12 4.5 -17.5t-14.5 -10.5l-206 -79q-19 -8 -27 10l-24 49q-6 12 -4.5 16t13.5 12l188 113q9 5 12.5 6t7 -2t8.5 -12zM654 585q0 -13 -3.5 -16.5t-16.5 -3.5h-42v-329q0 -142 -91 -206q-67 -47 -176 -47q-163 0 -216 99q-30 56 -30 150v333h-41q-13 0 -17 3.5
t-4 16.5v81q0 13 3.5 16.5t17.5 3.5h243q13 0 16.5 -3.5t3.5 -16.5v-81q0 -13 -3.5 -16.5t-16.5 -3.5h-38v-324q0 -73 20 -100.5t71 -27.5q52 0 75.5 29.5t23.5 96.5v326h-36q-13 0 -17 3.5t-4 16.5v81q0 13 3.5 16.5t17.5 3.5h237q13 0 16.5 -3.5t3.5 -16.5v-81z" />
    <glyph glyph-name="Ucircumflex" unicode="&#xdb;" horiz-adv-x="677" 
d="M493 796l-38 -46q-9 -11 -13 -12t-15 5l-86 53l-86 -54q-11 -6 -15 -5t-13 12l-37 46q-13 15 4 28l132 106q10 8 15 8t16 -8l131 -105q11 -9 12 -13.5t-7 -14.5zM654 585q0 -13 -3.5 -16.5t-16.5 -3.5h-42v-329q0 -142 -91 -206q-67 -47 -176 -47q-163 0 -216 99
q-30 56 -30 150v333h-41q-13 0 -17 3.5t-4 16.5v81q0 13 3.5 16.5t17.5 3.5h243q13 0 16.5 -3.5t3.5 -16.5v-81q0 -13 -3.5 -16.5t-16.5 -3.5h-38v-324q0 -73 20 -100.5t71 -27.5q52 0 75.5 29.5t23.5 96.5v326h-36q-13 0 -17 3.5t-4 16.5v81q0 13 3.5 16.5t17.5 3.5h237
q13 0 16.5 -3.5t3.5 -16.5v-81z" />
    <glyph glyph-name="Udieresis" unicode="&#xdc;" horiz-adv-x="677" 
d="M530 822q0 -35 -24.5 -60t-59.5 -25t-59.5 25t-24.5 60t24.5 60t59.5 25t59.5 -25t24.5 -60zM321 822q0 -35 -24.5 -60t-59.5 -25t-59.5 25t-24.5 60t24.5 60t59.5 25t59.5 -25t24.5 -60zM654 585q0 -13 -3.5 -16.5t-16.5 -3.5h-42v-329q0 -142 -91 -206
q-67 -47 -176 -47q-163 0 -216 99q-30 56 -30 150v333h-41q-13 0 -17 3.5t-4 16.5v81q0 13 3.5 16.5t17.5 3.5h243q13 0 16.5 -3.5t3.5 -16.5v-81q0 -13 -3.5 -16.5t-16.5 -3.5h-38v-324q0 -73 20 -100.5t71 -27.5q52 0 75.5 29.5t23.5 96.5v326h-36q-13 0 -17 3.5t-4 16.5
v81q0 13 3.5 16.5t17.5 3.5h237q13 0 16.5 -3.5t3.5 -16.5v-81z" />
    <glyph glyph-name="Yacute" unicode="&#xdd;" horiz-adv-x="522" 
d="M475 847q6 -12 4.5 -17.5t-14.5 -10.5l-206 -79q-19 -8 -27 10l-24 49q-6 12 -4.5 16t13.5 12l188 113q9 5 12.5 6t7 -2t8.5 -12zM531 584q0 -12 -3.5 -15.5t-15.5 -3.5h-22l-149 -284v-161h60q14 0 17.5 -3t3.5 -17v-79q0 -14 -3 -17.5t-17 -3.5h-284q-14 0 -16.5 3
t-2.5 18v79q0 14 3 17t17 3h60v162l-150 283h-22q-12 0 -15.5 3.5t-3.5 15.5v84q0 12 3.5 15t15.5 3h131h9t5.5 -2.5t3 -3.5t3.5 -8l74 -164q9 -19 29 -84q19 64 31 88l77 161q5 9 8 11t14 2h120q12 0 15.5 -3t3.5 -15v-84z" />
    <glyph glyph-name="Thorn" unicode="&#xde;" horiz-adv-x="554" 
d="M533 372q0 -103 -65 -165t-173 -62h-43v-124q0 -15 -2.5 -18t-16.5 -3h-187q-14 0 -16.5 3t-2.5 18v79q0 14 3 17t17 3h41v445h-41q-14 0 -17 3.5t-3 16.5v81q0 13 3 16.5t17 3.5h184q14 0 17.5 -3t3.5 -17v-100h36q73 0 115.5 -10t71.5 -35q58 -50 58 -149zM380 363
q0 46 -21 64.5t-72 18.5h-35v-172h28q56 0 78 19.5t22 69.5z" />
    <glyph glyph-name="germandbls" unicode="&#xdf;" horiz-adv-x="613" 
d="M582 151q0 -83 -51 -125t-138 -42q-80 0 -126 24q-10 5 -6 22l22 80q4 13 20 6q54 -22 88 -22q48 0 48 49q0 25 -13 42t-58 53q-61 48 -80 75t-19 63q0 29 12 54t43 57q23 24 30 37t7 32q0 51 -71 51q-46 0 -63.5 -22.5t-17.5 -79.5v-488q0 -10 -3.5 -13.5t-14.5 -3.5
h-120q-11 0 -14.5 3t-3.5 14v359h-31q-11 0 -14 3t-3 13v85q0 11 3 14t14 3h31q0 70 17.5 112t60.5 73q62 45 163 45q95 0 152 -40.5t57 -105.5q0 -40 -14.5 -67t-50.5 -62q-31 -29 -31 -47q0 -15 6.5 -24t24.5 -23l54 -44q54 -44 72 -75t18 -85z" />
    <glyph glyph-name="agrave" unicode="&#xe0;" horiz-adv-x="517" 
d="M346 622l-25 -50q-5 -11 -9.5 -12.5t-15.5 3.5l-207 80q-12 5 -13.5 10t4.5 17l42 85q4 7 6 10t5.5 4t6.5 -0.5t10 -5.5l188 -113q9 -5 11.5 -8.5t2 -7.5t-5.5 -12zM493 13q0 -8 -3 -10.5t-11 -2.5h-137q-14 0 -19 10q-2 4 -5 14t-4 14q-56 -52 -124 -52q-75 0 -118 42
t-43 113q0 100 85 141q66 31 169 31h9v30q0 29 -13 41t-51 12q-39 0 -117 -30q-16 -5 -20 7l-27 80q-2 7 -2 10.5t2.5 6t9.5 6.5q67 35 175 35q91 0 138 -40q48 -40 48 -125v-175q0 -27 6 -56h38q14 0 14 -13v-89zM292 121v98h-10q-115 0 -115 -71q0 -27 16 -44.5t40 -17.5
q36 0 69 35z" />
    <glyph glyph-name="aacute" unicode="&#xe1;" horiz-adv-x="517" 
d="M425 670q6 -12 4.5 -17.5t-14.5 -10.5l-206 -79q-19 -8 -27 10l-24 49q-6 12 -4.5 16t13.5 12l188 113q9 5 12.5 6t7 -2t8.5 -12zM493 13q0 -8 -3 -10.5t-11 -2.5h-137q-14 0 -19 10q-2 4 -5 14t-4 14q-56 -52 -124 -52q-75 0 -118 42t-43 113q0 100 85 141q66 31 169 31
h9v30q0 29 -13 41t-51 12q-39 0 -117 -30q-16 -5 -20 7l-27 80q-2 7 -2 10.5t2.5 6t9.5 6.5q67 35 175 35q91 0 138 -40q48 -40 48 -125v-175q0 -27 6 -56h38q14 0 14 -13v-89zM292 121v98h-10q-115 0 -115 -71q0 -27 16 -44.5t40 -17.5q36 0 69 35z" />
    <glyph glyph-name="acircumflex" unicode="&#xe2;" horiz-adv-x="517" 
d="M395 614l-38 -46q-9 -11 -13 -12t-15 5l-86 53l-86 -54q-11 -6 -15 -5t-13 12l-37 46q-13 15 4 28l132 106q10 8 15 8t16 -8l131 -105q11 -9 12 -13.5t-7 -14.5zM493 13q0 -8 -3 -10.5t-11 -2.5h-137q-14 0 -19 10q-2 4 -5 14t-4 14q-56 -52 -124 -52q-75 0 -118 42
t-43 113q0 100 85 141q66 31 169 31h9v30q0 29 -13 41t-51 12q-39 0 -117 -30q-16 -5 -20 7l-27 80q-2 7 -2 10.5t2.5 6t9.5 6.5q67 35 175 35q91 0 138 -40q48 -40 48 -125v-175q0 -27 6 -56h38q14 0 14 -13v-89zM292 121v98h-10q-115 0 -115 -71q0 -27 16 -44.5t40 -17.5
q36 0 69 35z" />
    <glyph glyph-name="atilde" unicode="&#xe3;" horiz-adv-x="517" 
d="M421 670q-21 -45 -42 -68q-33 -36 -77 -36q-27 0 -67 24q-21 12 -28 12q-21 0 -36 -28q-3 -5 -5.5 -6.5t-4.5 -1t-8 2.5l-66 29q-9 4 -6 13q4 18 26 52q37 60 93 60q35 0 71 -21q24 -13 32 -13t13.5 4t8.5 8t9 14q7 11 19 6l65 -29q12 -6 5 -19q-1 -2 -2 -3zM493 13
q0 -8 -3 -10.5t-11 -2.5h-137q-14 0 -19 10q-2 4 -5 14t-4 14q-56 -52 -124 -52q-75 0 -118 42t-43 113q0 100 85 141q66 31 169 31h9v30q0 29 -13 41t-51 12q-39 0 -117 -30q-16 -5 -20 7l-27 80q-2 7 -2 10.5t2.5 6t9.5 6.5q67 35 175 35q91 0 138 -40q48 -40 48 -125
v-175q0 -27 6 -56h38q14 0 14 -13v-89zM292 121v98h-10q-115 0 -115 -71q0 -27 16 -44.5t40 -17.5q36 0 69 35z" />
    <glyph glyph-name="adieresis" unicode="&#xe4;" horiz-adv-x="517" 
d="M432 637q0 -35 -24.5 -60t-59.5 -25t-59.5 25t-24.5 60t24.5 60t59.5 25t59.5 -25t24.5 -60zM223 637q0 -35 -24.5 -60t-59.5 -25t-59.5 25t-24.5 60t24.5 60t59.5 25t59.5 -25t24.5 -60zM493 13q0 -8 -3 -10.5t-11 -2.5h-137q-14 0 -19 10q-2 4 -5 14t-4 14
q-56 -52 -124 -52q-75 0 -118 42t-43 113q0 100 85 141q66 31 169 31h9v30q0 29 -13 41t-51 12q-39 0 -117 -30q-16 -5 -20 7l-27 80q-2 7 -2 10.5t2.5 6t9.5 6.5q67 35 175 35q91 0 138 -40q48 -40 48 -125v-175q0 -27 6 -56h38q14 0 14 -13v-89zM292 121v98h-10
q-115 0 -115 -71q0 -27 16 -44.5t40 -17.5q36 0 69 35z" />
    <glyph glyph-name="aring" unicode="&#xe5;" horiz-adv-x="517" 
d="M371 669q0 -49 -35 -83.5t-85 -34.5t-85 34.5t-35 83.5q0 50 35 84t85 34t85 -34t35 -84zM493 13q0 -8 -3 -10.5t-11 -2.5h-137q-14 0 -19 10q-2 4 -5 14t-4 14q-56 -52 -124 -52q-75 0 -118 42t-43 113q0 100 85 141q66 31 169 31h9v30q0 29 -13 41t-51 12
q-39 0 -117 -30q-16 -5 -20 7l-27 80q-2 7 -2 10.5t2.5 6t9.5 6.5q67 35 175 35q91 0 138 -40q48 -40 48 -125v-175q0 -27 6 -56h38q14 0 14 -13v-89zM288 669q0 16 -11 26.5t-26 10.5q-16 0 -26.5 -10.5t-10.5 -26.5t10.5 -26.5t26.5 -10.5q15 0 26 10.5t11 26.5zM292 121
v98h-10q-115 0 -115 -71q0 -27 16 -44.5t40 -17.5q36 0 69 35z" />
    <glyph glyph-name="ae" unicode="&#xe6;" horiz-adv-x="745" 
d="M712 233q0 -13 -5 -17.5t-16 -4.5h-271q4 -59 26 -85t68 -26q55 0 123 35q15 7 22 -7l35 -72q4 -8 -2 -15q-17 -21 -67 -38q-58 -20 -117 -20q-104 0 -164 65q-67 -62 -156 -62q-75 0 -117.5 41t-42.5 113q0 145 179 168q33 4 81 5v35q0 24 -13 36t-46 12q-49 0 -118 -29
q-16 -6 -20 7l-27 80q-4 13 4 18q29 19 79 29t92 10q92 0 125 -58q53 58 140 58q208 0 208 -278zM561 312q-2 54 -17 76t-48 22q-21 0 -35 -8t-22 -24t-11.5 -30t-6.5 -36h140zM288 120v99q-67 0 -95 -17.5t-28 -54.5q0 -27 15.5 -44t38.5 -17q37 0 69 34z" />
    <glyph glyph-name="ccedilla" unicode="&#xe7;" horiz-adv-x="446" 
d="M414 46q4 -9 3.5 -13.5t-8.5 -10.5q-39 -32 -128 -38l-2 -30q70 -10 70 -82q0 -48 -34.5 -75t-90.5 -27q-50 0 -83 26q-6 6 -4 13l15 51q1 2 4.5 2.5t4.5 -0.5q19 -7 33 -7q29 0 29 20q0 21 -37 21q-13 0 -17 3.5t-3 14.5l8 81q-71 23 -108.5 85.5t-37.5 157.5
q0 126 65.5 199.5t180.5 73.5q90 0 131 -35q9 -7 9 -20v-131q0 -8 -2.5 -10.5t-10.5 -2.5h-97q-8 0 -10.5 2.5t-2.5 10.5v68q-16 2 -17 2q-47 0 -69 -35.5t-22 -115.5q0 -77 22.5 -110t70.5 -33q35 0 86 22q19 8 24 -4z" />
    <glyph glyph-name="egrave" unicode="&#xe8;" horiz-adv-x="504" 
d="M336 622l-25 -50q-5 -11 -9.5 -12.5t-15.5 3.5l-207 80q-12 5 -13.5 10t4.5 17l42 85q4 7 6 10t5.5 4t6.5 -0.5t10 -5.5l188 -113q9 -5 11.5 -8.5t2 -7.5t-5.5 -12zM471 231q0 -12 -4.5 -16t-17.5 -4h-273q3 -57 26.5 -84t69.5 -27q60 0 123 34q17 8 24 -6l35 -72
q4 -9 2 -13t-12 -11q-76 -49 -180 -49q-116 0 -176 67.5t-60 192.5q0 120 62.5 194t168.5 74q212 0 212 -280zM320 312q-2 55 -17.5 76.5t-49.5 21.5q-35 0 -51.5 -21.5t-24.5 -76.5h143z" />
    <glyph glyph-name="eacute" unicode="&#xe9;" horiz-adv-x="504" 
d="M425 670q6 -12 4.5 -17.5t-14.5 -10.5l-206 -79q-19 -8 -27 10l-24 49q-6 12 -4.5 16t13.5 12l188 113q9 5 12.5 6t7 -2t8.5 -12zM471 231q0 -12 -4.5 -16t-17.5 -4h-273q3 -57 26.5 -84t69.5 -27q60 0 123 34q17 8 24 -6l35 -72q4 -9 2 -13t-12 -11q-76 -49 -180 -49
q-116 0 -176 67.5t-60 192.5q0 120 62.5 194t168.5 74q212 0 212 -280zM320 312q-2 55 -17.5 76.5t-49.5 21.5q-35 0 -51.5 -21.5t-24.5 -76.5h143z" />
    <glyph glyph-name="ecircumflex" unicode="&#xea;" horiz-adv-x="504" 
d="M407 614l-38 -46q-9 -11 -13 -12t-15 5l-86 53l-86 -54q-11 -6 -15 -5t-13 12l-37 46q-13 15 4 28l132 106q10 8 15.5 8t15.5 -8l131 -105q11 -9 12 -13.5t-7 -14.5zM471 231q0 -12 -4.5 -16t-17.5 -4h-273q3 -57 26.5 -84t69.5 -27q60 0 123 34q17 8 24 -6l35 -72
q4 -9 2 -13t-12 -11q-76 -49 -180 -49q-116 0 -176 67.5t-60 192.5q0 120 62.5 194t168.5 74q212 0 212 -280zM320 312q-2 55 -17.5 76.5t-49.5 21.5q-35 0 -51.5 -21.5t-24.5 -76.5h143z" />
    <glyph glyph-name="edieresis" unicode="&#xeb;" horiz-adv-x="504" 
d="M445 637q0 -35 -24.5 -60t-59.5 -25t-59.5 25t-24.5 60t24.5 60t59.5 25t59.5 -25t24.5 -60zM236 637q0 -35 -24.5 -60t-59.5 -25t-59.5 25t-24.5 60t24.5 60t59.5 25t59.5 -25t24.5 -60zM471 231q0 -12 -4.5 -16t-17.5 -4h-273q3 -57 26.5 -84t69.5 -27q60 0 123 34
q17 8 24 -6l35 -72q4 -9 2 -13t-12 -11q-76 -49 -180 -49q-116 0 -176 67.5t-60 192.5q0 120 62.5 194t168.5 74q212 0 212 -280zM320 312q-2 55 -17.5 76.5t-49.5 21.5q-35 0 -51.5 -21.5t-24.5 -76.5h143z" />
    <glyph glyph-name="igrave" unicode="&#xec;" horiz-adv-x="334" 
d="M276 622l-25 -50q-5 -11 -9.5 -12.5t-15.5 3.5l-207 80q-12 5 -13.5 10t4.5 17l42 85q4 7 6 10t5.5 4t6.5 -0.5t10 -5.5l188 -113q9 -5 11.5 -8.5t2 -7.5t-5.5 -12zM321 13q0 -13 -15 -13h-267q-8 0 -10.5 2.5t-2.5 10.5v91q0 8 2.5 10.5t10.5 2.5h58v259h-55
q-10 0 -13 3t-3 13v86q0 11 2.5 13.5t13.5 2.5h193q11 0 13.5 -2.5t2.5 -13.5v-361h55q15 0 15 -13v-91z" />
    <glyph glyph-name="iacute" unicode="&#xed;" horiz-adv-x="334" 
d="M335 670q6 -12 4.5 -17.5t-14.5 -10.5l-206 -79q-19 -8 -27 10l-24 49q-6 12 -4.5 16t13.5 12l188 113q9 5 12.5 6t7 -2t8.5 -12zM321 13q0 -13 -15 -13h-267q-8 0 -10.5 2.5t-2.5 10.5v91q0 8 2.5 10.5t10.5 2.5h58v259h-55q-10 0 -13 3t-3 13v86q0 11 2.5 13.5
t13.5 2.5h193q11 0 13.5 -2.5t2.5 -13.5v-361h55q15 0 15 -13v-91z" />
    <glyph glyph-name="icircumflex" unicode="&#xee;" horiz-adv-x="334" 
d="M312 614l-38 -46q-9 -11 -13 -12t-15 5l-86 53l-86 -54q-11 -6 -15 -5t-13 12l-37 46q-13 15 4 28l132 106q11 8 16 8t15 -8l131 -105q11 -9 12 -13.5t-7 -14.5zM321 13q0 -13 -15 -13h-267q-8 0 -10.5 2.5t-2.5 10.5v91q0 8 2.5 10.5t10.5 2.5h58v259h-55q-10 0 -13 3
t-3 13v86q0 11 2.5 13.5t13.5 2.5h193q11 0 13.5 -2.5t2.5 -13.5v-361h55q15 0 15 -13v-91z" />
    <glyph glyph-name="idieresis" unicode="&#xef;" horiz-adv-x="334" 
d="M362 637q0 -35 -24.5 -60t-59.5 -25t-59.5 25t-24.5 60t24.5 60t59.5 25t59.5 -25t24.5 -60zM153 637q0 -35 -24.5 -60t-59.5 -25t-59.5 25t-24.5 60t24.5 60t59.5 25t59.5 -25t24.5 -60zM321 13q0 -13 -15 -13h-267q-8 0 -10.5 2.5t-2.5 10.5v91q0 8 2.5 10.5t10.5 2.5
h58v259h-55q-10 0 -13 3t-3 13v86q0 11 2.5 13.5t13.5 2.5h193q11 0 13.5 -2.5t2.5 -13.5v-361h55q15 0 15 -13v-91z" />
    <glyph glyph-name="eth" unicode="&#xf0;" horiz-adv-x="524" 
d="M495 248q0 -119 -63 -192t-170 -73q-110 0 -171 71.5t-61 194.5q0 113 61 186q25 29 63 49t77 24q32 3 62 -7q-21 46 -36 70l-72 -33q-11 -5 -19 7l-28 42q-11 16 -5 21l6 4l74 33q-18 28 -40 56q-20 26 2 29l77 10q18 4 24 1q13 -4 48 -48l80 36q11 5 19 -7l25 -38
q1 -1 3 -4l3 -4.5t2 -4t1 -3.5v-3.5t-1 -3.5t-3.5 -3t-5.5 -3l-76 -35q124 -209 124 -372zM337 250q0 83 -18 115t-58 32q-35 0 -51.5 -32t-16.5 -114q0 -78 16 -111q16 -34 54 -34q42 0 58 37q16 33 16 107z" />
    <glyph glyph-name="ntilde" unicode="&#xf1;" horiz-adv-x="600" 
d="M471 670q-21 -45 -42 -68q-33 -36 -77 -36q-27 0 -67 24q-21 12 -28 12q-21 0 -36 -28q-3 -5 -5.5 -6.5t-4.5 -1t-8 2.5l-66 29q-9 4 -6 13q4 18 26 52q37 60 93 60q35 0 71 -21q24 -13 32 -13t13.5 4t8.5 8t9 14q7 11 19 6l65 -29q12 -6 5 -19q-1 -2 -2 -3zM573 13
q0 -8 -3 -10.5t-11 -2.5h-179q-11 0 -13 2.5t-2 13.5v316q0 66 -45 66q-36 0 -75 -34v-351q0 -8 -2.5 -10.5t-12.5 -2.5h-180q-8 0 -10.5 2.5t-2.5 10.5v91q0 8 2.5 10.5t10.5 2.5h41v206q0 29 -6 57h-42q-8 0 -10.5 2.5t-2.5 10.5v88q0 8 2.5 11t10.5 3h155q12 0 28 -35
q3 -5 4 -8q67 59 144 59q75 0 110 -40t35 -123v-231h40q14 0 14 -13v-91z" />
    <glyph glyph-name="ograve" unicode="&#xf2;" horiz-adv-x="521" 
d="M346 622l-25 -50q-5 -11 -9.5 -12.5t-15.5 3.5l-207 80q-12 5 -13.5 10t4.5 17l42 85q4 7 6 10t5.5 4t6.5 -0.5t10 -5.5l188 -113q9 -5 11.5 -8.5t2 -7.5t-5.5 -12zM492 246q0 -120 -61.5 -191.5t-168.5 -71.5q-111 0 -171.5 70.5t-60.5 194.5q0 121 62 192t171 71
q108 0 168.5 -71t60.5 -194zM335 247q0 83 -17.5 118t-56.5 35t-57 -35t-18 -119q0 -83 18 -117.5t57 -34.5t56.5 35t17.5 118z" />
    <glyph glyph-name="oacute" unicode="&#xf3;" horiz-adv-x="521" 
d="M445 670q6 -12 4.5 -17.5t-14.5 -10.5l-206 -79q-19 -8 -27 10l-24 49q-6 12 -4.5 16t13.5 12l188 113q9 5 12.5 6t7 -2t8.5 -12zM492 246q0 -120 -61.5 -191.5t-168.5 -71.5q-111 0 -171.5 70.5t-60.5 194.5q0 121 62 192t171 71q108 0 168.5 -71t60.5 -194zM335 247
q0 83 -17.5 118t-56.5 35t-57 -35t-18 -119q0 -83 18 -117.5t57 -34.5t56.5 35t17.5 118z" />
    <glyph glyph-name="ocircumflex" unicode="&#xf4;" horiz-adv-x="521" 
d="M413 614l-38 -46q-9 -11 -13 -12t-15 5l-86 53l-86 -54q-11 -6 -15 -5t-13 12l-37 46q-13 15 4 28l132 106q10 8 15 8t16 -8l131 -105q11 -9 12 -13.5t-7 -14.5zM492 246q0 -120 -61.5 -191.5t-168.5 -71.5q-111 0 -171.5 70.5t-60.5 194.5q0 121 62 192t171 71
q108 0 168.5 -71t60.5 -194zM335 247q0 83 -17.5 118t-56.5 35t-57 -35t-18 -119q0 -83 18 -117.5t57 -34.5t56.5 35t17.5 118z" />
    <glyph glyph-name="otilde" unicode="&#xf5;" horiz-adv-x="521" 
d="M433 670q-21 -45 -42 -68q-33 -36 -77 -36q-27 0 -67 24q-21 12 -28 12q-21 0 -36 -28q-3 -5 -5.5 -6.5t-4.5 -1t-8 2.5l-66 29q-9 4 -6 13q4 18 26 52q37 60 93 60q35 0 71 -21q24 -13 32 -13t13.5 4t8.5 8t9 14q7 11 19 6l65 -29q12 -6 5 -19q-1 -2 -2 -3zM492 246
q0 -120 -61.5 -191.5t-168.5 -71.5q-111 0 -171.5 70.5t-60.5 194.5q0 121 62 192t171 71q108 0 168.5 -71t60.5 -194zM335 247q0 83 -17.5 118t-56.5 35t-57 -35t-18 -119q0 -83 18 -117.5t57 -34.5t56.5 35t17.5 118z" />
    <glyph glyph-name="odieresis" unicode="&#xf6;" horiz-adv-x="521" 
d="M451 637q0 -35 -24.5 -60t-59.5 -25t-59.5 25t-24.5 60t24.5 60t59.5 25t59.5 -25t24.5 -60zM242 637q0 -35 -24.5 -60t-59.5 -25t-59.5 25t-24.5 60t24.5 60t59.5 25t59.5 -25t24.5 -60zM492 246q0 -120 -61.5 -191.5t-168.5 -71.5q-111 0 -171.5 70.5t-60.5 194.5
q0 121 62 192t171 71q108 0 168.5 -71t60.5 -194zM335 247q0 83 -17.5 118t-56.5 35t-57 -35t-18 -119q0 -83 18 -117.5t57 -34.5t56.5 35t17.5 118z" />
    <glyph glyph-name="divide" unicode="&#xf7;" 
d="M338 533q0 -36 -26 -61.5t-62 -25.5t-62 25.5t-26 61.5t25.5 62t61.5 26t62.5 -26t26.5 -62zM478 283q0 -14 -3.5 -17t-17.5 -3h-415q-14 0 -17 3t-3 17v99q0 13 3 17t17 4h415q14 0 17.5 -4t3.5 -17v-99zM338 132q0 -36 -26 -61t-62 -25t-62 25t-26 61t25.5 62t61.5 26
t62 -26t26 -62h1z" />
    <glyph glyph-name="oslash" unicode="&#xf8;" horiz-adv-x="521" 
d="M491 246q0 -120 -61 -191.5t-168 -71.5q-55 0 -94 16l-21 -40q-5 -10 -9.5 -11t-14.5 4l-54 28q-11 6 -11.5 10t5.5 13l27 50q-60 69 -60 195q0 121 62 192t171 71q52 0 94 -17l23 43q5 10 9.5 11t14.5 -4l54 -29q11 -6 11.5 -9.5t-5.5 -12.5l-30 -56q57 -69 57 -191z
M335 247q0 83 -17.5 118t-56.5 35t-57 -35t-18 -119q0 -83 18 -117.5t57 -34.5t56.5 35t17.5 118z" />
    <glyph glyph-name="ugrave" unicode="&#xf9;" horiz-adv-x="584" 
d="M376 622l-25 -50q-5 -11 -9.5 -12.5t-15.5 3.5l-207 80q-12 5 -13.5 10t4.5 17l42 85q4 7 6 10t5.5 4t6.5 -0.5t10 -5.5l188 -113q9 -5 11.5 -8.5t2 -7.5t-5.5 -12zM556 13q0 -8 -2.5 -10.5t-10.5 -2.5h-148q-12 0 -16 5.5t-12 31.5q-58 -54 -132 -54q-80 0 -121 43
q-26 27 -32.5 57.5t-6.5 91.5v202h-41q-8 0 -11 3t-3 11v89q0 8 3 11t11 3h176q12 0 15.5 -2.5t3.5 -13.5v-306q0 -43 10.5 -60t37.5 -17q38 0 71 32v351q0 10 2 13t11 3h121q13 0 16 -2.5t3 -13.5v-305q0 -35 6 -58h36q8 0 10.5 -2.5t2.5 -10.5v-89z" />
    <glyph glyph-name="uacute" unicode="&#xfa;" horiz-adv-x="584" 
d="M465 670q6 -12 4.5 -17.5t-14.5 -10.5l-206 -79q-19 -8 -27 10l-24 49q-6 12 -4.5 16t13.5 12l188 113q9 5 12.5 6t7 -2t8.5 -12zM556 13q0 -8 -2.5 -10.5t-10.5 -2.5h-148q-12 0 -16 5.5t-12 31.5q-58 -54 -132 -54q-80 0 -121 43q-26 27 -32.5 57.5t-6.5 91.5v202h-41
q-8 0 -11 3t-3 11v89q0 8 3 11t11 3h176q12 0 15.5 -2.5t3.5 -13.5v-306q0 -43 10.5 -60t37.5 -17q38 0 71 32v351q0 10 2 13t11 3h121q13 0 16 -2.5t3 -13.5v-305q0 -35 6 -58h36q8 0 10.5 -2.5t2.5 -10.5v-89z" />
    <glyph glyph-name="ucircumflex" unicode="&#xfb;" horiz-adv-x="584" 
d="M445 614l-38 -46q-9 -11 -13 -12t-15 5l-86 53l-86 -54q-11 -6 -15 -5t-13 12l-37 46q-13 15 4 28l132 106q11 8 15.5 8t15.5 -8l131 -105q11 -9 12 -13.5t-7 -14.5zM556 13q0 -8 -2.5 -10.5t-10.5 -2.5h-148q-12 0 -16 5.5t-12 31.5q-58 -54 -132 -54q-80 0 -121 43
q-26 27 -32.5 57.5t-6.5 91.5v202h-41q-8 0 -11 3t-3 11v89q0 8 3 11t11 3h176q12 0 15.5 -2.5t3.5 -13.5v-306q0 -43 10.5 -60t37.5 -17q38 0 71 32v351q0 10 2 13t11 3h121q13 0 16 -2.5t3 -13.5v-305q0 -35 6 -58h36q8 0 10.5 -2.5t2.5 -10.5v-89z" />
    <glyph glyph-name="udieresis" unicode="&#xfc;" horiz-adv-x="584" 
d="M481 637q0 -35 -24.5 -60t-59.5 -25t-59.5 25t-24.5 60t24.5 60t59.5 25t59.5 -25t24.5 -60zM272 637q0 -35 -24.5 -60t-59.5 -25t-59.5 25t-24.5 60t24.5 60t59.5 25t59.5 -25t24.5 -60zM556 13q0 -8 -2.5 -10.5t-10.5 -2.5h-148q-12 0 -16 5.5t-12 31.5
q-58 -54 -132 -54q-80 0 -121 43q-26 27 -32.5 57.5t-6.5 91.5v202h-41q-8 0 -11 3t-3 11v89q0 8 3 11t11 3h176q12 0 15.5 -2.5t3.5 -13.5v-306q0 -43 10.5 -60t37.5 -17q38 0 71 32v351q0 10 2 13t11 3h121q13 0 16 -2.5t3 -13.5v-305q0 -35 6 -58h36q8 0 10.5 -2.5
t2.5 -10.5v-89z" />
    <glyph glyph-name="yacute" unicode="&#xfd;" horiz-adv-x="496" 
d="M445 670q6 -12 4.5 -17.5t-14.5 -10.5l-206 -79q-19 -8 -27 10l-24 49q-6 12 -4.5 16t13.5 12l188 113q9 5 12.5 6t7 -2t8.5 -12zM504 391q0 -8 -3 -11t-11 -3h-30l-71 -249l-15 -56l-22 -81q-18 -65 -33.5 -102.5t-42.5 -64.5q-47 -45 -124 -45q-32 0 -77.5 12.5
t-67.5 31.5q-10 8 -3 23l39 79q6 11 18 4q54 -27 80 -27q28 0 42 12t24 44l12 42h-37q-10 0 -13.5 2t-6.5 11l-130 364h-28q-8 0 -10.5 3t-2.5 11v89q0 8 2.5 11t10.5 3h141q10 0 13 -2.5t5 -12.5l66 -250q8 -31 25 -135q17 101 22 127l57 259q3 14 19 14h138q14 0 14 -14
v-89z" />
    <glyph glyph-name="thorn" unicode="&#xfe;" horiz-adv-x="553" 
d="M521 264q0 -156 -50 -216q-29 -36 -63.5 -50.5t-83.5 -14.5q-59 0 -92 23v-91h43q8 0 11 -3t3 -11v-89q0 -15 -14 -15h-238q-13 0 -13 15v89q0 8 2.5 11t10.5 3h41v685h-44q-8 0 -11 2.5t-3 10.5v91q0 13 14 13h184q14 0 14 -13v-223q46 30 100 30q92 0 140.5 -64.5
t48.5 -182.5zM371 248q0 149 -70 149q-34 0 -69 -30v-266q29 -15 60 -15q43 0 61 35t18 127z" />
    <glyph glyph-name="ydieresis" unicode="&#xff;" horiz-adv-x="496" 
d="M450 637q0 -35 -24.5 -60t-59.5 -25t-59.5 25t-24.5 60t24.5 60t59.5 25t59.5 -25t24.5 -60zM241 637q0 -35 -24.5 -60t-59.5 -25t-59.5 25t-24.5 60t24.5 60t59.5 25t59.5 -25t24.5 -60zM504 391q0 -8 -3 -11t-11 -3h-30l-71 -249l-15 -56l-22 -81q-18 -65 -33.5 -102.5
t-42.5 -64.5q-47 -45 -124 -45q-32 0 -77.5 12.5t-67.5 31.5q-10 8 -3 23l39 79q6 11 18 4q54 -27 80 -27q28 0 42 12t24 44l12 42h-37q-10 0 -13.5 2t-6.5 11l-130 364h-28q-8 0 -10.5 3t-2.5 11v89q0 8 2.5 11t10.5 3h141q10 0 13 -2.5t5 -12.5l66 -250q8 -31 25 -135
q17 101 22 127l57 259q3 14 19 14h138q14 0 14 -14v-89z" />
    <glyph glyph-name="dotlessi" unicode="&#x131;" horiz-adv-x="334" 
d="M321 13q0 -13 -15 -13h-267q-8 0 -10.5 2.5t-2.5 10.5v91q0 8 2.5 10.5t10.5 2.5h58v259h-55q-10 0 -13 3t-3 13v86q0 11 2.5 13.5t13.5 2.5h193q11 0 13.5 -2.5t2.5 -13.5v-361h55q15 0 15 -13v-91z" />
    <glyph glyph-name="Lslash" unicode="&#x141;" horiz-adv-x="540" 
d="M526 177l-35 -160q-2 -11 -6.5 -14t-16.5 -3h-421q-14 0 -17 3.5t-3 17.5v79q0 14 3 17t17 3h41v116l-51 -31q-17 -10 -17 14v83q0 9 3 12.5t12 9.5l53 32v209h-41q-14 0 -17 3.5t-3 16.5v81q0 13 3 16.5t17 3.5h250q13 0 17 -3.5t4 -16.5v-81q0 -13 -4 -16.5t-17 -3.5
h-45v-109l111 69q19 12 19 -12v-87q0 -13 -15 -23l-115 -69v-195h125l17 65q4 13 8.5 15t17.5 -1l90 -17q13 -2 16 -6.5t0 -17.5z" />
    <glyph glyph-name="lslash" unicode="&#x142;" horiz-adv-x="332" 
d="M324 28q3 -13 -8 -19q-43 -26 -106 -26q-83 0 -116 58q-15 25 -19 52t-4 80v83l-50 -31q-21 -13 -21 11v83q0 12 15 22l56 35v224h-45q-8 0 -10.5 2.5t-2.5 10.5v91q0 8 2.5 10.5t10.5 2.5h187q8 0 10.5 -2.5t2.5 -10.5v-231l67 43q20 13 20 -10v-84q0 -14 -14 -23
l-73 -46v-196q0 -23 4.5 -32t16.5 -9q18 0 40 8q11 4 14 -5z" />
    <glyph glyph-name="OE" unicode="&#x152;" horiz-adv-x="814" 
d="M773 20q0 -12 -3.5 -16t-15.5 -4h-343q-68 -17 -114 -17q-264 0 -264 360q0 109 20.5 178.5t68.5 116.5q65 65 176 65q53 0 107 -17h348q11 0 14 -3t3 -14v-161q0 -10 -3 -13.5t-13 -3.5h-97q-10 0 -13 3.5t-3 13.5v47h-101v-136h159q13 0 17 -3.5t4 -17.5v-86
q0 -13 -4 -17t-17 -4h-159v-160h104v55q0 11 3 14.5t13 3.5h97q10 0 13 -3.5t3 -14.5v-166zM378 129v428q-41 22 -76 22q-55 0 -75 -48q-26 -61 -26 -187q0 -124 25 -181q23 -55 81 -55q33 0 71 21z" />
    <glyph glyph-name="oe" unicode="&#x153;" horiz-adv-x="786" 
d="M753 238q0 -17 -4.5 -22t-15.5 -5h-273q3 -58 26.5 -84.5t69.5 -26.5q52 0 122 35q15 8 21 -5l36 -74q5 -9 3.5 -13.5t-11.5 -10.5q-78 -49 -177 -49q-105 0 -151 62q-47 -62 -137 -62q-110 0 -171 71.5t-61 194.5q0 120 62.5 191t171.5 71q86 0 140 -55q60 55 140 55
q209 0 209 -273zM603 312q-2 55 -17.5 76.5t-49.5 21.5q-35 0 -51 -21t-24 -77h142zM333 248q0 83 -17.5 117.5t-55.5 34.5q-39 0 -56.5 -34.5t-17.5 -119.5q0 -83 17.5 -117.5t55.5 -34.5t56 35.5t18 118.5z" />
    <glyph glyph-name="Scaron" unicode="&#x160;" horiz-adv-x="517" 
d="M415 877q8 -10 7 -14t-12 -13l-131 -105q-11 -8 -15.5 -7.5t-15.5 8.5l-132 105q-17 13 -4 28l37 46q9 11 13 12t15 -5l86 -54l86 54q11 6 15 5t13 -13zM480 200q0 -96 -63.5 -154.5t-167.5 -58.5q-59 0 -117 14t-89 39q-11 9 -11 23v143q0 10 3 13.5t14 3.5h97
q10 0 13.5 -3.5t3.5 -13.5v-69q44 -17 85 -17q36 0 55.5 18.5t19.5 50.5q0 35 -21 52.5t-108 58.5q-69 33 -98 58q-64 53 -64 139q0 94 63 148t170 54q49 0 102 -13.5t82 -36.5q12 -11 12 -22v-130q0 -10 -3.5 -13.5t-14.5 -3.5h-95q-11 0 -14.5 3.5t-3.5 13.5v63
q-31 10 -60 10q-38 0 -58.5 -17t-20.5 -44q0 -23 16.5 -38t66.5 -39q88 -42 129 -78q39 -33 58 -68t19 -86z" />
    <glyph glyph-name="scaron" unicode="&#x161;" horiz-adv-x="443" 
d="M372 696q8 -10 7 -14t-12 -13l-131 -105q-11 -8 -15.5 -7.5t-15.5 8.5l-132 105q-17 13 -4 28l37 46q9 11 13 12t15 -5l86 -54l86 54q11 6 15 5t13 -13zM409 139q0 -72 -50.5 -114t-132.5 -42q-99 0 -181 46q-11 6 -11 21v97q0 8 2.5 10.5t10.5 2.5h90q8 0 10.5 -2.5
t2.5 -12.5v-38q36 -11 64 -11q55 0 55 41q0 14 -10 23.5t-23 15.5t-49 19q-82 31 -110 60q-36 38 -36 100q0 69 53.5 112.5t136.5 43.5q98 0 145 -40q9 -7 9 -19v-90q0 -14 -14 -14h-89q-8 0 -11 3t-3 11v38q-17 4 -30 4q-60 0 -60 -42q0 -19 13.5 -28.5t55.5 -25.5
q98 -37 128 -69q34 -37 34 -100z" />
    <glyph glyph-name="Ydieresis" unicode="&#x178;" horiz-adv-x="522" 
d="M448 822q0 -35 -24.5 -60t-59.5 -25t-59.5 25t-24.5 60t24.5 60t59.5 25t59.5 -25t24.5 -60zM239 822q0 -35 -24.5 -60t-59.5 -25t-59.5 25t-24.5 60t24.5 60t59.5 25t59.5 -25t24.5 -60zM531 584q0 -12 -3.5 -15.5t-15.5 -3.5h-22l-149 -284v-161h60q14 0 17.5 -3
t3.5 -17v-79q0 -14 -3 -17.5t-17 -3.5h-284q-14 0 -16.5 3t-2.5 18v79q0 14 3 17t17 3h60v162l-150 283h-22q-12 0 -15.5 3.5t-3.5 15.5v84q0 12 3.5 15t15.5 3h131h9t5.5 -2.5t3 -3.5t3.5 -8l74 -164q9 -19 29 -84q19 64 31 88l77 161q5 9 8 11t14 2h120q12 0 15.5 -3
t3.5 -15v-84z" />
    <glyph glyph-name="Zcaron" unicode="&#x17d;" horiz-adv-x="525" 
d="M415 877q8 -10 7 -14t-12 -13l-131 -105q-11 -8 -15.5 -7.5t-15.5 8.5l-132 105q-17 13 -4 28l37 46q9 11 13 12t15 -5l86 -54l86 54q11 6 15 5t13 -13zM507 174l-35 -157q-3 -12 -7 -14.5t-16 -2.5h-402q-12 0 -15 4t-3 16v89l270 443h-137l-5 -62q-1 -11 -3.5 -14.5
t-12.5 -3.5h-86q-10 0 -13.5 3.5t-3.5 14.5v179q0 10 3.5 13.5t14.5 3.5h401q14 0 17 -3.5t3 -16.5v-98l-262 -428h145l15 64q3 13 8.5 15t17.5 -2l92 -18q13 -3 15 -8.5t-1 -16.5z" />
    <glyph glyph-name="zcaron" unicode="&#x17e;" horiz-adv-x="468" 
d="M392 696q8 -10 7 -14t-12 -13l-131 -105q-11 -8 -15.5 -7.5t-15.5 8.5l-132 105q-17 13 -4 28l37 46q9 11 13 12t15 -5l86 -54l86 54q11 6 15 5t13 -13zM456 123l-46 -111q-5 -12 -18 -12h-348q-11 0 -14 3t-3 14v80l203 255q6 8 27 22q-10 -2 -40 -2h-154q-11 0 -13.5 3
t-2.5 13v90q0 10 3 13t13 3h347q11 0 14 -3.5t3 -14.5v-82l-200 -248q-5 -6 -29 -24q36 3 44 3h97l24 44q4 9 16 4l70 -29q13 -6 7 -21z" />
    <glyph glyph-name="florin" unicode="&#x192;" horiz-adv-x="543" 
d="M558 675l-27 -86q-5 -14 -20 -8q-43 16 -57 16q-27 0 -37.5 -16.5t-18.5 -55.5l-6 -29h105q12 0 15 -4t0 -17l-16 -74q-4 -18 -22 -18h-105l-77 -385q-23 -110 -74 -156q-53 -47 -137 -47q-53 0 -87 18q-10 6 -11.5 10t1.5 14l23 81q3 13 20 9q22 -5 40 -5q34 0 50.5 18
t28.5 79l74 364h-62q-13 0 -16 3.5t-1 17.5l13 72q2 13 5.5 16.5t15.5 3.5h70l9 45q19 99 57 134q47 44 135 44q69 0 106 -24q10 -7 6 -20z" />
    <glyph glyph-name="circumflex" unicode="&#x2c6;" horiz-adv-x="506" 
d="M405 614l-38 -46q-9 -11 -13 -12t-15 5l-86 53l-86 -54q-11 -6 -15 -5t-13 12l-37 46q-13 15 4 28l132 106q10 8 15 8t16 -8l131 -105q11 -9 12 -13.5t-7 -14.5z" />
    <glyph glyph-name="caron" unicode="&#x2c7;" horiz-adv-x="506" 
d="M405 696q8 -10 7 -14t-12 -13l-131 -105q-11 -8 -15.5 -7.5t-15.5 8.5l-132 105q-17 13 -4 28l37 46q9 11 13 12t15 -5l86 -54l86 54q11 6 15 5t13 -13z" />
    <glyph glyph-name="uni02C9" unicode="&#x2c9;" horiz-adv-x="506" 
d="M391 602q0 -14 -3.5 -17.5t-17.5 -3.5h-234q-14 0 -17.5 3.5t-3.5 17.5v73q0 14 3.5 17t17.5 3h234q14 0 17.5 -3.5t3.5 -16.5v-73z" />
    <glyph glyph-name="breve" unicode="&#x2d8;" horiz-adv-x="506" 
d="M406 692q0 -55 -41.5 -99t-109.5 -44q-70 0 -113.5 43t-43.5 98q0 15 11 16l90 12q8 1 10.5 -3t3.5 -11v-2q8 -46 40 -46q18 0 26.5 10.5t12.5 33.5v4q1 4 1.5 5.5t1.5 4t3.5 3.5t6.5 0l91 -11q10 -1 10 -14z" />
    <glyph glyph-name="dotaccent" unicode="&#x2d9;" horiz-adv-x="506" 
d="M346 638q0 -38 -27.5 -65.5t-65.5 -27.5q-39 0 -66 27t-27 66t27 65.5t66 26.5t66 -26.5t27 -65.5z" />
    <glyph glyph-name="ring" unicode="&#x2da;" horiz-adv-x="506" 
d="M373 669q0 -49 -35 -83.5t-85 -34.5t-85 34.5t-35 83.5q0 50 35 84t85 34t85 -34t35 -84zM290 669q0 16 -11 26.5t-26 10.5q-16 0 -26.5 -10.5t-10.5 -26.5t10.5 -26.5t26.5 -10.5q15 0 26 10.5t11 26.5z" />
    <glyph glyph-name="ogonek" unicode="&#x2db;" horiz-adv-x="506" 
d="M360 -146q4 -12 0 -17t-19 -13q-41 -23 -83 -23q-53 0 -83.5 29.5t-30.5 69.5q0 66 67 115l130 14q-86 -72 -86 -98q0 -22 23 -22q14 0 40 13q14 7 17 -2z" />
    <glyph glyph-name="tilde" unicode="&#x2dc;" horiz-adv-x="506" 
d="M421 670q-21 -45 -42 -68q-33 -36 -77 -36q-27 0 -67 24q-21 12 -28 12q-21 0 -36 -28q-3 -5 -5.5 -6.5t-4.5 -1t-8 2.5l-66 29q-9 4 -6 13q4 18 26 52q37 60 93 60q35 0 71 -21q24 -13 32 -13t13.5 4t8.5 8t9 14q7 11 19 6l65 -29q12 -6 5 -19q-1 -2 -2 -3z" />
    <glyph glyph-name="hungarumlaut" unicode="&#x2dd;" horiz-adv-x="506" 
d="M482 672l-136 -125q-9 -8 -14.5 -8t-14.5 8l-33 30q-9 8 -9.5 13t7.5 15l113 144q8 11 13.5 11.5t15.5 -8.5l58 -52q10 -9 10 -13.5t-10 -14.5zM296 672l-137 -125q-9 -8 -14 -8t-14 8l-33 30q-9 8 -9.5 13t7.5 15l113 144q8 11 13.5 11.5t15.5 -8.5l58 -52
q10 -9 10 -13.5t-10 -14.5z" />
    <glyph glyph-name="uni03A9" unicode="&#x3a9;" horiz-adv-x="710" 
d="M668 0h-268v171q48 27 70 96t22 144q0 131 -38.5 194.5t-99.5 63.5q-72 0 -108 -70t-36 -186q0 -93 28 -161.5t78 -86.5v-165h-274v189h35q0 -22 1.5 -34t8 -29t23 -25t43.5 -8h106v34q-90 28 -151 99.5t-61 185.5q0 130 84 215t224 85q142 0 225 -89t83 -209
q0 -98 -57 -176.5t-150 -105.5v-39h101q22 0 36.5 6.5t22 14.5t11.5 23t4.5 24.5t0.5 27.5h36v-189z" />
    <glyph glyph-name="uni03BC" unicode="&#x3bc;" horiz-adv-x="548" 
d="M505 28q9 -15 -4 -18l-106 -22q-5 -1 -12 -1q-18 0 -32 49q-31 -29 -58.5 -41t-67.5 -12l-13 2v-159q0 -10 -2 -13t-10 -4l-127 -19q-9 -1 -12 2.5t-3 14.5v665q0 11 2 14.5t12 4.5l121 18q13 2 16 -0.5t3 -14.5v-326q0 -40 10.5 -56.5t38.5 -16.5q38 0 73 32v346
q0 11 2 14.5t12 4.5l119 17q13 2 16 0t3 -15v-363q0 -65 19 -103z" />
    <glyph glyph-name="pi" unicode="&#x3c0;" horiz-adv-x="418" 
d="M404 118q-24 -130 -76 -130q-33 0 -49 32q-19 35 -19 124v228h-82v-153q0 -146 -32 -199q-19 -32 -51 -32q-14 0 -25.5 11.5t-11.5 31.5q0 33 29 47q25 11 31.5 47t6.5 116v131h-18q-21 0 -31 -12.5t-16 -45.5l-33 10q1 75 28 116.5t71 41.5h260v-110h-74v-168
q0 -73 8 -100q8 -29 23 -29q12 0 19 12.5t15 38.5q2 7 3 10z" />
    <glyph glyph-name="endash" unicode="&#x2013;" horiz-adv-x="520" 
d="M499 212q0 -14 -3.5 -17t-17.5 -3h-436q-14 0 -17 3t-3 17v88q0 13 3 17t17 4h436q14 0 17.5 -4t3.5 -17v-88z" />
    <glyph glyph-name="emdash" unicode="&#x2014;" horiz-adv-x="851" 
d="M824 213q0 -14 -3.5 -17.5t-17.5 -3.5h-756q-14 0 -17 3.5t-3 17.5v87q0 14 3 17.5t17 3.5h756q14 0 17.5 -4t3.5 -17v-87z" />
    <glyph glyph-name="quoteleft" unicode="&#x2018;" horiz-adv-x="302" 
d="M254 676l-57 -201q-4 -16 -21 -16h-128q-17 0 -19.5 6t4.5 19l114 224q6 11 10.5 12.5t16.5 -2.5l67 -16q13 -3 15 -8.5t-2 -17.5z" />
    <glyph glyph-name="quoteright" unicode="&#x2019;" horiz-adv-x="284" 
d="M246 688l-114 -224q-6 -11 -10.5 -12.5t-16.5 2.5l-67 17q-14 4 -15.5 8.5t2.5 17.5l56 199q5 18 22 18h127q30 0 16 -26z" />
    <glyph glyph-name="quotesinglbase" unicode="&#x201a;" horiz-adv-x="284" 
d="M246 100l-114 -224q-6 -11 -10.5 -13t-16.5 2l-67 17q-13 3 -15 8t2 17l56 201q4 16 22 16h127q17 0 20 -5.5t-4 -18.5z" />
    <glyph glyph-name="quotedblleft" unicode="&#x201c;" horiz-adv-x="506" 
d="M474 676l-56 -201q-4 -16 -22 -16h-128q-17 0 -19.5 6t4.5 19l114 224q6 11 10.5 12.5t16.5 -2.5l67 -16q13 -3 15 -8.5t-2 -17.5zM254 676l-57 -201q-4 -16 -21 -16h-128q-17 0 -19.5 6t4.5 19l114 224q6 11 10.5 12.5t16.5 -2.5l67 -16q13 -3 15 -8.5t-2 -17.5z" />
    <glyph glyph-name="quotedblright" unicode="&#x201d;" horiz-adv-x="506" 
d="M475 686l-114 -223q-6 -11 -10.5 -12.5t-16.5 2.5l-67 16q-14 3 -16 8.5t3 17.5l57 200q4 17 21 17h128q29 0 15 -26zM255 686l-114 -223q-6 -11 -10.5 -12.5t-16.5 2.5l-67 16q-14 4 -16 8.5t3 17.5l56 200q4 17 22 17h128q29 0 15 -26z" />
    <glyph glyph-name="quotedblbase" unicode="&#x201e;" horiz-adv-x="506" 
d="M475 100l-114 -224q-6 -11 -10.5 -13t-16.5 2l-67 17q-14 4 -15.5 8.5t2.5 16.5l57 201q4 16 21 16h128q17 0 19.5 -5.5t-4.5 -18.5zM255 100l-114 -224q-6 -11 -10.5 -13t-16.5 2l-67 17q-13 3 -15 8t2 17l56 201q4 16 22 16h128q16 0 19 -5.5t-4 -18.5z" />
    <glyph glyph-name="dagger" unicode="&#x2020;" horiz-adv-x="543" 
d="M480 383q0 -14 -3.5 -17.5t-16.5 -3.5h-118v-553q0 -13 -3.5 -17t-16.5 -4h-101q-13 0 -17 3.5t-4 17.5v553h-116q-14 0 -17.5 3.5t-3.5 17.5v80q0 14 3.5 17t17.5 3h116v183q0 13 4 16.5t17 3.5h101q13 0 16.5 -3.5t3.5 -16.5v-183h118q13 0 16.5 -3t3.5 -17v-80z" />
    <glyph glyph-name="daggerdbl" unicode="&#x2021;" horiz-adv-x="543" 
d="M480 17q0 -13 -3.5 -16.5t-16.5 -3.5h-118v-188q0 -13 -3.5 -17t-16.5 -4h-101q-13 0 -17 3.5t-4 17.5v188h-116q-14 0 -17.5 3t-3.5 17v81q0 14 3.5 17t17.5 3h116v244h-116q-14 0 -17.5 3.5t-3.5 17.5v79q0 14 3.5 17t17.5 3h116v184q0 13 4 16.5t17 3.5h101
q13 0 16.5 -3.5t3.5 -16.5v-184h118q13 0 16.5 -3t3.5 -17v-79q0 -13 -3.5 -17t-16.5 -4h-118v-244h118q13 0 16.5 -3.5t3.5 -16.5v-81z" />
    <glyph glyph-name="bullet" unicode="&#x2022;" 
d="M394 350q0 -60 -42 -102t-101 -42q-60 0 -102.5 42t-42.5 102t42.5 102.5t101.5 42.5t101.5 -42.5t42.5 -102.5z" />
    <glyph glyph-name="ellipsis" unicode="&#x2026;" horiz-adv-x="907" 
d="M867 89q0 -46 -32.5 -78t-78.5 -32t-78 32t-32 78t32 78.5t78 32.5t78.5 -32.5t32.5 -78.5zM564 89q0 -46 -32 -78t-78 -32t-78.5 32t-32.5 78t32.5 78.5t78.5 32.5t78 -32.5t32 -78.5zM261 89q0 -46 -32 -78t-78 -32t-78 32t-32 78t32 78.5t78 32.5t78 -32.5t32 -78.5z
" />
    <glyph glyph-name="perthousand" unicode="&#x2030;" horiz-adv-x="1256" 
d="M1221 170q0 -81 -44.5 -134t-123.5 -53q-78 0 -121 50t-43 132q0 83 45 135t122 52t121 -49.5t44 -132.5zM841 170q0 -81 -44 -134t-123 -53q-78 0 -121.5 50t-43.5 132q0 83 45.5 135t122.5 52q76 0 120 -49.5t44 -132.5zM633 652l-281 -675q-7 -17 -24 -17h-72
q-26 0 -16 25l281 677q7 15 24 15h71q15 0 19 -6t-2 -19zM368 480q0 -81 -44.5 -134t-123.5 -53q-78 0 -121 50t-43 132q0 83 45 135t122 52t121 -49.5t44 -132.5zM1105 167q0 93 -51 93q-47 0 -47 -91q0 -93 47 -93q51 0 51 91zM725 167q0 93 -50 93q-48 0 -48 -91
q0 -93 48 -93q50 0 50 91zM251 477q0 94 -51 94q-47 0 -47 -92t47 -92q51 0 51 90z" />
    <glyph glyph-name="guilsinglleft" unicode="&#x2039;" horiz-adv-x="376" 
d="M322 68q14 -21 -5 -29l-85 -37q-11 -6 -15.5 -5t-11.5 10l-166 225q-7 9 -7.5 14t6.5 14l167 227q7 9 11.5 10t15.5 -5l82 -40q11 -5 12 -11t-6 -17l-114 -177z" />
    <glyph glyph-name="guilsinglright" unicode="&#x203a;" horiz-adv-x="376" 
d="M336 236l-165 -229q-6 -9 -11 -10t-17 5l-84 36q-20 9 -7 29l117 177l-115 179q-8 11 -6.5 17t13.5 12l82 40q12 6 16.5 5.5t11.5 -10.5l165 -223q7 -11 7 -15t-7 -13z" />
    <glyph glyph-name="fraction" unicode="&#x2044;" horiz-adv-x="298" 
d="M342 652l-293 -675q-7 -17 -25 -17h-86q-15 0 -17.5 5.5t3.5 17.5l294 678q7 16 25 16h84q25 0 15 -25z" />
    <glyph glyph-name="Euro" unicode="&#x20ac;" horiz-adv-x="543" 
d="M537 52q0 -13 -33 -34q-58 -35 -149 -35q-227 0 -266 253h-57q-8 0 -11 0.5t-5 2.5t-2 6q0 7 1 12l7 32q2 14 6 17t19 3h36q0 5 -0.5 14t-0.5 13t0.5 11t0.5 10h-50q-19 0 -19 9q0 1 2 11l6 33q3 14 7 17.5t18 3.5h41q15 110 71 173q74 83 191 83q119 0 174 -54
q12 -12 12 -22v-124q0 -10 -4 -13.5t-14 -3.5h-97q-9 0 -12 3.5t-3 13.5v69q-32 5 -52 5q-95 0 -115 -130h167q18 0 18 -8q1 -2 -1 -13l-6 -33q-3 -14 -7 -17t-18 -3h-157q0 -33 1 -48h144q18 0 18 -9q0 -6 -1 -11l-7 -32q-2 -14 -6.5 -17.5t-18.5 -3.5h-123
q11 -71 41 -99.5t81 -28.5q22 0 43 4v73q0 10 3.5 13.5t13.5 3.5h96q10 0 13.5 -3.5t3.5 -13.5v-133z" />
    <glyph glyph-name="litre" unicode="&#x2113;" horiz-adv-x="304" 
d="M333 133q-28 -145 -135 -145q-59 0 -93 33q-43 40 -43 121v38q-5 -8 -24 -28.5t-22 -23.5l-24 36q62 66 69 76v220q0 103 44 177.5t121 74.5q94 0 94 -101q0 -106 -62 -222q-31 -55 -49 -77v-174q0 -80 32 -80t49 88zM277 606q0 58 -31 58q-37 0 -37 -127v-146
q17 34 27 56q17 34 29 81t12 78z" />
    <glyph glyph-name="trademark" unicode="&#x2122;" horiz-adv-x="790" 
d="M759 298q0 -8 -2.5 -10.5t-10.5 -2.5h-100q-15 0 -15 13l-4 167q0 45 3 75q-7 -31 -18 -68l-28 -92q-3 -11 -16 -11h-45q-8 0 -10.5 2t-4.5 10l-26 88q-1 3 -16 71q1 -21 1 -78l-2 -164q0 -13 -15 -13h-97q-8 0 -11 2.5t-3 10.5v49q0 8 3 10.5t11 2.5h18l14 250h-20
q-8 0 -11 3t-3 11v49q0 8 3 10.5t11 2.5h113q13 0 16 -11l42 -129q3 -10 7 -30l5 -25q6 25 16 55l43 129q3 11 16 11h111q8 0 11 -2.5t3 -10.5v-49q0 -8 -3 -11t-11 -3h-21l13 -250h20q8 0 10.5 -2.5t2.5 -10.5v-49zM318 560q0 -13 -13 -13h-43q-13 0 -13 13v40h-32v-240h34
q9 0 12 -2.5t3 -11.5v-47q0 -9 -2.5 -11.5t-11.5 -2.5h-174q-9 0 -11.5 2.5t-2.5 11.5v47q0 9 3 11.5t12 2.5h34v240h-32v-40q0 -13 -13 -13h-42q-14 0 -14 13v114q0 12 14 12h279q13 0 13 -12v-114z" />
    <glyph glyph-name="Omega" unicode="&#x2126;" horiz-adv-x="710" 
d="M668 0h-268v171q48 27 70 96t22 144q0 131 -38.5 194.5t-99.5 63.5q-72 0 -108 -70t-36 -186q0 -93 28 -161.5t78 -86.5v-165h-274v189h35q0 -22 1.5 -34t8 -29t23 -25t43.5 -8h106v34q-90 28 -151 99.5t-61 185.5q0 130 84 215t224 85q142 0 225 -89t83 -209
q0 -98 -57 -176.5t-150 -105.5v-39h101q22 0 36.5 6.5t22 14.5t11.5 23t4.5 24.5t0.5 27.5h36v-189z" />
    <glyph glyph-name="estimated" unicode="&#x212e;" horiz-adv-x="602" 
d="M564 265h-410v-191q58 -60 146 -60q62 0 114.5 32.5t87.5 92.5l27 -15q-46 -68 -99.5 -102t-129.5 -34q-118 0 -189 79.5t-71 198.5t70.5 198t188.5 79q120 0 190 -78t75 -200zM446 293v162q-62 62 -148 62t-144 -60v-164h292z" />
    <glyph glyph-name="partialdiff" unicode="&#x2202;" horiz-adv-x="483" 
d="M459 494q0 -54 -16.5 -133.5t-37.5 -130.5q-54 -134 -106.5 -188t-120.5 -54q-73 0 -115 51.5t-42 144.5q0 116 65.5 199t167.5 83q50 0 80 -25.5t42 -58.5h1q3 25 3 76q0 40 -11 79t-40 71t-72 32q-71 0 -127 -63l-19 24q76 125 194 125q154 0 154 -232zM370 328
q-22 85 -79 85q-52 0 -90.5 -77t-38.5 -184q0 -51 19.5 -79.5t47.5 -28.5q25 0 48.5 26t41 68.5t30.5 90.5t21 99z" />
    <glyph glyph-name="Delta" unicode="&#x2206;" horiz-adv-x="538" 
d="M518 0h-497l198 712h107zM354 52l-124 464l-132 -464h256z" />
    <glyph glyph-name="product" unicode="&#x220f;" horiz-adv-x="632" 
d="M602 -131h-252v36h12q40 0 40 84v658h-174v-658q0 -25 2 -41t11 -29.5t25 -13.5h13v-36h-248v36h12q17 0 26 13.5t11 29.5t2 41v591q0 40 -7 62t-31 22h-13v36h571v-36h-13q-25 0 -32.5 -22t-7.5 -62v-591q0 -84 39 -84h14v-36z" />
    <glyph glyph-name="summation" unicode="&#x2211;" horiz-adv-x="459" 
d="M448 69l-13 -200h-427l-1 41l192 348l-185 401v41h408l8 -165h-35q-5 67 -18.5 89t-47.5 22h-173l144 -313l-195 -350h237q38 0 51.5 19t19.5 71z" />
    <glyph glyph-name="minus" unicode="&#x2212;" 
d="M478 284q0 -13 -3.5 -16.5t-17.5 -3.5h-414q-14 0 -17.5 3.5t-3.5 16.5v100q0 13 3.5 16.5t17.5 3.5h414q14 0 17.5 -3.5t3.5 -16.5v-100z" />
    <glyph glyph-name="uni2215" unicode="&#x2215;" horiz-adv-x="298" 
d="M342 652l-293 -675q-7 -17 -25 -17h-86q-15 0 -17.5 5.5t3.5 17.5l294 678q7 16 25 16h84q25 0 15 -25z" />
    <glyph glyph-name="uni2219" unicode="&#x2219;" 
d="M338 334q0 -36 -26 -61.5t-62 -25.5t-62 25.5t-26 61.5t25.5 62t61.5 26t62.5 -26t26.5 -62z" />
    <glyph glyph-name="radical" unicode="&#x221a;" horiz-adv-x="333" 
d="M303 728l-93 -740h-61l-99 321l-35 -25l-23 33l102 72l85 -300h2l83 639h39z" />
    <glyph glyph-name="infinity" unicode="&#x221e;" horiz-adv-x="628" 
d="M457 140q-49 0 -78.5 21t-54.5 64h-1q-57 -85 -148 -85q-58 0 -96 39.5t-38 98.5q0 61 37 101.5t94 40.5q84 0 130 -85h2q54 85 148 85q57 0 95.5 -39t38.5 -100q0 -60 -37 -100.5t-92 -40.5zM459 373q-13 0 -24 -2.5t-21 -10.5t-16.5 -13t-15 -18.5t-12 -19t-12.5 -22.5
t-11 -21q37 -80 109 -80q40 0 63 28.5t23 66.5q0 39 -21 65.5t-62 26.5zM174 373h1q-38 0 -64 -25t-26 -68q0 -41 23 -67.5t64 -26.5q10 0 18.5 2t16.5 7.5t14.5 9.5t13.5 13.5t11 14.5t10 16.5t8.5 15.5t8.5 16.5t7 14.5q-39 77 -106 77z" />
    <glyph glyph-name="integral" unicode="&#x222b;" horiz-adv-x="248" 
d="M251 690q0 -45 -34 -45q-20 0 -35 16q-9 11 -25 11q-17 0 -17 -23q0 -15 4 -36t11 -49.5t10 -46.5q9 -40 16.5 -114.5t7.5 -125.5q0 -174 -13 -255q-15 -110 -31 -154q-29 -79 -85 -79q-27 0 -45.5 16t-18.5 41q0 19 10.5 32t30.5 13q14 0 29 -18q8 -9 22 -9q17 0 18 31
q0 11 -5 35.5t-13.5 61t-12.5 59.5q-17 105 -17 223q0 109 9 198q11 123 30 188q14 42 37.5 64.5t49.5 22.5q32 0 49.5 -16.5t17.5 -40.5z" />
    <glyph glyph-name="approxequal" unicode="&#x2248;" horiz-adv-x="550" 
d="M548 427q-37 -56 -74 -80.5t-91 -24.5q-67 0 -114 31q-49 33 -92 33q-11 0 -21 -4.5t-16.5 -10t-13.5 -14.5t-10 -15t-7.5 -15.5t-5.5 -10.5l-100 118q36 52 73 78.5t91 26.5q60 0 114 -30q57 -34 94 -34q11 0 20.5 4t15.5 8.5t13 14t10 14.5t8.5 16l6.5 13zM548 171
q-37 -56 -74 -80.5t-91 -24.5q-67 0 -114 31q-49 33 -92 33q-11 0 -21 -4.5t-16.5 -10t-13.5 -14.5t-10 -15t-7.5 -15.5t-5.5 -10.5l-100 118q36 52 73 78.5t91 26.5q60 0 114 -30q57 -34 94 -34q11 0 20.5 4t15.5 8.5t13 14t10 14.5t8.5 16l6.5 13z" />
    <glyph glyph-name="notequal" unicode="&#x2260;" horiz-adv-x="550" 
d="M498 100h-213l-31 -83h-172l31 83h-60v153h122l39 105h-161v153h224l43 113h172l-44 -113h50v-153h-112l-39 -105h151v-153z" />
    <glyph glyph-name="lessequal" unicode="&#x2264;" horiz-adv-x="550" 
d="M498 0h-445v153h445v-153zM498 192l-445 154v156l445 152v-155l-271 -76v-2l271 -77v-152z" />
    <glyph glyph-name="greaterequal" unicode="&#x2265;" horiz-adv-x="550" 
d="M497 0h-444v153h444v-153zM498 345l-445 -152v155l271 77v1l-271 77v152l445 -153v-157z" />
    <glyph glyph-name="lozenge" unicode="&#x25ca;" horiz-adv-x="303" 
d="M319 349l-147 -361h-42l-146 361l146 363h42zM263 349l-112 284l-111 -284l111 -282z" />
    <glyph glyph-name="A.sc" unicode="&#xe000;" horiz-adv-x="533" 
d="M533 17q0 -17 -19 -17h-135q-11 0 -14 3t-6 13l-32 109h-131l-34 -115q-3 -10 -15 -10h-129q-11 0 -14.5 3.5t-3.5 13.5v80q0 16 18 16h27l144 413q4 10 7.5 13t15.5 3h109q12 0 16 -2.5t8 -13.5l140 -413h29q11 0 15 -3t4 -13v-80zM300 233l-25 104q-5 22 -15 83
q-7 -41 -17 -81l-26 -106h83z" />
    <glyph glyph-name="AE.sc" unicode="&#xe001;" horiz-adv-x="678" 
d="M639 20q0 -20 -22 -20h-304q-13 0 -17 3.5t-4 16.5v109h-125l-45 -111q-4 -11 -8 -14.5t-14 -3.5h-115q-11 0 -14.5 3.5t-3.5 13.5v80q0 16 18 16h27l197 415q6 14 22 14h386q11 0 14.5 -3.5t3.5 -13.5v-126q0 -10 -3.5 -13.5t-14.5 -3.5h-83q-11 0 -14.5 3.5t-3.5 13.5
v21h-79v-80h133q13 0 17.5 -4t4.5 -16v-79q0 -12 -4.5 -16t-17.5 -4h-133v-99h81v27q0 10 3.5 14t14.5 4h83q20 0 20 -18v-129zM293 458q-11 -38 -30 -86l-54 -133h83v174q0 3 0.5 20.5t0.5 24.5z" />
    <glyph glyph-name="Aacute.sc" unicode="&#xe002;" horiz-adv-x="533" 
d="M452 700q6 -12 4.5 -17.5t-14.5 -10.5l-206 -79q-19 -8 -27 10l-24 49q-6 12 -4.5 16t13.5 12l188 113q9 5 12.5 6t7 -2t8.5 -12zM533 17q0 -17 -19 -17h-135q-11 0 -14 3t-6 13l-32 109h-131l-34 -115q-3 -10 -15 -10h-129q-11 0 -14.5 3.5t-3.5 13.5v80q0 16 18 16h27
l144 413q4 10 7.5 13t15.5 3h109q12 0 16 -2.5t8 -13.5l140 -413h29q11 0 15 -3t4 -13v-80zM300 233l-25 104q-5 22 -15 83q-7 -41 -17 -81l-26 -106h83z" />
    <glyph glyph-name="Acircumflex.sc" unicode="&#xe003;" horiz-adv-x="533" 
d="M418 659l-38 -46q-9 -11 -13 -12t-15 5l-86 53l-86 -54q-11 -6 -15 -5t-13 12l-37 46q-13 15 4 28l132 106q11 8 15.5 8t15.5 -8l131 -105q11 -9 12 -13.5t-7 -14.5zM533 17q0 -17 -19 -17h-135q-11 0 -14 3t-6 13l-32 109h-131l-34 -115q-3 -10 -15 -10h-129
q-11 0 -14.5 3.5t-3.5 13.5v80q0 16 18 16h27l144 413q4 10 7.5 13t15.5 3h109q12 0 16 -2.5t8 -13.5l140 -413h29q11 0 15 -3t4 -13v-80zM300 233l-25 104q-5 22 -15 83q-7 -41 -17 -81l-26 -106h83z" />
    <glyph glyph-name="Adieresis.sc" unicode="&#xe004;" horiz-adv-x="533" 
d="M456 697q0 -35 -24.5 -60t-59.5 -25t-59.5 25t-24.5 60t24.5 60t59.5 25t59.5 -25t24.5 -60zM247 697q0 -35 -24.5 -60t-59.5 -25t-59.5 25t-24.5 60t24.5 60t59.5 25t59.5 -25t24.5 -60zM533 17q0 -17 -19 -17h-135q-11 0 -14 3t-6 13l-32 109h-131l-34 -115
q-3 -10 -15 -10h-129q-11 0 -14.5 3.5t-3.5 13.5v80q0 16 18 16h27l144 413q4 10 7.5 13t15.5 3h109q12 0 16 -2.5t8 -13.5l140 -413h29q11 0 15 -3t4 -13v-80zM300 233l-25 104q-5 22 -15 83q-7 -41 -17 -81l-26 -106h83z" />
    <glyph glyph-name="Agrave.sc" unicode="&#xe005;" horiz-adv-x="533" 
d="M351 652l-25 -50q-5 -11 -9.5 -12.5t-15.5 3.5l-207 80q-12 5 -13.5 10t4.5 17l42 85q4 7 6 10t5.5 4t6.5 -0.5t10 -5.5l188 -113q9 -5 11.5 -8.5t2 -7.5t-5.5 -12zM533 17q0 -17 -19 -17h-135q-11 0 -14 3t-6 13l-32 109h-131l-34 -115q-3 -10 -15 -10h-129
q-11 0 -14.5 3.5t-3.5 13.5v80q0 16 18 16h27l144 413q4 10 7.5 13t15.5 3h109q12 0 16 -2.5t8 -13.5l140 -413h29q11 0 15 -3t4 -13v-80zM300 233l-25 104q-5 22 -15 83q-7 -41 -17 -81l-26 -106h83z" />
    <glyph glyph-name="Aring.sc" unicode="&#xe006;" horiz-adv-x="533" 
d="M385 717q0 -49 -35 -83.5t-85 -34.5t-85 34.5t-35 83.5q0 50 35 84t85 34t85 -34t35 -84zM533 17q0 -17 -19 -17h-135q-11 0 -14 3t-6 13l-32 109h-131l-34 -115q-3 -10 -15 -10h-129q-11 0 -14.5 3.5t-3.5 13.5v80q0 16 18 16h27l144 413q4 10 7.5 13t15.5 3h109
q12 0 16 -2.5t8 -13.5l140 -413h29q11 0 15 -3t4 -13v-80zM302 717q0 16 -11 26.5t-26 10.5q-16 0 -26.5 -10.5t-10.5 -26.5t10.5 -26.5t26.5 -10.5q15 0 26 10.5t11 26.5zM300 233l-25 104q-5 22 -15 83q-7 -41 -17 -81l-26 -106h83z" />
    <glyph glyph-name="Atilde.sc" unicode="&#xe007;" horiz-adv-x="533" 
d="M429 730q-21 -45 -42 -68q-33 -36 -77 -36q-27 0 -67 24q-21 12 -28 12q-21 0 -36 -28q-3 -5 -5.5 -6.5t-4.5 -1t-8 2.5l-66 29q-9 4 -6 13q4 18 26 52q37 60 93 60q35 0 71 -21q24 -13 32 -13t13.5 4t8.5 8t9 14q7 11 19 6l65 -29q12 -6 5 -19q-1 -2 -2 -3zM533 17
q0 -17 -19 -17h-135q-11 0 -14 3t-6 13l-32 109h-131l-34 -115q-3 -10 -15 -10h-129q-11 0 -14.5 3.5t-3.5 13.5v80q0 16 18 16h27l144 413q4 10 7.5 13t15.5 3h109q12 0 16 -2.5t8 -13.5l140 -413h29q11 0 15 -3t4 -13v-80zM300 233l-25 104q-5 22 -15 83q-7 -41 -17 -81
l-26 -106h83z" />
    <glyph glyph-name="B.sc" unicode="&#xe008;" horiz-adv-x="518" 
d="M487 160q0 -50 -31 -93t-78 -56q-40 -11 -119 -11h-211q-13 0 -17 3.5t-4 16.5v74q0 13 3.5 16t17.5 3h31v315h-31q-13 0 -17 3.5t-4 15.5v75q0 12 4 16t17 4h205q72 0 106 -7.5t60 -30.5q47 -41 47 -107q0 -74 -74 -112q95 -36 95 -125zM324 381q0 27 -14 38t-52 11h-36
v-103h34q38 0 53 13t15 41zM342 173q0 27 -19.5 39t-66.5 12h-34v-105h36q49 0 66.5 12.5t17.5 41.5z" />
    <glyph glyph-name="C.sc" unicode="&#xe009;" horiz-adv-x="468" 
d="M445 45q0 -13 -31 -30q-50 -28 -139 -28q-112 0 -167 54q-77 76 -77 231q0 147 68 216q64 67 172 67t155 -43q12 -12 12 -21v-103q0 -17 -19 -17h-86q-10 0 -13.5 3.5t-3.5 13.5v39q-28 4 -40 4q-23 0 -37.5 -4t-29 -18t-21 -43.5t-6.5 -76.5q0 -59 7.5 -96.5t23 -54.5
t30.5 -22t40 -5q21 0 39 3v42q0 17 20 17h84q19 0 19 -17v-111z" />
    <glyph glyph-name="Ccedilla.sc" unicode="&#xe00a;" horiz-adv-x="468" 
d="M445 45q0 -13 -31 -30q-39 -22 -109 -27l-2 -34q70 -10 70 -82q0 -48 -34.5 -75t-90.5 -27q-50 0 -83 26q-6 6 -4 13l15 51q1 2 4.5 2.5t4.5 -0.5q19 -7 33 -7q29 0 29 20q0 21 -37 21q-13 0 -17 3.5t-3 14.5l8 81q-56 12 -90 46q-77 76 -77 231q0 147 68 216
q64 67 172 67t155 -43q12 -12 12 -21v-103q0 -17 -19 -17h-86q-10 0 -13.5 3.5t-3.5 13.5v39q-28 4 -40 4q-23 0 -37.5 -4t-29 -18t-21 -43.5t-6.5 -76.5q0 -59 7.5 -96.5t23 -54.5t30.5 -22t40 -5q21 0 39 3v42q0 17 20 17h84q19 0 19 -17v-111z" />
    <glyph glyph-name="D.sc" unicode="&#xe00b;" horiz-adv-x="550" 
d="M515 275q0 -203 -129 -255q-49 -20 -127 -20h-211q-13 0 -17 3.5t-4 16.5v74q0 13 3.5 16t17.5 3h31v316h-31q-14 0 -17.5 3t-3.5 16v74q0 13 4 16.5t17 3.5h193q144 0 209 -61t65 -206zM364 269q0 93 -24.5 122.5t-86.5 29.5h-25v-298h25q31 0 48 3.5t33.5 17t23 44
t6.5 81.5z" />
    <glyph glyph-name="Eth.sc" unicode="&#xe00c;" horiz-adv-x="550" 
d="M515 275q0 -203 -129 -255q-49 -20 -127 -20h-211q-13 0 -17 3.5t-4 16.5v74q0 13 3.5 16t17.5 3h31v115h-32q-11 0 -13.5 2.5t-2.5 13.5v74q0 10 2.5 13t13.5 3h32v95h-31q-14 0 -17.5 3t-3.5 16v74q0 13 4 16.5t17 3.5h193q144 0 209 -61t65 -206zM364 269
q0 93 -24.5 122.5t-86.5 29.5h-25v-87h42q11 0 14 -2.5t3 -13.5v-74q0 -11 -3 -13.5t-14 -2.5h-42v-105h25q31 0 48 3.5t33.5 17t23 44t6.5 81.5z" />
    <glyph glyph-name="E.sc" unicode="&#xe00d;" horiz-adv-x="469" 
d="M430 20q0 -12 -3.5 -16t-15.5 -4h-363q-13 0 -17 3.5t-4 16.5v74q0 13 3.5 16t17.5 3h31v315h-31q-13 0 -17 3.5t-4 15.5v75q0 12 4 16t17 4h362q11 0 14.5 -3.5t3.5 -13.5v-126q0 -10 -3.5 -13.5t-14.5 -3.5h-84q-10 0 -13.5 3t-3.5 14v21h-81v-80h135q13 0 17.5 -4
t4.5 -16v-79q0 -12 -4.5 -16t-17.5 -4h-135v-99h83v27q0 18 18 18h83q18 0 18 -18v-129z" />
    <glyph glyph-name="Eacute.sc" unicode="&#xe00e;" horiz-adv-x="469" 
d="M382 700q6 -12 4.5 -17.5t-14.5 -10.5l-206 -79q-19 -8 -27 10l-24 49q-6 12 -4.5 16t13.5 12l188 113q9 5 12.5 6t7 -2t8.5 -12zM430 20q0 -12 -3.5 -16t-15.5 -4h-363q-13 0 -17 3.5t-4 16.5v74q0 13 3.5 16t17.5 3h31v315h-31q-13 0 -17 3.5t-4 15.5v75q0 12 4 16
t17 4h362q11 0 14.5 -3.5t3.5 -13.5v-126q0 -10 -3.5 -13.5t-14.5 -3.5h-84q-10 0 -13.5 3t-3.5 14v21h-81v-80h135q13 0 17.5 -4t4.5 -16v-79q0 -12 -4.5 -16t-17.5 -4h-135v-99h83v27q0 18 18 18h83q18 0 18 -18v-129z" />
    <glyph glyph-name="Ecircumflex.sc" unicode="&#xe00f;" horiz-adv-x="469" 
d="M388 659l-38 -46q-9 -11 -13 -12t-15 5l-86 53l-86 -54q-11 -6 -15 -5t-13 12l-37 46q-13 15 4 28l132 106q10 8 15.5 8t15.5 -8l131 -105q11 -9 12 -13.5t-7 -14.5zM430 20q0 -12 -3.5 -16t-15.5 -4h-363q-13 0 -17 3.5t-4 16.5v74q0 13 3.5 16t17.5 3h31v315h-31
q-13 0 -17 3.5t-4 15.5v75q0 12 4 16t17 4h362q11 0 14.5 -3.5t3.5 -13.5v-126q0 -10 -3.5 -13.5t-14.5 -3.5h-84q-10 0 -13.5 3t-3.5 14v21h-81v-80h135q13 0 17.5 -4t4.5 -16v-79q0 -12 -4.5 -16t-17.5 -4h-135v-99h83v27q0 18 18 18h83q18 0 18 -18v-129z" />
    <glyph glyph-name="Edieresis.sc" unicode="&#xe010;" horiz-adv-x="469" 
d="M426 697q0 -35 -24.5 -60t-59.5 -25t-59.5 25t-24.5 60t24.5 60t59.5 25t59.5 -25t24.5 -60zM217 697q0 -35 -24.5 -60t-59.5 -25t-59.5 25t-24.5 60t24.5 60t59.5 25t59.5 -25t24.5 -60zM430 20q0 -12 -3.5 -16t-15.5 -4h-363q-13 0 -17 3.5t-4 16.5v74q0 13 3.5 16
t17.5 3h31v315h-31q-13 0 -17 3.5t-4 15.5v75q0 12 4 16t17 4h362q11 0 14.5 -3.5t3.5 -13.5v-126q0 -10 -3.5 -13.5t-14.5 -3.5h-84q-10 0 -13.5 3t-3.5 14v21h-81v-80h135q13 0 17.5 -4t4.5 -16v-79q0 -12 -4.5 -16t-17.5 -4h-135v-99h83v27q0 18 18 18h83q18 0 18 -18
v-129z" />
    <glyph glyph-name="Egrave.sc" unicode="&#xe011;" horiz-adv-x="469" 
d="M323 652l-25 -50q-5 -11 -9.5 -12.5t-15.5 3.5l-207 80q-12 5 -13.5 10t4.5 17l42 85q4 7 6 10t5.5 4t6.5 -0.5t10 -5.5l188 -113q9 -5 11.5 -8.5t2 -7.5t-5.5 -12zM430 20q0 -12 -3.5 -16t-15.5 -4h-363q-13 0 -17 3.5t-4 16.5v74q0 13 3.5 16t17.5 3h31v315h-31
q-13 0 -17 3.5t-4 15.5v75q0 12 4 16t17 4h362q11 0 14.5 -3.5t3.5 -13.5v-126q0 -10 -3.5 -13.5t-14.5 -3.5h-84q-10 0 -13.5 3t-3.5 14v21h-81v-80h135q13 0 17.5 -4t4.5 -16v-79q0 -12 -4.5 -16t-17.5 -4h-135v-99h83v27q0 18 18 18h83q18 0 18 -18v-129z" />
    <glyph glyph-name="F.sc" unicode="&#xe012;" horiz-adv-x="445" 
d="M428 399q0 -10 -3.5 -13.5t-14.5 -3.5h-84q-10 0 -13.5 3t-3.5 14v21h-81v-85h135q13 0 17.5 -3.5t4.5 -15.5v-79q0 -12 -4.5 -16t-17.5 -4h-135v-104h44q13 0 17.5 -3.5t4.5 -15.5v-74q0 -13 -4 -16.5t-18 -3.5h-224q-13 0 -17 3.5t-4 16.5v74q0 13 3.5 16t17.5 3h31
v315h-31q-13 0 -17 3.5t-4 15.5v75q0 12 4 16t17 4h362q11 0 14.5 -3.5t3.5 -13.5v-126z" />
    <glyph glyph-name="G.sc" unicode="&#xe013;" horiz-adv-x="524" 
d="M509 209q0 -10 -3.5 -13.5t-14.5 -3.5h-26v-138q0 -5 -1 -8t-3.5 -6t-4 -4t-6.5 -4t-6 -4q-65 -41 -172 -41q-241 0 -241 286q0 145 68 216q63 66 171 66q118 0 170 -46q11 -9 11 -20v-100q0 -18 -18 -18h-87q-18 0 -18 18v39q-27 9 -50 9q-20 0 -34.5 -5t-30 -19.5
t-23.5 -47t-8 -82.5q0 -100 23.5 -137.5t76.5 -37.5q12 0 46 10v74h-49q-13 0 -17.5 4t-4.5 17v72q0 12 4.5 15.5t17.5 3.5h212q11 0 14.5 -3.5t3.5 -13.5v-78z" />
    <glyph glyph-name="H.sc" unicode="&#xe014;" horiz-adv-x="591" 
d="M564 20q0 -12 -4.5 -16t-18.5 -4h-205q-13 0 -17 3.5t-4 16.5v74q0 13 3.5 16t17.5 3h24v110h-131v-110h24q13 0 17.5 -3.5t4.5 -15.5v-74q0 -13 -4 -16.5t-18 -3.5h-205q-13 0 -17 3.5t-4 16.5v74q0 13 3.5 16t17.5 3h31v315h-31q-13 0 -17 3.5t-4 15.5v75q0 12 4 16
t17 4h205q13 0 17.5 -4t4.5 -16v-74q0 -13 -4 -16.5t-18 -3.5h-24v-93h131v93h-24q-13 0 -17 3.5t-4 15.5v75q0 12 4 16t17 4h205q13 0 18 -4t5 -16v-74q0 -12 -4.5 -16t-18.5 -4h-31v-315h31q14 0 18.5 -3.5t4.5 -15.5v-74z" />
    <glyph glyph-name="I.sc" unicode="&#xe015;" horiz-adv-x="316" 
d="M289 20q0 -13 -4 -16.5t-18 -3.5h-219q-13 0 -17 3.5t-4 16.5v74q0 13 3.5 16t17.5 3h34v315h-34q-13 0 -17 3.5t-4 15.5v75q0 12 4 16t17 4h219q13 0 17.5 -4t4.5 -16v-75q0 -12 -4 -15.5t-18 -3.5h-35v-315h35q14 0 18 -3.5t4 -15.5v-74z" />
    <glyph glyph-name="Iacute.sc" unicode="&#xe016;" horiz-adv-x="316" 
d="M342 700q6 -12 4.5 -17.5t-14.5 -10.5l-206 -79q-19 -8 -27 10l-24 49q-6 12 -4.5 16t13.5 12l188 113q9 5 12.5 6t7 -2t8.5 -12zM289 20q0 -13 -4 -16.5t-18 -3.5h-219q-13 0 -17 3.5t-4 16.5v74q0 13 3.5 16t17.5 3h34v315h-34q-13 0 -17 3.5t-4 15.5v75q0 12 4 16
t17 4h219q13 0 17.5 -4t4.5 -16v-75q0 -12 -4 -15.5t-18 -3.5h-35v-315h35q14 0 18 -3.5t4 -15.5v-74z" />
    <glyph glyph-name="Icircumflex.sc" unicode="&#xe017;" horiz-adv-x="316" 
d="M310 659l-38 -46q-9 -11 -13 -12t-15 5l-86 53l-86 -54q-11 -6 -15 -5t-13 12l-37 46q-13 15 4 28l132 106q10 8 15.5 8t15.5 -8l131 -105q11 -9 12 -13.5t-7 -14.5zM289 20q0 -13 -4 -16.5t-18 -3.5h-219q-13 0 -17 3.5t-4 16.5v74q0 13 3.5 16t17.5 3h34v315h-34
q-13 0 -17 3.5t-4 15.5v75q0 12 4 16t17 4h219q13 0 17.5 -4t4.5 -16v-75q0 -12 -4 -15.5t-18 -3.5h-35v-315h35q14 0 18 -3.5t4 -15.5v-74z" />
    <glyph glyph-name="Idieresis.sc" unicode="&#xe018;" horiz-adv-x="316" 
d="M348 697q0 -35 -25 -60t-59 -25q-35 0 -59.5 25t-24.5 60q0 36 24.5 60.5t59.5 24.5t59.5 -24.5t24.5 -60.5zM139 697q0 -35 -25 -60t-59 -25q-35 0 -59.5 25t-24.5 60q0 36 24.5 60.5t59.5 24.5t59.5 -24.5t24.5 -60.5zM289 20q0 -13 -4 -16.5t-18 -3.5h-219
q-13 0 -17 3.5t-4 16.5v74q0 13 3.5 16t17.5 3h34v315h-34q-13 0 -17 3.5t-4 15.5v75q0 12 4 16t17 4h219q13 0 17.5 -4t4.5 -16v-75q0 -12 -4 -15.5t-18 -3.5h-35v-315h35q14 0 18 -3.5t4 -15.5v-74z" />
    <glyph glyph-name="Igrave.sc" unicode="&#xe019;" horiz-adv-x="316" 
d="M274 652l-25 -50q-5 -11 -9.5 -12.5t-15.5 3.5l-207 80q-12 5 -13.5 10t4.5 17l42 85q4 7 6 10t5.5 4t6.5 -0.5t10 -5.5l188 -113q9 -5 11.5 -8.5t2 -7.5t-5.5 -12zM289 20q0 -13 -4 -16.5t-18 -3.5h-219q-13 0 -17 3.5t-4 16.5v74q0 13 3.5 16t17.5 3h34v315h-34
q-13 0 -17 3.5t-4 15.5v75q0 12 4 16t17 4h219q13 0 17.5 -4t4.5 -16v-75q0 -12 -4 -15.5t-18 -3.5h-35v-315h35q14 0 18 -3.5t4 -15.5v-74z" />
    <glyph glyph-name="J.sc" unicode="&#xe01a;" horiz-adv-x="412" 
d="M362 168q0 -98 -51 -141q-49 -40 -129 -40q-128 0 -163 96q-9 25 -9 79q0 18 13 18h105q13 0 13 -11v-5q0 -33 8 -45t29 -12q20 0 27.5 12t7.5 46v263h-113q-13 0 -17.5 3.5t-4.5 15.5v75q0 12 4.5 16t17.5 4h240q13 0 17.5 -4t4.5 -16v-354z" />
    <glyph glyph-name="K.sc" unicode="&#xe01b;" horiz-adv-x="552" 
d="M542 20q0 -11 -4 -15.5t-16 -4.5h-106q-15 0 -26 12l-161 189v-88h17q12 0 16 -3.5t4 -14.5v-75q0 -11 -4 -15.5t-16 -4.5h-197q-14 0 -18 3.5t-4 16.5v74q0 12 4 15.5t18 3.5h31v315h-31q-14 0 -18 3.5t-4 15.5v75q0 12 4.5 16t17.5 4h197q12 0 16 -3.5t4 -14.5v-76
q0 -12 -4 -16t-16 -4h-17v-87l155 192q7 9 23 9h100q12 0 15.5 -3.5t3.5 -14.5v-77q0 -11 -3.5 -15t-15.5 -4h-40l-130 -151l151 -164h34q12 0 16 -3.5t4 -14.5v-75z" />
    <glyph glyph-name="L.sc" unicode="&#xe01c;" horiz-adv-x="469" 
d="M463 138l-29 -122q-3 -16 -24 -16h-362q-13 0 -17 3.5t-4 16.5v74q0 13 3.5 16t17.5 3h31v315h-31q-13 0 -17 3.5t-4 15.5v75q0 12 4 16t17 4h215q13 0 17.5 -4t4.5 -16v-75q0 -12 -4.5 -15.5t-17.5 -3.5h-35v-300h104l10 36q3 13 9.5 15t17.5 -1l77 -17q14 -3 17 -7.5
t0 -15.5z" />
    <glyph glyph-name="Lslash.sc" unicode="&#xe01d;" horiz-adv-x="469" 
d="M463 138l-29 -122q-3 -16 -24 -16h-362q-13 0 -17 3.5t-4 16.5v74q0 13 3.5 16t17.5 3h31v68l-38 -21q-20 -11 -20 14v65q0 13 15 21l43 23v145h-31q-13 0 -17 3.5t-4 15.5v75q0 12 4 16t17 4h215q13 0 17.5 -4t4.5 -16v-75q0 -12 -4.5 -15.5t-17.5 -3.5h-35v-63l90 51
q22 13 22 -13v-67q0 -13 -15 -22l-97 -52v-134h104l10 36q3 13 9.5 15t17.5 -1l77 -17q14 -3 17 -7.5t0 -15.5z" />
    <glyph glyph-name="M.sc" unicode="&#xe01e;" horiz-adv-x="672" 
d="M642 20q0 -11 -4 -15.5t-16 -4.5h-144q-23 0 -23 19l-4 227q0 27 4 103q-25 -90 -27 -96l-42 -123q-4 -11 -8 -13.5t-16 -2.5h-63q-12 0 -15.5 2.5t-6.5 13.5l-38 121q-2 6 -6 22.5t-10 39.5t-9 36q0 -9 1 -46t0 -54l-5 -230q0 -11 -3.5 -15t-15.5 -4h-141q-12 0 -16 4.5
t-4 15.5v75q0 11 4 14.5t16 3.5h27l18 315h-28q-12 0 -16 4t-4 15v77q0 11 4 14.5t16 3.5h164q11 0 15.5 -2.5t8.5 -12.5l61 -175q7 -21 19 -79l9.5 38t12.5 42l64 174q4 10 8.5 12.5t15.5 2.5h160q12 0 16.5 -3.5t4.5 -14.5v-77q0 -11 -4.5 -15t-16.5 -4h-29l18 -315h28
q12 0 16 -3.5t4 -14.5v-75z" />
    <glyph glyph-name="N.sc" unicode="&#xe01f;" horiz-adv-x="584" 
d="M567 447q0 -12 -4 -15.5t-18 -3.5h-31v-408q0 -13 -4 -16.5t-17 -3.5h-79q-12 0 -15.5 2t-9.5 12l-147 242q-15 25 -38 78q7 -54 7 -73v-148h31q14 0 18 -3.5t4 -15.5v-74q0 -12 -3.5 -16t-17.5 -4h-196q-14 0 -17 3.5t-3 16.5v74q0 13 3.5 16t17.5 3h31v315h-31
q-13 0 -17 3.5t-4 15.5v75q0 12 4 16t17 4h145q17 0 25 -14l133 -218q12 -20 38 -83q-6 75 -6 80v121h-28q-14 0 -18 3.5t-4 15.5v75q0 12 4.5 16t17.5 4h190q13 0 17.5 -4t4.5 -16v-75z" />
    <glyph glyph-name="Ntilde.sc" unicode="&#xe020;" horiz-adv-x="584" 
d="M461 730q-21 -45 -42 -68q-33 -36 -77 -36q-27 0 -67 24q-21 12 -28 12q-21 0 -36 -28q-3 -5 -5.5 -6.5t-4.5 -1t-8 2.5l-66 29q-9 4 -6 13q4 18 26 52q37 60 93 60q35 0 71 -21q24 -13 32 -13t13.5 4t8.5 8t9 14q7 11 19 6l65 -29q12 -6 5 -19q-1 -2 -2 -3zM567 447
q0 -12 -4 -15.5t-18 -3.5h-31v-408q0 -13 -4 -16.5t-17 -3.5h-79q-12 0 -15.5 2t-9.5 12l-147 242q-15 25 -38 78q7 -54 7 -73v-148h31q14 0 18 -3.5t4 -15.5v-74q0 -12 -3.5 -16t-17.5 -4h-196q-14 0 -17 3.5t-3 16.5v74q0 13 3.5 16t17.5 3h31v315h-31q-13 0 -17 3.5
t-4 15.5v75q0 12 4 16t17 4h145q17 0 25 -14l133 -218q12 -20 38 -83q-6 75 -6 80v121h-28q-14 0 -18 3.5t-4 15.5v75q0 12 4.5 16t17.5 4h190q13 0 17.5 -4t4.5 -16v-75z" />
    <glyph glyph-name="O.sc" unicode="&#xe021;" horiz-adv-x="524" 
d="M491 279q0 -292 -231 -292q-227 0 -227 292q0 56 11.5 102.5t36.5 87t72 63.5t111 23q227 0 227 -276zM339 272q0 93 -20 129.5t-57 36.5q-76 0 -76 -169q0 -92 19.5 -128.5t56.5 -36.5t57 37.5t20 130.5z" />
    <glyph glyph-name="OE.sc" unicode="&#xe022;" horiz-adv-x="717" 
d="M678 19q0 -11 -4.5 -15t-16.5 -4h-294q-59 -13 -99 -13q-231 0 -231 284t232 284q45 0 93 -13h298q11 0 15 -3.5t4 -13.5v-125q0 -10 -3.5 -14t-14.5 -4h-83q-10 0 -14 4t-4 14v20h-79v-80h133q13 0 17.5 -4t4.5 -16v-79q0 -12 -4.5 -16t-17.5 -4h-133v-99h82v27
q0 10 3 14t14 4h84q18 0 18 -18v-130zM330 119v304q-35 16 -61 16q-20 0 -33 -5t-25.5 -21t-18.5 -51t-6 -90q0 -95 20.5 -131.5t66.5 -36.5q27 0 57 15z" />
    <glyph glyph-name="Oacute.sc" unicode="&#xe023;" horiz-adv-x="524" 
d="M442 700q6 -12 4.5 -17.5t-14.5 -10.5l-206 -79q-19 -8 -27 10l-24 49q-6 12 -4.5 16t13.5 12l188 113q9 5 12.5 6t7 -2t8.5 -12zM491 279q0 -292 -231 -292q-227 0 -227 292q0 56 11.5 102.5t36.5 87t72 63.5t111 23q227 0 227 -276zM339 272q0 93 -20 129.5t-57 36.5
q-76 0 -76 -169q0 -92 19.5 -128.5t56.5 -36.5t57 37.5t20 130.5z" />
    <glyph glyph-name="Ocircumflex.sc" unicode="&#xe024;" horiz-adv-x="524" 
d="M416 659l-38 -46q-9 -11 -13 -12t-15 5l-86 53l-86 -54q-11 -6 -15 -5t-13 12l-37 46q-13 15 4 28l132 106q10 8 15.5 8t15.5 -8l131 -105q11 -9 12 -13.5t-7 -14.5zM491 279q0 -292 -231 -292q-227 0 -227 292q0 56 11.5 102.5t36.5 87t72 63.5t111 23q227 0 227 -276z
M339 272q0 93 -20 129.5t-57 36.5q-76 0 -76 -169q0 -92 19.5 -128.5t56.5 -36.5t57 37.5t20 130.5z" />
    <glyph glyph-name="Odieresis.sc" unicode="&#xe025;" horiz-adv-x="524" 
d="M453 697q0 -35 -24.5 -60t-59.5 -25t-59.5 25t-24.5 60t24.5 60t59.5 25t59.5 -25t24.5 -60zM244 697q0 -35 -24.5 -60t-59.5 -25t-59.5 25t-24.5 60t24.5 60t59.5 25t59.5 -25t24.5 -60zM491 279q0 -292 -231 -292q-227 0 -227 292q0 56 11.5 102.5t36.5 87t72 63.5
t111 23q227 0 227 -276zM339 272q0 93 -20 129.5t-57 36.5q-76 0 -76 -169q0 -92 19.5 -128.5t56.5 -36.5t57 37.5t20 130.5z" />
    <glyph glyph-name="Ograve.sc" unicode="&#xe026;" horiz-adv-x="524" 
d="M343 652l-25 -50q-5 -11 -9.5 -12.5t-15.5 3.5l-207 80q-12 5 -13.5 10t4.5 17l42 85q4 7 6 10t5.5 4t6.5 -0.5t10 -5.5l188 -113q9 -5 11.5 -8.5t2 -7.5t-5.5 -12zM491 279q0 -292 -231 -292q-227 0 -227 292q0 56 11.5 102.5t36.5 87t72 63.5t111 23q227 0 227 -276z
M339 272q0 93 -20 129.5t-57 36.5q-76 0 -76 -169q0 -92 19.5 -128.5t56.5 -36.5t57 37.5t20 130.5z" />
    <glyph glyph-name="Oslash.sc" unicode="&#xe027;" horiz-adv-x="524" 
d="M491 279q0 -292 -231 -292q-62 0 -107 21l-29 -51q-11 -19 -30 -9l-48 26q-19 10 -8 27l42 72q-47 72 -47 206q0 56 11.5 102.5t36.5 87t72 63.5t111 23q57 0 96 -16l23 37q13 20 29 9l45 -27q11 -6 13 -9.5t-2 -15.5l-31 -52q54 -71 54 -202zM305 421q-17 17 -43 17
q-76 0 -76 -169q0 -33 3 -59zM339 272q0 47 -4 74l-120 -220q18 -22 47 -22q37 0 57 37.5t20 130.5z" />
    <glyph glyph-name="Otilde.sc" unicode="&#xe028;" horiz-adv-x="524" 
d="M428 730q-21 -45 -42 -68q-33 -36 -77 -36q-27 0 -67 24q-21 12 -28 12q-21 0 -36 -28q-3 -5 -5.5 -6.5t-4.5 -1t-8 2.5l-66 29q-9 4 -6 13q4 18 26 52q37 60 93 60q35 0 71 -21q24 -13 32 -13t13.5 4t8.5 8t9 14q7 11 19 6l65 -29q12 -6 5 -19q-1 -2 -2 -3zM491 279
q0 -292 -231 -292q-227 0 -227 292q0 56 11.5 102.5t36.5 87t72 63.5t111 23q227 0 227 -276zM339 272q0 93 -20 129.5t-57 36.5q-76 0 -76 -169q0 -92 19.5 -128.5t56.5 -36.5t57 37.5t20 130.5z" />
    <glyph glyph-name="P.sc" unicode="&#xe029;" horiz-adv-x="490" 
d="M470 387q0 -82 -57.5 -131.5t-151.5 -49.5h-33v-93h44q13 0 17.5 -3.5t4.5 -15.5v-74q0 -13 -3 -16.5t-17 -3.5h-227q-14 0 -17 3.5t-3 16.5v74q0 13 3.5 16t17.5 3h31v315h-31q-13 0 -17 3.5t-4 15.5v75q0 12 4 16t17 4h207q118 0 163 -36q52 -41 52 -119zM330 377
q0 29 -17 40.5t-59 11.5h-26v-114h20q46 0 64 14.5t18 47.5z" />
    <glyph glyph-name="Thorn.sc" unicode="&#xe02a;" horiz-adv-x="490" 
d="M470 294q0 -82 -57.5 -131.5t-151.5 -49.5h-33v-93q0 -13 -3 -16.5t-17 -3.5h-161q-14 0 -17 3.5t-3 16.5v74q0 13 3.5 16t17.5 3h31v315h-31q-13 0 -17 3.5t-4 15.5v75q0 12 4 16t17 4h158q13 0 17.5 -4t4.5 -16v-73h27q118 0 163 -36q52 -41 52 -119zM330 287
q0 34 -16.5 45.5t-59.5 11.5h-26v-120h20q47 0 64.5 13.5t17.5 49.5z" />
    <glyph glyph-name="Q.sc" unicode="&#xe02b;" horiz-adv-x="524" 
d="M512 -6l-73 -58q-5 -4 -13 -4q-27 0 -96 64q-41 -12 -69 -12q-228 0 -228 291q0 56 11 103t35.5 88.5t71.5 65t112 23.5q229 0 229 -276q0 -143 -60 -219q12 -8 39 -24t34 -20q19 -13 7 -22zM339 272q0 93 -19.5 129.5t-56.5 36.5q-78 0 -78 -170q0 -92 20.5 -128.5
t57.5 -36.5t56.5 37.5t19.5 131.5z" />
    <glyph glyph-name="R.sc" unicode="&#xe02c;" horiz-adv-x="532" 
d="M522 20q0 -12 -3.5 -16t-15.5 -4h-120q-18 0 -25 13l-112 201h-20v-101h20q12 0 16 -3.5t4 -14.5v-75q0 -11 -4 -15.5t-16 -4.5h-199q-14 0 -17 3.5t-3 16.5v74q0 13 3.5 16t17.5 3h31v315h-31q-13 0 -17 3.5t-4 15.5v75q0 12 4 16t17 4h208q62 0 98 -7.5t62 -28.5
q54 -42 54 -121q0 -101 -90 -148l81 -124h42q12 0 15.5 -3.5t3.5 -14.5v-75zM328 377q0 30 -16.5 41t-58.5 11h-27v-115h21q46 0 63.5 14t17.5 49z" />
    <glyph glyph-name="S.sc" unicode="&#xe02d;" horiz-adv-x="459" 
d="M422 162q0 -78 -55 -125t-145 -47q-51 0 -102 11.5t-78 30.5q-11 8 -11 21v111q0 10 4 13.5t15 3.5h83q19 0 19 -17v-41q36 -12 69 -12q60 0 60 40q0 22 -12.5 34t-58.5 33l-67 30q-52 23 -81 56.5t-29 86.5q0 75 54.5 118t147.5 43q43 0 89.5 -11t71.5 -29q12 -8 12 -20
v-101q0 -17 -20 -17h-81q-20 0 -20 17v36q-24 7 -47 7q-64 0 -64 -34q0 -15 12 -24.5t57 -31.5l61 -30q116 -56 116 -152z" />
    <glyph glyph-name="Scaron.sc" unicode="&#xe02e;" horiz-adv-x="459" 
d="M385 741q8 -10 7 -14t-12 -13l-131 -105q-11 -8 -15.5 -7.5t-15.5 8.5l-132 105q-17 13 -4 28l37 46q9 11 13 12t15 -5l86 -54l86 54q11 6 15 5t13 -13zM422 162q0 -78 -55 -125t-145 -47q-51 0 -102 11.5t-78 30.5q-11 8 -11 21v111q0 10 4 13.5t15 3.5h83q19 0 19 -17
v-41q36 -12 69 -12q60 0 60 40q0 22 -12.5 34t-58.5 33l-67 30q-52 23 -81 56.5t-29 86.5q0 75 54.5 118t147.5 43q43 0 89.5 -11t71.5 -29q12 -8 12 -20v-101q0 -17 -20 -17h-81q-20 0 -20 17v36q-24 7 -47 7q-64 0 -64 -34q0 -15 12 -24.5t57 -31.5l61 -30
q116 -56 116 -152z" />
    <glyph glyph-name="T.sc" unicode="&#xe02f;" horiz-adv-x="465" 
d="M455 372q0 -10 -4 -13.5t-15 -3.5h-64q-19 0 -19 17v43h-46v-302h50q13 0 17.5 -3.5t4.5 -15.5v-74q0 -13 -4 -16.5t-17 -3.5h-251q-13 0 -17 3.5t-4 16.5v74q0 12 4.5 15.5t17.5 3.5h50v302h-46v-43q0 -10 -4 -13.5t-15 -3.5h-64q-11 0 -15 3.5t-4 13.5v153q0 17 20 17
h407q10 0 14 -3.5t4 -13.5v-153z" />
    <glyph glyph-name="U.sc" unicode="&#xe030;" horiz-adv-x="596" 
d="M576 447q0 -12 -4 -15.5t-17 -3.5h-32v-240q0 -113 -81 -164q-58 -37 -153 -37q-142 0 -189 79q-27 44 -27 118v244h-31q-13 0 -17.5 3.5t-4.5 15.5v75q0 12 4.5 16t17.5 4h209q13 0 17 -4t4 -16v-75q0 -12 -4 -15.5t-17 -3.5h-29v-229q0 -55 16.5 -73t58.5 -18
q43 0 62 20t19 70v230h-27q-13 0 -17.5 3.5t-4.5 15.5v75q0 12 4.5 16t17.5 4h204q13 0 17 -4t4 -16v-75z" />
    <glyph glyph-name="Uacute.sc" unicode="&#xe031;" horiz-adv-x="596" 
d="M502 700q6 -12 4.5 -17.5t-14.5 -10.5l-206 -79q-19 -8 -27 10l-24 49q-6 12 -4.5 16t13.5 12l188 113q9 5 12.5 6t7 -2t8.5 -12zM576 447q0 -12 -4 -15.5t-17 -3.5h-32v-240q0 -113 -81 -164q-58 -37 -153 -37q-142 0 -189 79q-27 44 -27 118v244h-31q-13 0 -17.5 3.5
t-4.5 15.5v75q0 12 4.5 16t17.5 4h209q13 0 17 -4t4 -16v-75q0 -12 -4 -15.5t-17 -3.5h-29v-229q0 -55 16.5 -73t58.5 -18q43 0 62 20t19 70v230h-27q-13 0 -17.5 3.5t-4.5 15.5v75q0 12 4.5 16t17.5 4h204q13 0 17 -4t4 -16v-75z" />
    <glyph glyph-name="Ucircumflex.sc" unicode="&#xe032;" horiz-adv-x="596" 
d="M452 659l-38 -46q-9 -11 -13 -12t-15 5l-86 53l-86 -54q-11 -6 -15 -5t-13 12l-37 46q-13 15 4 28l132 106q11 8 15.5 8t15.5 -8l131 -105q11 -9 12 -13.5t-7 -14.5zM576 447q0 -12 -4 -15.5t-17 -3.5h-32v-240q0 -113 -81 -164q-58 -37 -153 -37q-142 0 -189 79
q-27 44 -27 118v244h-31q-13 0 -17.5 3.5t-4.5 15.5v75q0 12 4.5 16t17.5 4h209q13 0 17 -4t4 -16v-75q0 -12 -4 -15.5t-17 -3.5h-29v-229q0 -55 16.5 -73t58.5 -18q43 0 62 20t19 70v230h-27q-13 0 -17.5 3.5t-4.5 15.5v75q0 12 4.5 16t17.5 4h204q13 0 17 -4t4 -16v-75z
" />
    <glyph glyph-name="Udieresis.sc" unicode="&#xe033;" horiz-adv-x="596" 
d="M489 697q0 -35 -24.5 -60t-59.5 -25t-59.5 25t-24.5 60t24.5 60t59.5 25t59.5 -25t24.5 -60zM280 697q0 -35 -24.5 -60t-59.5 -25t-59.5 25t-24.5 60t24.5 60t59.5 25t59.5 -25t24.5 -60zM576 447q0 -12 -4 -15.5t-17 -3.5h-32v-240q0 -113 -81 -164q-58 -37 -153 -37
q-142 0 -189 79q-27 44 -27 118v244h-31q-13 0 -17.5 3.5t-4.5 15.5v75q0 12 4.5 16t17.5 4h209q13 0 17 -4t4 -16v-75q0 -12 -4 -15.5t-17 -3.5h-29v-229q0 -55 16.5 -73t58.5 -18q43 0 62 20t19 70v230h-27q-13 0 -17.5 3.5t-4.5 15.5v75q0 12 4.5 16t17.5 4h204
q13 0 17 -4t4 -16v-75z" />
    <glyph glyph-name="Ugrave.sc" unicode="&#xe034;" horiz-adv-x="596" 
d="M353 652l-25 -50q-5 -11 -9.5 -12.5t-15.5 3.5l-207 80q-12 5 -13.5 10t4.5 17l42 85q4 7 6 10t5.5 4t6.5 -0.5t10 -5.5l188 -113q9 -5 11.5 -8.5t2 -7.5t-5.5 -12zM576 447q0 -12 -4 -15.5t-17 -3.5h-32v-240q0 -113 -81 -164q-58 -37 -153 -37q-142 0 -189 79
q-27 44 -27 118v244h-31q-13 0 -17.5 3.5t-4.5 15.5v75q0 12 4.5 16t17.5 4h209q13 0 17 -4t4 -16v-75q0 -12 -4 -15.5t-17 -3.5h-29v-229q0 -55 16.5 -73t58.5 -18q43 0 62 20t19 70v230h-27q-13 0 -17.5 3.5t-4.5 15.5v75q0 12 4.5 16t17.5 4h204q13 0 17 -4t4 -16v-75z
" />
    <glyph glyph-name="V.sc" unicode="&#xe035;" horiz-adv-x="525" 
d="M525 447q0 -11 -4.5 -15t-16.5 -4h-28l-136 -423q-3 -9 -7.5 -12t-16.5 -3h-115q-12 0 -16 2.5t-7 12.5l-131 423h-27q-12 0 -16 4t-4 15v77q0 11 4 14.5t16 3.5h136q20 0 23 -15l65 -282q0 -2 17 -101q18 99 18 101l74 282q3 15 19 15h132q12 0 16.5 -3.5t4.5 -14.5v-77
z" />
    <glyph glyph-name="W.sc" unicode="&#xe036;" horiz-adv-x="719" 
d="M719 447q0 -11 -3.5 -15t-15.5 -4h-23l-106 -421q-3 -10 -8 -13t-16 -3h-97q-13 0 -17 2.5t-6 13.5l-54 244q-6 28 -13 101q-11 -79 -17 -102l-60 -243q-3 -11 -7 -13.5t-16 -2.5h-98q-13 0 -17 2.5t-6 13.5l-98 421h-20q-12 0 -16.5 4t-4.5 15v77q0 11 4.5 14.5
t16.5 3.5h121q17 0 21 -16l47 -237q8 -42 13 -99q9 70 14 89l60 244q2 11 6 14.5t17 3.5h86q13 0 16 -3.5t6 -15.5l56 -231q5 -18 16 -105q9 78 14 105l46 235q2 10 6 13t15 3h119q12 0 15.5 -3.5t3.5 -14.5v-77z" />
    <glyph glyph-name="X.sc" unicode="&#xe037;" horiz-adv-x="510" 
d="M510 20q0 -20 -21 -20h-120q-14 0 -21 12l-73 125q-6 12 -17 40q-9 -24 -19 -40l-75 -125q-4 -8 -7.5 -10t-13.5 -2h-123q-20 0 -20 20v75q0 11 4 14.5t16 3.5h42l114 173l-97 142h-45q-12 0 -16.5 4t-4.5 15v77q0 11 4.5 14.5t16.5 3.5h122q17 0 24 -13l58 -99
q3 -6 19 -45q15 42 16 44l55 100q5 9 8 11t14 2h124q12 0 15.5 -3.5t3.5 -14.5v-77q0 -11 -3.5 -15t-15.5 -4h-46l-91 -143l110 -172h42q12 0 16.5 -3.5t4.5 -14.5v-75z" />
    <glyph glyph-name="Y.sc" unicode="&#xe038;" horiz-adv-x="475" 
d="M475 447q0 -11 -4 -15t-16 -4h-24l-119 -206v-109h47q13 0 17.5 -3.5t4.5 -15.5v-74q0 -13 -4 -16.5t-17 -3.5h-244q-14 0 -17 3.5t-3 16.5v74q0 12 4 15.5t17 3.5h47v109l-120 206h-24q-12 0 -16 4t-4 15v77q0 11 4 14.5t16 3.5h113q11 0 14 -2t8 -11l63 -128
q8 -17 22 -55q15 42 23 58l66 126q4 8 8 10t15 2h103q12 0 16 -3.5t4 -14.5v-77z" />
    <glyph glyph-name="Yacute.sc" unicode="&#xe039;" horiz-adv-x="475" 
d="M442 700q6 -12 4.5 -17.5t-14.5 -10.5l-206 -79q-19 -8 -27 10l-24 49q-6 12 -4.5 16t13.5 12l188 113q9 5 12.5 6t7 -2t8.5 -12zM475 447q0 -11 -4 -15t-16 -4h-24l-119 -206v-109h47q13 0 17.5 -3.5t4.5 -15.5v-74q0 -13 -4 -16.5t-17 -3.5h-244q-14 0 -17 3.5t-3 16.5
v74q0 12 4 15.5t17 3.5h47v109l-120 206h-24q-12 0 -16 4t-4 15v77q0 11 4 14.5t16 3.5h113q11 0 14 -2t8 -11l63 -128q8 -17 22 -55q15 42 23 58l66 126q4 8 8 10t15 2h103q12 0 16 -3.5t4 -14.5v-77z" />
    <glyph glyph-name="Ydieresis.sc" unicode="&#xe03a;" horiz-adv-x="475" 
d="M428 697q0 -35 -24.5 -60t-59.5 -25t-59.5 25t-24.5 60t24.5 60t59.5 25t59.5 -25t24.5 -60zM219 697q0 -35 -24.5 -60t-59.5 -25t-59.5 25t-24.5 60t24.5 60t59.5 25t59.5 -25t24.5 -60zM475 447q0 -11 -4 -15t-16 -4h-24l-119 -206v-109h47q13 0 17.5 -3.5t4.5 -15.5
v-74q0 -13 -4 -16.5t-17 -3.5h-244q-14 0 -17 3.5t-3 16.5v74q0 12 4 15.5t17 3.5h47v109l-120 206h-24q-12 0 -16 4t-4 15v77q0 11 4 14.5t16 3.5h113q11 0 14 -2t8 -11l63 -128q8 -17 22 -55q15 42 23 58l66 126q4 8 8 10t15 2h103q12 0 16 -3.5t4 -14.5v-77z" />
    <glyph glyph-name="Z.sc" unicode="&#xe03b;" horiz-adv-x="467" 
d="M447 138l-30 -122q-3 -11 -7 -13.5t-16 -2.5h-346q-12 0 -16 4t-4 16v70l222 330h-101l-3 -35q-1 -7 -1.5 -10t-4.5 -5.5t-11 -2.5h-74q-11 0 -15 4t-4 14v140q0 17 20 17h344q13 0 17.5 -4t4.5 -16v-77l-215 -318h109l10 37q3 12 10 14t17 -1l79 -14q20 -3 15 -25z" />
    <glyph glyph-name="Zcaron.sc" unicode="&#xe03c;" horiz-adv-x="467" 
d="M382 741q8 -10 7 -14t-12 -13l-131 -105q-11 -8 -15.5 -7.5t-15.5 8.5l-132 105q-17 13 -4 28l37 46q9 11 13 12t15 -5l86 -54l86 54q11 6 15 5t13 -13zM447 138l-30 -122q-3 -11 -7 -13.5t-16 -2.5h-346q-12 0 -16 4t-4 16v70l222 330h-101l-3 -35q-1 -7 -1.5 -10
t-4.5 -5.5t-11 -2.5h-74q-11 0 -15 4t-4 14v140q0 17 20 17h344q13 0 17.5 -4t4.5 -16v-77l-215 -318h109l10 37q3 12 10 14t17 -1l79 -14q20 -3 15 -25z" />
    <glyph glyph-name="germandbls.sc" unicode="&#xe03d;" horiz-adv-x="918" 
d="M881 162q0 -78 -55 -125t-145 -47q-51 0 -102 11.5t-78 30.5q-11 8 -11 21v111q0 10 4 13.5t15 3.5h83q19 0 19 -17v-41q36 -12 69 -12q60 0 60 40q0 22 -12.5 34t-58.5 33l-67 30q-110 49 -110 143q0 75 54.5 118t147.5 43q43 0 89.5 -11t71.5 -29q12 -8 12 -20v-101
q0 -17 -20 -17h-81q-20 0 -20 17v36q-24 7 -47 7q-64 0 -64 -34q0 -15 12 -24.5t57 -31.5l61 -30q116 -56 116 -152zM422 162q0 -78 -55 -125t-145 -47q-51 0 -102 11.5t-78 30.5q-11 8 -11 21v111q0 10 4 13.5t15 3.5h83q19 0 19 -17v-41q36 -12 69 -12q60 0 60 40
q0 22 -12.5 34t-58.5 33l-67 30q-52 23 -81 56.5t-29 86.5q0 75 54.5 118t147.5 43q43 0 89.5 -11t71.5 -29q12 -8 12 -20v-101q0 -17 -20 -17h-81q-20 0 -20 17v36q-24 7 -47 7q-64 0 -64 -34q0 -15 12 -24.5t57 -31.5l61 -30q116 -56 116 -152z" />
    <glyph glyph-name="f_i.sc" unicode="&#xe03e;" horiz-adv-x="766" 
d="M739 20q0 -13 -4 -16.5t-18 -3.5h-219q-13 0 -17 3.5t-4 16.5v74q0 13 3.5 16t17.5 3h34v315h-34q-13 0 -17 3.5t-4 15.5v75q0 12 4 16t17 4h219q13 0 17.5 -4t4.5 -16v-75q0 -12 -4 -15.5t-18 -3.5h-35v-315h35q14 0 18 -3.5t4 -15.5v-74zM428 399q0 -10 -3.5 -13.5
t-14.5 -3.5h-84q-10 0 -13.5 3t-3.5 14v21h-81v-85h135q13 0 17.5 -3.5t4.5 -15.5v-79q0 -12 -4.5 -16t-17.5 -4h-135v-104h44q13 0 17.5 -3.5t4.5 -15.5v-74q0 -13 -4 -16.5t-18 -3.5h-224q-13 0 -17 3.5t-4 16.5v74q0 13 3.5 16t17.5 3h31v315h-31q-13 0 -17 3.5t-4 15.5
v75q0 12 4 16t17 4h362q11 0 14.5 -3.5t3.5 -13.5v-126z" />
    <glyph glyph-name="f_l.sc" unicode="&#xe03f;" horiz-adv-x="919" 
d="M913 138l-29 -122q-3 -16 -24 -16h-362q-13 0 -17 3.5t-4 16.5v74q0 13 3.5 16t17.5 3h31v315h-31q-13 0 -17 3.5t-4 15.5v75q0 12 4 16t17 4h215q13 0 17.5 -4t4.5 -16v-75q0 -12 -4.5 -15.5t-17.5 -3.5h-35v-300h104l10 36q3 13 9.5 15t17.5 -1l77 -17q14 -3 17 -7.5
t0 -15.5zM428 399q0 -10 -3.5 -13.5t-14.5 -3.5h-84q-10 0 -13.5 3t-3.5 14v21h-81v-85h135q13 0 17.5 -3.5t4.5 -15.5v-79q0 -12 -4.5 -16t-17.5 -4h-135v-104h44q13 0 17.5 -3.5t4.5 -15.5v-74q0 -13 -4 -16.5t-18 -3.5h-224q-13 0 -17 3.5t-4 16.5v74q0 13 3.5 16t17.5 3
h31v315h-31q-13 0 -17 3.5t-4 15.5v75q0 12 4 16t17 4h362q11 0 14.5 -3.5t3.5 -13.5v-126z" />
    <glyph glyph-name="zero.oldstyle" unicode="&#xf730;" horiz-adv-x="535" 
d="M520 293q0 -63 -11.5 -116.5t-38.5 -102t-79.5 -76.5t-125.5 -28q-118 0 -184 86t-66 233q0 148 70 235.5t192 87.5q56 0 100 -20t70 -51t43 -74t23.5 -85.5t6.5 -88.5zM366 276q0 116 -22.5 162.5t-72.5 46.5q-46 0 -73 -49.5t-27 -148.5q0 -97 26 -146t70 -49
q99 0 99 184z" />
    <glyph glyph-name="one.oldstyle" unicode="&#xf731;" horiz-adv-x="514" 
d="M446 21q0 -14 -3 -17.5t-17 -3.5h-315q-14 0 -17 3.5t-3 17.5v77q0 14 3 17t17 3h91v297l-96 -54q-11 -7 -16 -5t-12 13l-37 62q-7 11 -6 15.5t12 12.5l201 138h88q14 0 17.5 -4t3.5 -17v-458h69q14 0 17 -3t3 -17v-77z" />
    <glyph glyph-name="two.oldstyle" unicode="&#xf732;" horiz-adv-x="514" 
d="M476 429q0 -69 -43 -121q-8 -9 -18 -18t-18 -15.5t-22 -15.5t-21 -13t-24 -14t-22 -13q-48 -27 -67.5 -45t-23.5 -40h235q14 0 17 -3t3 -17v-93q0 -15 -2.5 -18t-15.5 -3h-389q-17 0 -17 32q0 65 23 122q22 52 56 86t101 77q2 2 24.5 15.5t28.5 18.5t20 17.5t18.5 25.5
t4.5 28q0 28 -17.5 43.5t-49.5 15.5q-36 0 -55.5 -20.5t-38.5 -64.5q-8 -19 -24 -13l-87 32q-13 5 -10 22q4 21 28 67q58 106 202 106q91 0 147.5 -50t56.5 -131z" />
    <glyph glyph-name="three.oldstyle" unicode="&#xf733;" horiz-adv-x="514" 
d="M479 118q0 -94 -68.5 -153t-175.5 -59q-45 0 -102.5 13t-95.5 40q-10 6 -5 21l27 84q5 14 23 6q85 -39 140 -39q101 0 101 92q0 46 -25.5 67.5t-87.5 21.5h-33q-14 0 -17.5 3t-3.5 17v81q0 13 3.5 16.5t17.5 3.5h35q96 0 96 84q0 31 -19 49.5t-51 18.5q-43 0 -91 -52
q-10 -11 -14 -12.5t-12 4.5l-67 60q-9 8 1 25q29 48 79 73.5t110 25.5q94 0 153 -51t59 -134q0 -89 -84 -141q107 -47 107 -165z" />
    <glyph glyph-name="four.oldstyle" unicode="&#xf734;" horiz-adv-x="521" 
d="M508 58q0 -13 -3 -17t-17 -4h-51v-123q0 -14 -3.5 -17.5t-16.5 -3.5h-109q-14 0 -17.5 4t-3.5 17v123h-255q-13 0 -17 4t-4 17v118l255 414q7 12 11 13.5t16 -3.5l98 -43q14 -6 15.5 -11t-6.5 -16l-246 -367h136l19 141q1 9 2.5 13t5 5.5t12.5 1.5h88q13 0 16.5 -3.5
t3.5 -16.5v-144h51q14 0 17 -3.5t3 -20.5v-78z" />
    <glyph glyph-name="five.oldstyle" unicode="&#xf735;" horiz-adv-x="514" 
d="M487 152q0 -117 -75 -186t-200 -69q-51 0 -98.5 11.5t-71.5 24.5q-13 7 -11 21l18 90q2 11 8.5 12t16.5 -3q80 -25 139 -25q62 0 97 32.5t35 90.5q0 96 -89 96q-32 0 -53 -10.5t-44 -34.5q-11 -11 -21 -8l-81 26q-11 3 -14 8t-2 17l33 332q2 13 5.5 16.5t16.5 3.5h322
q14 0 17 -3.5t3 -18.5v-92q0 -13 -3 -16.5t-17 -3.5h-212l-15 -120q34 24 89 24q94 0 150.5 -59t56.5 -156z" />
    <glyph glyph-name="six.oldstyle" unicode="&#xf736;" horiz-adv-x="514" 
d="M484 218q0 -111 -63 -179t-166 -68q-111 0 -168.5 77t-57.5 221q0 182 83.5 292.5t224.5 110.5q84 0 112 -30q8 -9 5 -20l-27 -84q-4 -14 -20 -6q-36 16 -70 16q-109 0 -157 -138q53 46 108 46q98 0 147 -67.5t49 -170.5zM343 222q0 117 -79 117q-39 0 -60.5 -30.5
t-21.5 -88.5q0 -124 78 -124q83 0 83 126z" />
    <glyph glyph-name="seven.oldstyle" unicode="&#xf737;" horiz-adv-x="505" 
d="M467 524l-232 -599q-4 -10 -8 -12t-17 0l-113 20q-14 2 -16.5 7t3.5 18l206 498h-237q-14 0 -17 3t-3 17v100q0 14 3 17.5t17 3.5h393q14 0 17.5 -3.5t3.5 -17.5v-52z" />
    <glyph glyph-name="eight.oldstyle" unicode="&#xf738;" horiz-adv-x="529" 
d="M510 171q0 -98 -73 -151t-175 -53q-113 0 -180 54t-67 147q0 56 34 100t94 72q-102 54 -102 154q0 81 63.5 133t158.5 52q97 0 161 -51.5t64 -132.5q0 -92 -102 -152q124 -63 124 -172zM334 482q0 32 -19 51t-52 19q-32 0 -52 -18.5t-20 -49.5q0 -33 20.5 -52t56.5 -34
q66 26 66 84zM354 175q0 42 -24.5 65t-71.5 42q-42 -21 -66.5 -45t-24.5 -62q0 -37 25.5 -59.5t70.5 -22.5q42 0 66.5 23t24.5 59z" />
    <glyph glyph-name="nine.oldstyle" unicode="&#xf739;" horiz-adv-x="514" 
d="M484 313q0 -183 -82.5 -293.5t-224.5 -110.5q-65 0 -101 17q-13 6 -10 23l17 91q2 11 20 7q48 -12 73 -12q110 0 158 136q-49 -46 -108 -46q-76 0 -125 45q-72 66 -72 194q0 111 63.5 179.5t166.5 68.5q111 0 168 -77t57 -222zM331 362q0 125 -77 125q-82 0 -82 -126
q0 -119 79 -119q80 0 80 120z" />
    </font>
</defs>
</svg>
